<ttFont>
    <TTGlyph name="A" xMin="15" yMin="0" xMax="525" yMax="700">
      <contour>
        <pt x="214" y="175" on="1"/>
        <pt x="140" y="0" on="1"/>
        <pt x="15" y="0" on="1"/>
        <pt x="318" y="700" on="1"/>
        <pt x="468" y="700" on="1"/>
        <pt x="525" y="0" on="1"/>
        <pt x="400" y="0" on="1"/>
        <pt x="386" y="175" on="1"/>
      </contour>
      <contour>
        <pt x="367" y="540" on="1"/>
        <pt x="363" y="540" on="1"/>
        <pt x="244" y="255" on="1"/>
        <pt x="383" y="255" on="1"/>
      </contour>
    </TTGlyph>
    <TTGlyph name="AE" xMin="0" yMin="0" xMax="838" yMax="700">
      <contour>
        <pt x="363" y="700" on="1"/>
        <pt x="838" y="700" on="1"/>
        <pt x="824" y="620" on="1"/>
        <pt x="579" y="620" on="1"/>
        <pt x="541" y="405" on="1"/>
        <pt x="756" y="405" on="1"/>
        <pt x="742" y="325" on="1"/>
        <pt x="527" y="325" on="1"/>
        <pt x="484" y="80" on="1"/>
        <pt x="729" y="80" on="1"/>
        <pt x="715" y="0" on="1"/>
        <pt x="350" y="0" on="1"/>
        <pt x="380" y="175" on="1"/>
        <pt x="210" y="175" on="1"/>
        <pt x="119" y="0" on="1"/>
        <pt x="0" y="0" on="1"/>
      </contour>
      <contour>
        <pt x="251" y="255" on="1"/>
        <pt x="394" y="255" on="1"/>
        <pt x="459" y="620" on="1"/>
        <pt x="440" y="620" on="1"/>
      </contour>
    </TTGlyph>
    <TTGlyph name="Aacute" xMin="15" yMin="0" xMax="535" yMax="880">
      <contour>
        <pt x="362" y="750" on="1"/>
        <pt x="420" y="880" on="1"/>
        <pt x="535" y="880" on="1"/>
        <pt x="437" y="750" on="1"/>
      </contour>
      <contour>
        <pt x="214" y="175" on="1"/>
        <pt x="140" y="0" on="1"/>
        <pt x="15" y="0" on="1"/>
        <pt x="318" y="700" on="1"/>
        <pt x="468" y="700" on="1"/>
        <pt x="525" y="0" on="1"/>
        <pt x="400" y="0" on="1"/>
        <pt x="386" y="175" on="1"/>
      </contour>
      <contour>
        <pt x="367" y="540" on="1"/>
        <pt x="363" y="540" on="1"/>
        <pt x="244" y="255" on="1"/>
        <pt x="383" y="255" on="1"/>
      </contour>
    </TTGlyph>
    <TTGlyph name="Acircumflex" xMin="15" yMin="0" xMax="535" yMax="880">
      <contour>
        <pt x="270" y="750" on="1"/>
        <pt x="373" y="880" on="1"/>
        <pt x="478" y="880" on="1"/>
        <pt x="535" y="750" on="1"/>
        <pt x="458" y="750" on="1"/>
        <pt x="414" y="820" on="1"/>
        <pt x="346" y="750" on="1"/>
      </contour>
      <contour>
        <pt x="214" y="175" on="1"/>
        <pt x="140" y="0" on="1"/>
        <pt x="15" y="0" on="1"/>
        <pt x="318" y="700" on="1"/>
        <pt x="468" y="700" on="1"/>
        <pt x="525" y="0" on="1"/>
        <pt x="400" y="0" on="1"/>
        <pt x="386" y="175" on="1"/>
      </contour>
      <contour>
        <pt x="367" y="540" on="1"/>
        <pt x="363" y="540" on="1"/>
        <pt x="244" y="255" on="1"/>
        <pt x="383" y="255" on="1"/>
      </contour>
    </TTGlyph>
    <TTGlyph name="Adieresis" xMin="15" yMin="0" xMax="558" yMax="870">
      <contour>
        <pt x="398" y="870" on="1"/>
        <pt x="377" y="750" on="1"/>
        <pt x="267" y="750" on="1"/>
        <pt x="288" y="870" on="1"/>
      </contour>
      <contour>
        <pt x="558" y="870" on="1"/>
        <pt x="537" y="750" on="1"/>
        <pt x="427" y="750" on="1"/>
        <pt x="448" y="870" on="1"/>
      </contour>
      <contour>
        <pt x="214" y="175" on="1"/>
        <pt x="140" y="0" on="1"/>
        <pt x="15" y="0" on="1"/>
        <pt x="318" y="700" on="1"/>
        <pt x="468" y="700" on="1"/>
        <pt x="525" y="0" on="1"/>
        <pt x="400" y="0" on="1"/>
        <pt x="386" y="175" on="1"/>
      </contour>
      <contour>
        <pt x="367" y="540" on="1"/>
        <pt x="363" y="540" on="1"/>
        <pt x="244" y="255" on="1"/>
        <pt x="383" y="255" on="1"/>
      </contour>
    </TTGlyph>
    <TTGlyph name="Agrave" xMin="15" yMin="0" xMax="525" yMax="880">
      <contour>
        <pt x="372" y="750" on="1"/>
        <pt x="320" y="880" on="1"/>
        <pt x="435" y="880" on="1"/>
        <pt x="447" y="750" on="1"/>
      </contour>
      <contour>
        <pt x="214" y="175" on="1"/>
        <pt x="140" y="0" on="1"/>
        <pt x="15" y="0" on="1"/>
        <pt x="318" y="700" on="1"/>
        <pt x="468" y="700" on="1"/>
        <pt x="525" y="0" on="1"/>
        <pt x="400" y="0" on="1"/>
        <pt x="386" y="175" on="1"/>
      </contour>
      <contour>
        <pt x="367" y="540" on="1"/>
        <pt x="363" y="540" on="1"/>
        <pt x="244" y="255" on="1"/>
        <pt x="383" y="255" on="1"/>
      </contour>
    </TTGlyph>
    <TTGlyph name="Amacron" xMin="15" yMin="0" xMax="536" yMax="830">
      <contour>
        <pt x="296" y="830" on="1"/>
        <pt x="536" y="830" on="1"/>
        <pt x="524" y="760" on="1"/>
        <pt x="284" y="760" on="1"/>
      </contour>
      <contour>
        <pt x="214" y="175" on="1"/>
        <pt x="140" y="0" on="1"/>
        <pt x="15" y="0" on="1"/>
        <pt x="318" y="700" on="1"/>
        <pt x="468" y="700" on="1"/>
        <pt x="525" y="0" on="1"/>
        <pt x="400" y="0" on="1"/>
        <pt x="386" y="175" on="1"/>
      </contour>
      <contour>
        <pt x="367" y="540" on="1"/>
        <pt x="363" y="540" on="1"/>
        <pt x="244" y="255" on="1"/>
        <pt x="383" y="255" on="1"/>
      </contour>
    </TTGlyph>
    <TTGlyph name="Aogonek" xMin="14" yMin="-160" xMax="541" yMax="700">
      <contour>
        <pt x="213" y="175" on="1"/>
        <pt x="139" y="0" on="1"/>
        <pt x="14" y="0" on="1"/>
        <pt x="317" y="700" on="1"/>
        <pt x="467" y="700" on="1"/>
        <pt x="524" y="0" on="1"/>
        <pt x="469" y="0" on="1"/>
        <pt x="461" y="-45" on="1"/>
        <pt x="450" y="-100" on="0"/>
        <pt x="505" y="-100" on="1"/>
        <pt x="541" y="-100" on="1"/>
        <pt x="533" y="-145" on="1"/>
        <pt x="522" y="-149" on="0"/>
        <pt x="510" y="-153" on="1"/>
        <pt x="499" y="-156" on="0"/>
        <pt x="471" y="-160" on="0"/>
        <pt x="454" y="-160" on="1"/>
        <pt x="412" y="-160" on="0"/>
        <pt x="372" y="-114" on="0"/>
        <pt x="378" y="-80" on="1"/>
        <pt x="381" y="-61" on="0"/>
        <pt x="395" y="-32" on="0"/>
        <pt x="402" y="-21" on="1"/>
        <pt x="410" y="-9" on="0"/>
        <pt x="419" y="0" on="1"/>
        <pt x="399" y="0" on="1"/>
        <pt x="385" y="175" on="1"/>
      </contour>
      <contour>
        <pt x="366" y="540" on="1"/>
        <pt x="362" y="540" on="1"/>
        <pt x="243" y="255" on="1"/>
        <pt x="382" y="255" on="1"/>
      </contour>
    </TTGlyph>
    <TTGlyph name="Aring" xMin="15" yMin="0" xMax="525" yMax="895">
      <contour>
        <pt x="442" y="810" on="1"/>
        <pt x="445" y="825" on="0"/>
        <pt x="429" y="840" on="0"/>
        <pt x="418" y="840" on="1"/>
        <pt x="407" y="840" on="0"/>
        <pt x="385" y="825" on="0"/>
        <pt x="382" y="810" on="1"/>
        <pt x="380" y="795" on="0"/>
        <pt x="396" y="780" on="0"/>
        <pt x="407" y="780" on="1"/>
        <pt x="418" y="780" on="0"/>
        <pt x="440" y="795" on="0"/>
      </contour>
      <contour>
        <pt x="507" y="810" on="1"/>
        <pt x="501" y="772" on="0"/>
        <pt x="439" y="725" on="0"/>
        <pt x="397" y="725" on="1"/>
        <pt x="355" y="725" on="0"/>
        <pt x="311" y="772" on="0"/>
        <pt x="317" y="810" on="1"/>
        <pt x="324" y="848" on="0"/>
        <pt x="385" y="895" on="0"/>
        <pt x="427" y="895" on="1"/>
        <pt x="469" y="895" on="0"/>
        <pt x="514" y="848" on="0"/>
      </contour>
      <contour>
        <pt x="214" y="175" on="1"/>
        <pt x="140" y="0" on="1"/>
        <pt x="15" y="0" on="1"/>
        <pt x="318" y="700" on="1"/>
        <pt x="468" y="700" on="1"/>
        <pt x="525" y="0" on="1"/>
        <pt x="400" y="0" on="1"/>
        <pt x="386" y="175" on="1"/>
      </contour>
      <contour>
        <pt x="367" y="540" on="1"/>
        <pt x="363" y="540" on="1"/>
        <pt x="244" y="255" on="1"/>
        <pt x="383" y="255" on="1"/>
      </contour>
    </TTGlyph>
    <TTGlyph name="Atilde" xMin="15" yMin="0" xMax="534" yMax="875">
      <contour>
        <pt x="463" y="755" on="1"/>
        <pt x="469" y="795" on="0"/>
        <pt x="445" y="795" on="1"/>
        <pt x="436" y="795" on="0"/>
        <pt x="415" y="779" on="0"/>
        <pt x="391" y="761" on="0"/>
        <pt x="363" y="745" on="0"/>
        <pt x="346" y="745" on="1"/>
        <pt x="329" y="745" on="0"/>
        <pt x="304" y="757" on="0"/>
        <pt x="289" y="785" on="0"/>
        <pt x="286" y="831" on="0"/>
        <pt x="292" y="865" on="1"/>
        <pt x="352" y="865" on="1"/>
        <pt x="346" y="825" on="0"/>
        <pt x="370" y="825" on="1"/>
        <pt x="379" y="825" on="0"/>
        <pt x="400" y="841" on="0"/>
        <pt x="424" y="859" on="0"/>
        <pt x="452" y="875" on="0"/>
        <pt x="469" y="875" on="1"/>
        <pt x="503" y="875" on="0"/>
        <pt x="534" y="823" on="0"/>
        <pt x="523" y="755" on="1"/>
      </contour>
      <contour>
        <pt x="214" y="175" on="1"/>
        <pt x="140" y="0" on="1"/>
        <pt x="15" y="0" on="1"/>
        <pt x="318" y="700" on="1"/>
        <pt x="468" y="700" on="1"/>
        <pt x="525" y="0" on="1"/>
        <pt x="400" y="0" on="1"/>
        <pt x="386" y="175" on="1"/>
      </contour>
      <contour>
        <pt x="367" y="540" on="1"/>
        <pt x="363" y="540" on="1"/>
        <pt x="244" y="255" on="1"/>
        <pt x="383" y="255" on="1"/>
      </contour>
    </TTGlyph>
    <TTGlyph name="B" xMin="71" yMin="-10" xMax="572" yMax="710">
      <contour>
        <pt x="435" y="373" on="1"/>
        <pt x="492" y="352" on="0"/>
        <pt x="540" y="258" on="0"/>
        <pt x="528" y="190" on="1"/>
        <pt x="511" y="92" on="0"/>
        <pt x="378" y="-10" on="0"/>
        <pt x="243" y="-10" on="1"/>
        <pt x="186" y="-10" on="0"/>
        <pt x="107" y="-1" on="0"/>
        <pt x="71" y="10" on="1"/>
        <pt x="191" y="690" on="1"/>
        <pt x="231" y="701" on="0"/>
        <pt x="313" y="710" on="0"/>
        <pt x="370" y="710" on="1"/>
        <pt x="483" y="710" on="0"/>
        <pt x="572" y="612" on="0"/>
        <pt x="557" y="525" on="1"/>
        <pt x="549" y="480" on="0"/>
        <pt x="485" y="398" on="0"/>
        <pt x="436" y="377" on="1"/>
      </contour>
      <contour>
        <pt x="248" y="330" on="1"/>
        <pt x="201" y="65" on="1"/>
        <pt x="256" y="65" on="1"/>
        <pt x="320" y="65" on="0"/>
        <pt x="392" y="127" on="0"/>
        <pt x="404" y="195" on="1"/>
        <pt x="417" y="267" on="0"/>
        <pt x="367" y="330" on="0"/>
        <pt x="303" y="330" on="1"/>
      </contour>
      <contour>
        <pt x="306" y="405" on="1"/>
        <pt x="355" y="405" on="0"/>
        <pt x="421" y="463" on="0"/>
        <pt x="431" y="520" on="1"/>
        <pt x="441" y="577" on="0"/>
        <pt x="395" y="635" on="0"/>
        <pt x="346" y="635" on="1"/>
        <pt x="301" y="635" on="1"/>
        <pt x="261" y="405" on="1"/>
      </contour>
    </TTGlyph>
    <TTGlyph name="C" xMin="88" yMin="-10" xMax="551" yMax="710">
      <contour>
        <pt x="278" y="-10" on="1"/>
        <pt x="220" y="-10" on="0"/>
        <pt x="138" y="24" on="0"/>
        <pt x="93" y="106" on="0"/>
        <pt x="88" y="245" on="0"/>
        <pt x="106" y="350" on="1"/>
        <pt x="125" y="455" on="0"/>
        <pt x="179" y="594" on="0"/>
        <pt x="251" y="676" on="0"/>
        <pt x="341" y="710" on="0"/>
        <pt x="395" y="710" on="1"/>
        <pt x="448" y="710" on="0"/>
        <pt x="530" y="698" on="0"/>
        <pt x="551" y="690" on="1"/>
        <pt x="541" y="635" on="1"/>
        <pt x="421" y="635" on="1"/>
        <pt x="389" y="635" on="0"/>
        <pt x="331" y="609" on="0"/>
        <pt x="282" y="545" on="0"/>
        <pt x="241" y="434" on="0"/>
        <pt x="226" y="350" on="1"/>
        <pt x="211" y="266" on="0"/>
        <pt x="214" y="155" on="0"/>
        <pt x="243" y="91" on="0"/>
        <pt x="295" y="65" on="0"/>
        <pt x="331" y="65" on="1"/>
        <pt x="451" y="65" on="1"/>
        <pt x="441" y="10" on="1"/>
        <pt x="418" y="2" on="0"/>
        <pt x="331" y="-10" on="0"/>
      </contour>
    </TTGlyph>
    <TTGlyph name="Cacute" xMin="88" yMin="-10" xMax="551" yMax="880">
      <contour>
        <pt x="278" y="-10" on="1"/>
        <pt x="220" y="-10" on="0"/>
        <pt x="138" y="24" on="0"/>
        <pt x="93" y="106" on="0"/>
        <pt x="88" y="245" on="0"/>
        <pt x="106" y="350" on="1"/>
        <pt x="125" y="455" on="0"/>
        <pt x="179" y="594" on="0"/>
        <pt x="251" y="676" on="0"/>
        <pt x="341" y="710" on="0"/>
        <pt x="395" y="710" on="1"/>
        <pt x="448" y="710" on="0"/>
        <pt x="530" y="698" on="0"/>
        <pt x="551" y="690" on="1"/>
        <pt x="541" y="635" on="1"/>
        <pt x="421" y="635" on="1"/>
        <pt x="389" y="635" on="0"/>
        <pt x="331" y="609" on="0"/>
        <pt x="282" y="545" on="0"/>
        <pt x="241" y="434" on="0"/>
        <pt x="226" y="350" on="1"/>
        <pt x="211" y="266" on="0"/>
        <pt x="214" y="155" on="0"/>
        <pt x="243" y="91" on="0"/>
        <pt x="295" y="65" on="0"/>
        <pt x="331" y="65" on="1"/>
        <pt x="451" y="65" on="1"/>
        <pt x="441" y="10" on="1"/>
        <pt x="418" y="2" on="0"/>
        <pt x="331" y="-10" on="0"/>
      </contour>
      <contour>
        <pt x="357" y="750" on="1"/>
        <pt x="415" y="880" on="1"/>
        <pt x="530" y="880" on="1"/>
        <pt x="432" y="750" on="1"/>
      </contour>
    </TTGlyph>
    <TTGlyph name="Ccaron" xMin="88" yMin="-10" xMax="554" yMax="890">
      <contour>
        <pt x="278" y="-10" on="1"/>
        <pt x="220" y="-10" on="0"/>
        <pt x="138" y="24" on="0"/>
        <pt x="93" y="106" on="0"/>
        <pt x="88" y="245" on="0"/>
        <pt x="106" y="350" on="1"/>
        <pt x="125" y="455" on="0"/>
        <pt x="179" y="594" on="0"/>
        <pt x="251" y="676" on="0"/>
        <pt x="341" y="710" on="0"/>
        <pt x="395" y="710" on="1"/>
        <pt x="448" y="710" on="0"/>
        <pt x="530" y="698" on="0"/>
        <pt x="551" y="690" on="1"/>
        <pt x="541" y="635" on="1"/>
        <pt x="421" y="635" on="1"/>
        <pt x="389" y="635" on="0"/>
        <pt x="331" y="609" on="0"/>
        <pt x="282" y="545" on="0"/>
        <pt x="241" y="434" on="0"/>
        <pt x="226" y="350" on="1"/>
        <pt x="211" y="266" on="0"/>
        <pt x="214" y="155" on="0"/>
        <pt x="243" y="91" on="0"/>
        <pt x="295" y="65" on="0"/>
        <pt x="331" y="65" on="1"/>
        <pt x="451" y="65" on="1"/>
        <pt x="441" y="10" on="1"/>
        <pt x="418" y="2" on="0"/>
        <pt x="331" y="-10" on="0"/>
      </contour>
      <contour>
        <pt x="365" y="890" on="1"/>
        <pt x="409" y="820" on="1"/>
        <pt x="477" y="890" on="1"/>
        <pt x="554" y="890" on="1"/>
        <pt x="452" y="760" on="1"/>
        <pt x="347" y="760" on="1"/>
        <pt x="289" y="890" on="1"/>
      </contour>
    </TTGlyph>
    <TTGlyph name="Ccedilla" xMin="90" yMin="-170" xMax="551" yMax="710">
      <contour>
        <pt x="273" y="-10" on="1"/>
        <pt x="269" y="-30" on="1"/>
        <pt x="284" y="-30" on="1"/>
        <pt x="329" y="-30" on="0"/>
        <pt x="367" y="-70" on="0"/>
        <pt x="362" y="-100" on="1"/>
        <pt x="357" y="-130" on="0"/>
        <pt x="299" y="-170" on="0"/>
        <pt x="250" y="-170" on="1"/>
        <pt x="231" y="-170" on="0"/>
        <pt x="204" y="-166" on="0"/>
        <pt x="195" y="-163" on="1"/>
        <pt x="184" y="-159" on="0"/>
        <pt x="177" y="-155" on="1"/>
        <pt x="183" y="-121" on="1"/>
        <pt x="248" y="-121" on="1"/>
        <pt x="271" y="-121" on="0"/>
        <pt x="285" y="-108" on="0"/>
        <pt x="287" y="-100" on="1"/>
        <pt x="289" y="-92" on="0"/>
        <pt x="280" y="-79" on="0"/>
        <pt x="261" y="-79" on="1"/>
        <pt x="206" y="-79" on="1"/>
        <pt x="219" y="-4" on="1"/>
        <pt x="178" y="4" on="0"/>
        <pt x="120" y="50" on="0"/>
        <pt x="91" y="134" on="0"/>
        <pt x="90" y="261" on="0"/>
        <pt x="106" y="350" on="1"/>
        <pt x="125" y="455" on="0"/>
        <pt x="179" y="594" on="0"/>
        <pt x="251" y="676" on="0"/>
        <pt x="341" y="710" on="0"/>
        <pt x="395" y="710" on="1"/>
        <pt x="448" y="710" on="0"/>
        <pt x="530" y="698" on="0"/>
        <pt x="551" y="690" on="1"/>
        <pt x="541" y="635" on="1"/>
        <pt x="421" y="635" on="1"/>
        <pt x="389" y="635" on="0"/>
        <pt x="331" y="609" on="0"/>
        <pt x="282" y="545" on="0"/>
        <pt x="241" y="434" on="0"/>
        <pt x="226" y="350" on="1"/>
        <pt x="211" y="266" on="0"/>
        <pt x="214" y="155" on="0"/>
        <pt x="243" y="91" on="0"/>
        <pt x="295" y="65" on="0"/>
        <pt x="331" y="65" on="1"/>
        <pt x="451" y="65" on="1"/>
        <pt x="441" y="10" on="1"/>
        <pt x="418" y="2" on="0"/>
        <pt x="336" y="-10" on="0"/>
        <pt x="283" y="-10" on="1"/>
      </contour>
    </TTGlyph>
    <TTGlyph name="D" xMin="71" yMin="-10" xMax="579" yMax="710">
      <contour>
        <pt x="561" y="350" on="1"/>
        <pt x="543" y="249" on="0"/>
        <pt x="486" y="111" on="0"/>
        <pt x="406" y="27" on="0"/>
        <pt x="305" y="-10" on="0"/>
        <pt x="243" y="-10" on="1"/>
        <pt x="186" y="-10" on="0"/>
        <pt x="107" y="-1" on="0"/>
        <pt x="71" y="10" on="1"/>
        <pt x="191" y="690" on="1"/>
        <pt x="231" y="701" on="0"/>
        <pt x="313" y="710" on="0"/>
        <pt x="370" y="710" on="1"/>
        <pt x="432" y="710" on="0"/>
        <pt x="521" y="673" on="0"/>
        <pt x="570" y="589" on="0"/>
        <pt x="579" y="451" on="0"/>
      </contour>
      <contour>
        <pt x="441" y="350" on="1"/>
        <pt x="456" y="434" on="0"/>
        <pt x="456" y="545" on="0"/>
        <pt x="431" y="609" on="0"/>
        <pt x="386" y="635" on="0"/>
        <pt x="356" y="635" on="1"/>
        <pt x="301" y="635" on="1"/>
        <pt x="201" y="65" on="1"/>
        <pt x="256" y="65" on="1"/>
        <pt x="286" y="65" on="0"/>
        <pt x="340" y="91" on="0"/>
        <pt x="387" y="155" on="0"/>
        <pt x="426" y="266" on="0"/>
      </contour>
    </TTGlyph>
    <TTGlyph name="E" xMin="70" yMin="0" xMax="558" yMax="700">
      <contour>
        <pt x="204" y="80" on="1"/>
        <pt x="449" y="80" on="1"/>
        <pt x="435" y="0" on="1"/>
        <pt x="70" y="0" on="1"/>
        <pt x="193" y="700" on="1"/>
        <pt x="558" y="700" on="1"/>
        <pt x="544" y="620" on="1"/>
        <pt x="299" y="620" on="1"/>
        <pt x="261" y="405" on="1"/>
        <pt x="476" y="405" on="1"/>
        <pt x="462" y="325" on="1"/>
        <pt x="247" y="325" on="1"/>
      </contour>
    </TTGlyph>
    <TTGlyph name="Eacute" xMin="70" yMin="0" xMax="558" yMax="880">
      <contour>
        <pt x="204" y="80" on="1"/>
        <pt x="449" y="80" on="1"/>
        <pt x="435" y="0" on="1"/>
        <pt x="70" y="0" on="1"/>
        <pt x="193" y="700" on="1"/>
        <pt x="558" y="700" on="1"/>
        <pt x="544" y="620" on="1"/>
        <pt x="299" y="620" on="1"/>
        <pt x="261" y="405" on="1"/>
        <pt x="476" y="405" on="1"/>
        <pt x="462" y="325" on="1"/>
        <pt x="247" y="325" on="1"/>
      </contour>
      <contour>
        <pt x="347" y="750" on="1"/>
        <pt x="405" y="880" on="1"/>
        <pt x="520" y="880" on="1"/>
        <pt x="422" y="750" on="1"/>
      </contour>
    </TTGlyph>
    <TTGlyph name="Ecircumflex" xMin="70" yMin="0" xMax="558" yMax="880">
      <contour>
        <pt x="204" y="80" on="1"/>
        <pt x="449" y="80" on="1"/>
        <pt x="435" y="0" on="1"/>
        <pt x="70" y="0" on="1"/>
        <pt x="193" y="700" on="1"/>
        <pt x="558" y="700" on="1"/>
        <pt x="544" y="620" on="1"/>
        <pt x="299" y="620" on="1"/>
        <pt x="261" y="405" on="1"/>
        <pt x="476" y="405" on="1"/>
        <pt x="462" y="325" on="1"/>
        <pt x="247" y="325" on="1"/>
      </contour>
      <contour>
        <pt x="252" y="750" on="1"/>
        <pt x="355" y="880" on="1"/>
        <pt x="460" y="880" on="1"/>
        <pt x="517" y="750" on="1"/>
        <pt x="440" y="750" on="1"/>
        <pt x="396" y="820" on="1"/>
        <pt x="328" y="750" on="1"/>
      </contour>
    </TTGlyph>
    <TTGlyph name="Edieresis" xMin="70" yMin="0" xMax="558" yMax="880">
      <contour>
        <pt x="204" y="80" on="1"/>
        <pt x="449" y="80" on="1"/>
        <pt x="435" y="0" on="1"/>
        <pt x="70" y="0" on="1"/>
        <pt x="193" y="700" on="1"/>
        <pt x="558" y="700" on="1"/>
        <pt x="544" y="620" on="1"/>
        <pt x="299" y="620" on="1"/>
        <pt x="261" y="405" on="1"/>
        <pt x="476" y="405" on="1"/>
        <pt x="462" y="325" on="1"/>
        <pt x="247" y="325" on="1"/>
      </contour>
      <contour>
        <pt x="380" y="880" on="1"/>
        <pt x="359" y="760" on="1"/>
        <pt x="249" y="760" on="1"/>
        <pt x="270" y="880" on="1"/>
      </contour>
      <contour>
        <pt x="540" y="880" on="1"/>
        <pt x="519" y="760" on="1"/>
        <pt x="409" y="760" on="1"/>
        <pt x="430" y="880" on="1"/>
      </contour>
    </TTGlyph>
    <TTGlyph name="Edotaccent" xMin="70" yMin="0" xMax="558" yMax="880">
      <contour>
        <pt x="204" y="80" on="1"/>
        <pt x="449" y="80" on="1"/>
        <pt x="435" y="0" on="1"/>
        <pt x="70" y="0" on="1"/>
        <pt x="193" y="700" on="1"/>
        <pt x="558" y="700" on="1"/>
        <pt x="544" y="620" on="1"/>
        <pt x="299" y="620" on="1"/>
        <pt x="261" y="405" on="1"/>
        <pt x="476" y="405" on="1"/>
        <pt x="462" y="325" on="1"/>
        <pt x="247" y="325" on="1"/>
      </contour>
      <contour>
        <pt x="470" y="880" on="1"/>
        <pt x="449" y="760" on="1"/>
        <pt x="339" y="760" on="1"/>
        <pt x="360" y="880" on="1"/>
      </contour>
    </TTGlyph>
    <TTGlyph name="Egrave" xMin="70" yMin="0" xMax="558" yMax="880">
      <contour>
        <pt x="204" y="80" on="1"/>
        <pt x="449" y="80" on="1"/>
        <pt x="435" y="0" on="1"/>
        <pt x="70" y="0" on="1"/>
        <pt x="193" y="700" on="1"/>
        <pt x="558" y="700" on="1"/>
        <pt x="544" y="620" on="1"/>
        <pt x="299" y="620" on="1"/>
        <pt x="261" y="405" on="1"/>
        <pt x="476" y="405" on="1"/>
        <pt x="462" y="325" on="1"/>
        <pt x="247" y="325" on="1"/>
      </contour>
      <contour>
        <pt x="362" y="750" on="1"/>
        <pt x="310" y="880" on="1"/>
        <pt x="425" y="880" on="1"/>
        <pt x="437" y="750" on="1"/>
      </contour>
    </TTGlyph>
    <TTGlyph name="Emacron" xMin="70" yMin="0" xMax="558" yMax="830">
      <contour>
        <pt x="204" y="80" on="1"/>
        <pt x="449" y="80" on="1"/>
        <pt x="435" y="0" on="1"/>
        <pt x="70" y="0" on="1"/>
        <pt x="193" y="700" on="1"/>
        <pt x="558" y="700" on="1"/>
        <pt x="544" y="620" on="1"/>
        <pt x="299" y="620" on="1"/>
        <pt x="261" y="405" on="1"/>
        <pt x="476" y="405" on="1"/>
        <pt x="462" y="325" on="1"/>
        <pt x="247" y="325" on="1"/>
      </contour>
      <contour>
        <pt x="281" y="830" on="1"/>
        <pt x="521" y="830" on="1"/>
        <pt x="509" y="760" on="1"/>
        <pt x="269" y="760" on="1"/>
      </contour>
    </TTGlyph>
    <TTGlyph name="Eogonek" xMin="70" yMin="-160" xMax="558" yMax="700">
      <contour>
        <pt x="70" y="0" on="1"/>
        <pt x="193" y="700" on="1"/>
        <pt x="558" y="700" on="1"/>
        <pt x="544" y="620" on="1"/>
        <pt x="299" y="620" on="1"/>
        <pt x="261" y="405" on="1"/>
        <pt x="476" y="405" on="1"/>
        <pt x="462" y="325" on="1"/>
        <pt x="247" y="325" on="1"/>
        <pt x="204" y="80" on="1"/>
        <pt x="449" y="80" on="1"/>
        <pt x="435" y="0" on="1"/>
        <pt x="385" y="0" on="1"/>
        <pt x="377" y="-45" on="1"/>
        <pt x="366" y="-100" on="0"/>
        <pt x="421" y="-100" on="1"/>
        <pt x="457" y="-100" on="1"/>
        <pt x="449" y="-145" on="1"/>
        <pt x="438" y="-149" on="0"/>
        <pt x="426" y="-153" on="1"/>
        <pt x="415" y="-156" on="0"/>
        <pt x="387" y="-160" on="0"/>
        <pt x="370" y="-160" on="1"/>
        <pt x="328" y="-160" on="0"/>
        <pt x="288" y="-114" on="0"/>
        <pt x="294" y="-80" on="1"/>
        <pt x="297" y="-61" on="0"/>
        <pt x="311" y="-32" on="0"/>
        <pt x="318" y="-21" on="1"/>
        <pt x="326" y="-9" on="0"/>
        <pt x="335" y="0" on="1"/>
      </contour>
    </TTGlyph>
    <TTGlyph name="Eth" xMin="65" yMin="-10" xMax="594" yMax="710">
      <contour>
        <pt x="79" y="395" on="1"/>
        <pt x="154" y="395" on="1"/>
        <pt x="206" y="690" on="1"/>
        <pt x="246" y="701" on="0"/>
        <pt x="328" y="710" on="0"/>
        <pt x="385" y="710" on="1"/>
        <pt x="447" y="710" on="0"/>
        <pt x="536" y="673" on="0"/>
        <pt x="585" y="589" on="0"/>
        <pt x="594" y="451" on="0"/>
        <pt x="576" y="350" on="1"/>
        <pt x="558" y="249" on="0"/>
        <pt x="501" y="111" on="0"/>
        <pt x="421" y="27" on="0"/>
        <pt x="320" y="-10" on="0"/>
        <pt x="258" y="-10" on="1"/>
        <pt x="201" y="-10" on="0"/>
        <pt x="122" y="-1" on="0"/>
        <pt x="86" y="10" on="1"/>
        <pt x="140" y="315" on="1"/>
        <pt x="65" y="315" on="1"/>
      </contour>
      <contour>
        <pt x="456" y="350" on="1"/>
        <pt x="471" y="434" on="0"/>
        <pt x="471" y="545" on="0"/>
        <pt x="446" y="609" on="0"/>
        <pt x="401" y="635" on="0"/>
        <pt x="371" y="635" on="1"/>
        <pt x="316" y="635" on="1"/>
        <pt x="274" y="395" on="1"/>
        <pt x="379" y="395" on="1"/>
        <pt x="365" y="315" on="1"/>
        <pt x="260" y="315" on="1"/>
        <pt x="216" y="65" on="1"/>
        <pt x="271" y="65" on="1"/>
        <pt x="301" y="65" on="0"/>
        <pt x="355" y="91" on="0"/>
        <pt x="402" y="155" on="0"/>
        <pt x="441" y="266" on="0"/>
      </contour>
    </TTGlyph>
    <TTGlyph name="Euro" xMin="52" yMin="-10" xMax="576" yMax="710">
      <contour>
        <pt x="303" y="-10" on="1"/>
        <pt x="253" y="-10" on="0"/>
        <pt x="179" y="14" on="0"/>
        <pt x="131" y="72" on="0"/>
        <pt x="112" y="168" on="0"/>
        <pt x="117" y="240" on="1"/>
        <pt x="52" y="240" on="1"/>
        <pt x="75" y="315" on="1"/>
        <pt x="125" y="315" on="1"/>
        <pt x="137" y="385" on="1"/>
        <pt x="77" y="385" on="1"/>
        <pt x="101" y="460" on="1"/>
        <pt x="156" y="460" on="1"/>
        <pt x="175" y="532" on="0"/>
        <pt x="228" y="628" on="0"/>
        <pt x="294" y="686" on="0"/>
        <pt x="373" y="710" on="0"/>
        <pt x="420" y="710" on="1"/>
        <pt x="473" y="710" on="0"/>
        <pt x="555" y="698" on="0"/>
        <pt x="576" y="690" on="1"/>
        <pt x="566" y="635" on="1"/>
        <pt x="446" y="635" on="1"/>
        <pt x="420" y="635" on="0"/>
        <pt x="372" y="618" on="0"/>
        <pt x="330" y="578" on="0"/>
        <pt x="292" y="511" on="0"/>
        <pt x="277" y="460" on="1"/>
        <pt x="476" y="460" on="1"/>
        <pt x="447" y="385" on="1"/>
        <pt x="257" y="385" on="1"/>
        <pt x="245" y="315" on="1"/>
        <pt x="420" y="315" on="1"/>
        <pt x="392" y="240" on="1"/>
        <pt x="238" y="240" on="1"/>
        <pt x="236" y="189" on="0"/>
        <pt x="250" y="122" on="0"/>
        <pt x="281" y="81" on="0"/>
        <pt x="327" y="65" on="0"/>
        <pt x="356" y="65" on="1"/>
        <pt x="476" y="65" on="1"/>
        <pt x="466" y="10" on="1"/>
        <pt x="443" y="2" on="0"/>
        <pt x="356" y="-10" on="0"/>
      </contour>
    </TTGlyph>
    <TTGlyph name="F" xMin="70" yMin="0" xMax="558" yMax="700">
      <contour>
        <pt x="190" y="0" on="1"/>
        <pt x="70" y="0" on="1"/>
        <pt x="193" y="700" on="1"/>
        <pt x="558" y="700" on="1"/>
        <pt x="544" y="620" on="1"/>
        <pt x="299" y="620" on="1"/>
        <pt x="258" y="390" on="1"/>
        <pt x="463" y="390" on="1"/>
        <pt x="449" y="310" on="1"/>
        <pt x="244" y="310" on="1"/>
      </contour>
    </TTGlyph>
    <TTGlyph name="G" xMin="88" yMin="-10" xMax="561" yMax="710">
      <contour>
        <pt x="466" y="10" on="1"/>
        <pt x="443" y="2" on="0"/>
        <pt x="355" y="-10" on="0"/>
        <pt x="298" y="-10" on="1"/>
        <pt x="232" y="-10" on="0"/>
        <pt x="142" y="24" on="0"/>
        <pt x="94" y="106" on="0"/>
        <pt x="88" y="245" on="0"/>
        <pt x="106" y="350" on="1"/>
        <pt x="125" y="455" on="0"/>
        <pt x="179" y="594" on="0"/>
        <pt x="253" y="676" on="0"/>
        <pt x="347" y="710" on="0"/>
        <pt x="405" y="710" on="1"/>
        <pt x="458" y="710" on="0"/>
        <pt x="540" y="698" on="0"/>
        <pt x="561" y="690" on="1"/>
        <pt x="551" y="635" on="1"/>
        <pt x="421" y="635" on="1"/>
        <pt x="389" y="635" on="0"/>
        <pt x="331" y="609" on="0"/>
        <pt x="282" y="545" on="0"/>
        <pt x="241" y="434" on="0"/>
        <pt x="226" y="350" on="1"/>
        <pt x="211" y="266" on="0"/>
        <pt x="214" y="155" on="0"/>
        <pt x="243" y="91" on="0"/>
        <pt x="295" y="65" on="0"/>
        <pt x="331" y="65" on="1"/>
        <pt x="356" y="65" on="1"/>
        <pt x="412" y="380" on="1"/>
        <pt x="532" y="380" on="1"/>
      </contour>
    </TTGlyph>
    <TTGlyph name="Gbreve" xMin="88" yMin="-10" xMax="572" yMax="885">
      <contour>
        <pt x="466" y="10" on="1"/>
        <pt x="443" y="2" on="0"/>
        <pt x="355" y="-10" on="0"/>
        <pt x="298" y="-10" on="1"/>
        <pt x="232" y="-10" on="0"/>
        <pt x="142" y="24" on="0"/>
        <pt x="94" y="106" on="0"/>
        <pt x="88" y="245" on="0"/>
        <pt x="106" y="350" on="1"/>
        <pt x="125" y="455" on="0"/>
        <pt x="179" y="594" on="0"/>
        <pt x="253" y="676" on="0"/>
        <pt x="347" y="710" on="0"/>
        <pt x="405" y="710" on="1"/>
        <pt x="458" y="710" on="0"/>
        <pt x="540" y="698" on="0"/>
        <pt x="561" y="690" on="1"/>
        <pt x="551" y="635" on="1"/>
        <pt x="421" y="635" on="1"/>
        <pt x="389" y="635" on="0"/>
        <pt x="331" y="609" on="0"/>
        <pt x="282" y="545" on="0"/>
        <pt x="241" y="434" on="0"/>
        <pt x="226" y="350" on="1"/>
        <pt x="211" y="266" on="0"/>
        <pt x="214" y="155" on="0"/>
        <pt x="243" y="91" on="0"/>
        <pt x="295" y="65" on="0"/>
        <pt x="331" y="65" on="1"/>
        <pt x="356" y="65" on="1"/>
        <pt x="412" y="380" on="1"/>
        <pt x="532" y="380" on="1"/>
      </contour>
      <contour>
        <pt x="428" y="840" on="1"/>
        <pt x="458" y="840" on="0"/>
        <pt x="513" y="870" on="0"/>
        <pt x="531" y="885" on="1"/>
        <pt x="572" y="835" on="1"/>
        <pt x="543" y="797" on="0"/>
        <pt x="462" y="755" on="0"/>
        <pt x="413" y="755" on="1"/>
        <pt x="364" y="755" on="0"/>
        <pt x="298" y="797" on="0"/>
        <pt x="282" y="835" on="1"/>
        <pt x="341" y="885" on="1"/>
        <pt x="353" y="870" on="0"/>
        <pt x="398" y="840" on="0"/>
      </contour>
    </TTGlyph>
    <TTGlyph name="Gcommaaccent" xMin="88" yMin="-220" xMax="561" yMax="710">
      <contour>
        <pt x="466" y="10" on="1"/>
        <pt x="443" y="2" on="0"/>
        <pt x="355" y="-10" on="0"/>
        <pt x="298" y="-10" on="1"/>
        <pt x="232" y="-10" on="0"/>
        <pt x="142" y="24" on="0"/>
        <pt x="94" y="106" on="0"/>
        <pt x="88" y="245" on="0"/>
        <pt x="106" y="350" on="1"/>
        <pt x="125" y="455" on="0"/>
        <pt x="179" y="594" on="0"/>
        <pt x="253" y="676" on="0"/>
        <pt x="347" y="710" on="0"/>
        <pt x="405" y="710" on="1"/>
        <pt x="458" y="710" on="0"/>
        <pt x="540" y="698" on="0"/>
        <pt x="561" y="690" on="1"/>
        <pt x="551" y="635" on="1"/>
        <pt x="421" y="635" on="1"/>
        <pt x="389" y="635" on="0"/>
        <pt x="331" y="609" on="0"/>
        <pt x="282" y="545" on="0"/>
        <pt x="241" y="434" on="0"/>
        <pt x="226" y="350" on="1"/>
        <pt x="211" y="266" on="0"/>
        <pt x="214" y="155" on="0"/>
        <pt x="243" y="91" on="0"/>
        <pt x="295" y="65" on="0"/>
        <pt x="331" y="65" on="1"/>
        <pt x="356" y="65" on="1"/>
        <pt x="412" y="380" on="1"/>
        <pt x="532" y="380" on="1"/>
      </contour>
      <contour>
        <pt x="217" y="-70" on="1"/>
        <pt x="327" y="-70" on="1"/>
        <pt x="266" y="-220" on="1"/>
        <pt x="191" y="-220" on="1"/>
      </contour>
    </TTGlyph>
    <TTGlyph name="H" xMin="70" yMin="0" xMax="613" yMax="700">
      <contour>
        <pt x="613" y="700" on="1"/>
        <pt x="490" y="0" on="1"/>
        <pt x="370" y="0" on="1"/>
        <pt x="425" y="315" on="1"/>
        <pt x="245" y="315" on="1"/>
        <pt x="190" y="0" on="1"/>
        <pt x="70" y="0" on="1"/>
        <pt x="193" y="700" on="1"/>
        <pt x="313" y="700" on="1"/>
        <pt x="259" y="395" on="1"/>
        <pt x="439" y="395" on="1"/>
        <pt x="493" y="700" on="1"/>
      </contour>
    </TTGlyph>
    <TTGlyph name="I" xMin="70" yMin="0" xMax="313" yMax="700">
      <contour>
        <pt x="313" y="700" on="1"/>
        <pt x="190" y="0" on="1"/>
        <pt x="70" y="0" on="1"/>
        <pt x="193" y="700" on="1"/>
      </contour>
    </TTGlyph>
    <TTGlyph name="Iacute" xMin="70" yMin="0" xMax="395" yMax="880">
      <contour>
        <pt x="313" y="700" on="1"/>
        <pt x="190" y="0" on="1"/>
        <pt x="70" y="0" on="1"/>
        <pt x="193" y="700" on="1"/>
      </contour>
      <contour>
        <pt x="222" y="750" on="1"/>
        <pt x="280" y="880" on="1"/>
        <pt x="395" y="880" on="1"/>
        <pt x="297" y="750" on="1"/>
      </contour>
    </TTGlyph>
    <TTGlyph name="Icircumflex" xMin="55" yMin="0" xMax="382" yMax="880">
      <contour>
        <pt x="298" y="700" on="1"/>
        <pt x="175" y="0" on="1"/>
        <pt x="55" y="0" on="1"/>
        <pt x="178" y="700" on="1"/>
      </contour>
      <contour>
        <pt x="117" y="750" on="1"/>
        <pt x="220" y="880" on="1"/>
        <pt x="325" y="880" on="1"/>
        <pt x="382" y="750" on="1"/>
        <pt x="305" y="750" on="1"/>
        <pt x="261" y="820" on="1"/>
        <pt x="193" y="750" on="1"/>
      </contour>
    </TTGlyph>
    <TTGlyph name="Idieresis" xMin="65" yMin="0" xMax="415" yMax="880">
      <contour>
        <pt x="308" y="700" on="1"/>
        <pt x="185" y="0" on="1"/>
        <pt x="65" y="0" on="1"/>
        <pt x="188" y="700" on="1"/>
      </contour>
      <contour>
        <pt x="255" y="880" on="1"/>
        <pt x="234" y="760" on="1"/>
        <pt x="124" y="760" on="1"/>
        <pt x="145" y="880" on="1"/>
      </contour>
      <contour>
        <pt x="415" y="880" on="1"/>
        <pt x="394" y="760" on="1"/>
        <pt x="284" y="760" on="1"/>
        <pt x="305" y="880" on="1"/>
      </contour>
    </TTGlyph>
    <TTGlyph name="Idotaccent" xMin="70" yMin="0" xMax="340" yMax="880">
      <contour>
        <pt x="313" y="700" on="1"/>
        <pt x="190" y="0" on="1"/>
        <pt x="70" y="0" on="1"/>
        <pt x="193" y="700" on="1"/>
      </contour>
      <contour>
        <pt x="340" y="880" on="1"/>
        <pt x="319" y="760" on="1"/>
        <pt x="209" y="760" on="1"/>
        <pt x="230" y="880" on="1"/>
      </contour>
    </TTGlyph>
    <TTGlyph name="Igrave" xMin="65" yMin="0" xMax="308" yMax="880">
      <contour>
        <pt x="308" y="700" on="1"/>
        <pt x="185" y="0" on="1"/>
        <pt x="65" y="0" on="1"/>
        <pt x="188" y="700" on="1"/>
      </contour>
      <contour>
        <pt x="222" y="750" on="1"/>
        <pt x="170" y="880" on="1"/>
        <pt x="285" y="880" on="1"/>
        <pt x="297" y="750" on="1"/>
      </contour>
    </TTGlyph>
    <TTGlyph name="Imacron" xMin="55" yMin="0" xMax="379" yMax="820">
      <contour>
        <pt x="178" y="700" on="1"/>
        <pt x="298" y="700" on="1"/>
        <pt x="175" y="0" on="1"/>
        <pt x="55" y="0" on="1"/>
      </contour>
      <contour>
        <pt x="139" y="820" on="1"/>
        <pt x="379" y="820" on="1"/>
        <pt x="367" y="750" on="1"/>
        <pt x="127" y="750" on="1"/>
      </contour>
    </TTGlyph>
    <TTGlyph name="Iogonek" xMin="29" yMin="-160" xMax="299" yMax="700">
      <contour>
        <pt x="56" y="0" on="1"/>
        <pt x="179" y="700" on="1"/>
        <pt x="299" y="700" on="1"/>
        <pt x="176" y="0" on="1"/>
        <pt x="126" y="0" on="1"/>
        <pt x="118" y="-45" on="1"/>
        <pt x="107" y="-100" on="0"/>
        <pt x="162" y="-100" on="1"/>
        <pt x="198" y="-100" on="1"/>
        <pt x="190" y="-145" on="1"/>
        <pt x="179" y="-149" on="0"/>
        <pt x="167" y="-153" on="1"/>
        <pt x="156" y="-156" on="0"/>
        <pt x="128" y="-160" on="0"/>
        <pt x="111" y="-160" on="1"/>
        <pt x="69" y="-160" on="0"/>
        <pt x="29" y="-114" on="0"/>
        <pt x="35" y="-80" on="1"/>
        <pt x="38" y="-61" on="0"/>
        <pt x="52" y="-32" on="0"/>
        <pt x="59" y="-21" on="1"/>
        <pt x="67" y="-9" on="0"/>
        <pt x="76" y="0" on="1"/>
      </contour>
    </TTGlyph>
    <TTGlyph name="Itilde" xMin="60" yMin="0" xMax="390" yMax="876">
      <contour>
        <pt x="183" y="700" on="1"/>
        <pt x="303" y="700" on="1"/>
        <pt x="180" y="0" on="1"/>
        <pt x="60" y="0" on="1"/>
      </contour>
      <contour>
        <pt x="318" y="756" on="1"/>
        <pt x="324" y="796" on="0"/>
        <pt x="300" y="796" on="1"/>
        <pt x="291" y="796" on="0"/>
        <pt x="270" y="780" on="0"/>
        <pt x="246" y="762" on="0"/>
        <pt x="218" y="746" on="0"/>
        <pt x="201" y="746" on="1"/>
        <pt x="184" y="746" on="0"/>
        <pt x="159" y="758" on="0"/>
        <pt x="144" y="786" on="0"/>
        <pt x="141" y="832" on="0"/>
        <pt x="147" y="866" on="1"/>
        <pt x="207" y="866" on="1"/>
        <pt x="201" y="826" on="0"/>
        <pt x="225" y="826" on="1"/>
        <pt x="234" y="826" on="0"/>
        <pt x="255" y="842" on="0"/>
        <pt x="279" y="860" on="0"/>
        <pt x="307" y="876" on="0"/>
        <pt x="324" y="876" on="1"/>
        <pt x="358" y="876" on="0"/>
        <pt x="390" y="823" on="0"/>
        <pt x="378" y="756" on="1"/>
      </contour>
    </TTGlyph>
    <TTGlyph name="J" xMin="1" yMin="-10" xMax="438" yMax="700">
      <contour>
        <pt x="111" y="65" on="1"/>
        <pt x="132" y="65" on="0"/>
        <pt x="169" y="82" on="0"/>
        <pt x="202" y="122" on="0"/>
        <pt x="228" y="189" on="0"/>
        <pt x="237" y="240" on="1"/>
        <pt x="318" y="700" on="1"/>
        <pt x="438" y="700" on="1"/>
        <pt x="357" y="240" on="1"/>
        <pt x="333" y="105" on="0"/>
        <pt x="207" y="-10" on="0"/>
        <pt x="98" y="-10" on="1"/>
        <pt x="68" y="-10" on="0"/>
        <pt x="19" y="2" on="0"/>
        <pt x="1" y="10" on="1"/>
        <pt x="11" y="65" on="1"/>
      </contour>
    </TTGlyph>
    <TTGlyph name="Jcircumflex" xMin="1" yMin="-10" xMax="518" yMax="870">
      <contour>
        <pt x="111" y="65" on="1"/>
        <pt x="132" y="65" on="0"/>
        <pt x="169" y="82" on="0"/>
        <pt x="202" y="122" on="0"/>
        <pt x="228" y="189" on="0"/>
        <pt x="237" y="240" on="1"/>
        <pt x="318" y="700" on="1"/>
        <pt x="438" y="700" on="1"/>
        <pt x="357" y="240" on="1"/>
        <pt x="333" y="105" on="0"/>
        <pt x="207" y="-10" on="0"/>
        <pt x="98" y="-10" on="1"/>
        <pt x="68" y="-10" on="0"/>
        <pt x="19" y="2" on="0"/>
        <pt x="1" y="10" on="1"/>
        <pt x="11" y="65" on="1"/>
      </contour>
      <contour>
        <pt x="253" y="740" on="1"/>
        <pt x="356" y="870" on="1"/>
        <pt x="461" y="870" on="1"/>
        <pt x="518" y="740" on="1"/>
        <pt x="441" y="740" on="1"/>
        <pt x="397" y="810" on="1"/>
        <pt x="329" y="740" on="1"/>
      </contour>
    </TTGlyph>
    <TTGlyph name="K" xMin="70" yMin="0" xMax="613" yMax="700">
      <contour>
        <pt x="510" y="0" on="1"/>
        <pt x="375" y="0" on="1"/>
        <pt x="248" y="330" on="1"/>
        <pt x="190" y="0" on="1"/>
        <pt x="70" y="0" on="1"/>
        <pt x="193" y="700" on="1"/>
        <pt x="313" y="700" on="1"/>
        <pt x="257" y="380" on="1"/>
        <pt x="478" y="700" on="1"/>
        <pt x="613" y="700" on="1"/>
        <pt x="367" y="355" on="1"/>
      </contour>
    </TTGlyph>
    <TTGlyph name="Kcommaaccent" xMin="70" yMin="-200" xMax="613" yMax="700">
      <contour>
        <pt x="206" y="-50" on="1"/>
        <pt x="316" y="-50" on="1"/>
        <pt x="254" y="-200" on="1"/>
        <pt x="179" y="-200" on="1"/>
      </contour>
      <contour>
        <pt x="510" y="0" on="1"/>
        <pt x="375" y="0" on="1"/>
        <pt x="248" y="330" on="1"/>
        <pt x="190" y="0" on="1"/>
        <pt x="70" y="0" on="1"/>
        <pt x="193" y="700" on="1"/>
        <pt x="313" y="700" on="1"/>
        <pt x="257" y="380" on="1"/>
        <pt x="478" y="700" on="1"/>
        <pt x="613" y="700" on="1"/>
        <pt x="367" y="355" on="1"/>
      </contour>
    </TTGlyph>
    <TTGlyph name="L" xMin="70" yMin="0" xMax="449" yMax="700">
      <contour>
        <pt x="204" y="80" on="1"/>
        <pt x="449" y="80" on="1"/>
        <pt x="435" y="0" on="1"/>
        <pt x="70" y="0" on="1"/>
        <pt x="193" y="700" on="1"/>
        <pt x="313" y="700" on="1"/>
      </contour>
    </TTGlyph>
    <TTGlyph name="Lcommaaccent" xMin="70" yMin="-210" xMax="449" yMax="700">
      <contour>
        <pt x="204" y="80" on="1"/>
        <pt x="449" y="80" on="1"/>
        <pt x="435" y="0" on="1"/>
        <pt x="70" y="0" on="1"/>
        <pt x="193" y="700" on="1"/>
        <pt x="313" y="700" on="1"/>
      </contour>
      <contour>
        <pt x="194" y="-60" on="1"/>
        <pt x="304" y="-60" on="1"/>
        <pt x="242" y="-210" on="1"/>
        <pt x="167" y="-210" on="1"/>
      </contour>
    </TTGlyph>
    <TTGlyph name="Lslash" xMin="43" yMin="0" xMax="449" yMax="700">
      <contour>
        <pt x="268" y="448" on="1"/>
        <pt x="319" y="480" on="1"/>
        <pt x="354" y="420" on="1"/>
        <pt x="252" y="355" on="1"/>
        <pt x="204" y="80" on="1"/>
        <pt x="449" y="80" on="1"/>
        <pt x="435" y="0" on="1"/>
        <pt x="70" y="0" on="1"/>
        <pt x="117" y="270" on="1"/>
        <pt x="78" y="245" on="1"/>
        <pt x="43" y="305" on="1"/>
        <pt x="133" y="362" on="1"/>
        <pt x="193" y="700" on="1"/>
        <pt x="313" y="700" on="1"/>
      </contour>
    </TTGlyph>
    <TTGlyph name="M" xMin="50" yMin="0" xMax="793" yMax="700">
      <contour>
        <pt x="343" y="700" on="1"/>
        <pt x="417" y="225" on="1"/>
        <pt x="421" y="225" on="1"/>
        <pt x="663" y="700" on="1"/>
        <pt x="793" y="700" on="1"/>
        <pt x="710" y="0" on="1"/>
        <pt x="595" y="0" on="1"/>
        <pt x="651" y="474" on="1"/>
        <pt x="647" y="474" on="1"/>
        <pt x="449" y="85" on="1"/>
        <pt x="339" y="85" on="1"/>
        <pt x="279" y="474" on="1"/>
        <pt x="275" y="474" on="1"/>
        <pt x="165" y="0" on="1"/>
        <pt x="50" y="0" on="1"/>
        <pt x="213" y="700" on="1"/>
      </contour>
    </TTGlyph>
    <TTGlyph name="N" xMin="70" yMin="0" xMax="623" yMax="700">
      <contour>
        <pt x="271" y="460" on="1"/>
        <pt x="266" y="460" on="1"/>
        <pt x="185" y="0" on="1"/>
        <pt x="70" y="0" on="1"/>
        <pt x="193" y="700" on="1"/>
        <pt x="313" y="700" on="1"/>
        <pt x="422" y="240" on="1"/>
        <pt x="427" y="240" on="1"/>
        <pt x="508" y="700" on="1"/>
        <pt x="623" y="700" on="1"/>
        <pt x="500" y="0" on="1"/>
        <pt x="380" y="0" on="1"/>
      </contour>
    </TTGlyph>
    <TTGlyph name="Nacute" xMin="70" yMin="0" xMax="623" yMax="880">
      <contour>
        <pt x="271" y="460" on="1"/>
        <pt x="266" y="460" on="1"/>
        <pt x="185" y="0" on="1"/>
        <pt x="70" y="0" on="1"/>
        <pt x="193" y="700" on="1"/>
        <pt x="313" y="700" on="1"/>
        <pt x="422" y="240" on="1"/>
        <pt x="427" y="240" on="1"/>
        <pt x="508" y="700" on="1"/>
        <pt x="623" y="700" on="1"/>
        <pt x="500" y="0" on="1"/>
        <pt x="380" y="0" on="1"/>
      </contour>
      <contour>
        <pt x="377" y="750" on="1"/>
        <pt x="435" y="880" on="1"/>
        <pt x="550" y="880" on="1"/>
        <pt x="452" y="750" on="1"/>
      </contour>
    </TTGlyph>
    <TTGlyph name="Ncommaaccent" xMin="70" yMin="-200" xMax="623" yMax="700">
      <contour>
        <pt x="271" y="460" on="1"/>
        <pt x="266" y="460" on="1"/>
        <pt x="185" y="0" on="1"/>
        <pt x="70" y="0" on="1"/>
        <pt x="193" y="700" on="1"/>
        <pt x="313" y="700" on="1"/>
        <pt x="422" y="240" on="1"/>
        <pt x="427" y="240" on="1"/>
        <pt x="508" y="700" on="1"/>
        <pt x="623" y="700" on="1"/>
        <pt x="500" y="0" on="1"/>
        <pt x="380" y="0" on="1"/>
      </contour>
      <contour>
        <pt x="216" y="-50" on="1"/>
        <pt x="326" y="-50" on="1"/>
        <pt x="264" y="-200" on="1"/>
        <pt x="189" y="-200" on="1"/>
      </contour>
    </TTGlyph>
    <TTGlyph name="Ntilde" xMin="70" yMin="0" xMax="623" yMax="875">
      <contour>
        <pt x="271" y="460" on="1"/>
        <pt x="266" y="460" on="1"/>
        <pt x="185" y="0" on="1"/>
        <pt x="70" y="0" on="1"/>
        <pt x="193" y="700" on="1"/>
        <pt x="313" y="700" on="1"/>
        <pt x="422" y="240" on="1"/>
        <pt x="427" y="240" on="1"/>
        <pt x="508" y="700" on="1"/>
        <pt x="623" y="700" on="1"/>
        <pt x="500" y="0" on="1"/>
        <pt x="380" y="0" on="1"/>
      </contour>
      <contour>
        <pt x="473" y="755" on="1"/>
        <pt x="479" y="795" on="0"/>
        <pt x="455" y="795" on="1"/>
        <pt x="446" y="795" on="0"/>
        <pt x="425" y="779" on="0"/>
        <pt x="401" y="761" on="0"/>
        <pt x="373" y="745" on="0"/>
        <pt x="356" y="745" on="1"/>
        <pt x="339" y="745" on="0"/>
        <pt x="314" y="757" on="0"/>
        <pt x="299" y="785" on="0"/>
        <pt x="296" y="831" on="0"/>
        <pt x="302" y="865" on="1"/>
        <pt x="362" y="865" on="1"/>
        <pt x="356" y="825" on="0"/>
        <pt x="380" y="825" on="1"/>
        <pt x="389" y="825" on="0"/>
        <pt x="410" y="841" on="0"/>
        <pt x="434" y="859" on="0"/>
        <pt x="462" y="875" on="0"/>
        <pt x="479" y="875" on="1"/>
        <pt x="513" y="875" on="0"/>
        <pt x="544" y="823" on="0"/>
        <pt x="533" y="755" on="1"/>
      </contour>
    </TTGlyph>
    <TTGlyph name="O" xMin="88" yMin="-10" xMax="584" yMax="710">
      <contour>
        <pt x="285" y="60" on="1"/>
        <pt x="306" y="60" on="0"/>
        <pt x="350" y="86" on="0"/>
        <pt x="392" y="152" on="0"/>
        <pt x="431" y="264" on="0"/>
        <pt x="446" y="350" on="1"/>
        <pt x="461" y="436" on="0"/>
        <pt x="462" y="548" on="0"/>
        <pt x="443" y="614" on="0"/>
        <pt x="408" y="640" on="0"/>
        <pt x="387" y="640" on="1"/>
        <pt x="366" y="640" on="0"/>
        <pt x="322" y="614" on="0"/>
        <pt x="280" y="548" on="0"/>
        <pt x="241" y="436" on="0"/>
        <pt x="226" y="350" on="1"/>
        <pt x="211" y="264" on="0"/>
        <pt x="210" y="152" on="0"/>
        <pt x="230" y="86" on="0"/>
        <pt x="264" y="60" on="0"/>
      </contour>
      <contour>
        <pt x="400" y="710" on="1"/>
        <pt x="452" y="710" on="0"/>
        <pt x="531" y="673" on="0"/>
        <pt x="576" y="589" on="0"/>
        <pt x="584" y="451" on="0"/>
        <pt x="566" y="350" on="1"/>
        <pt x="548" y="249" on="0"/>
        <pt x="492" y="111" on="0"/>
        <pt x="417" y="27" on="0"/>
        <pt x="325" y="-10" on="0"/>
        <pt x="273" y="-10" on="1"/>
        <pt x="220" y="-10" on="0"/>
        <pt x="142" y="27" on="0"/>
        <pt x="97" y="111" on="0"/>
        <pt x="88" y="249" on="0"/>
        <pt x="106" y="350" on="1"/>
        <pt x="124" y="451" on="0"/>
        <pt x="181" y="589" on="0"/>
        <pt x="256" y="673" on="0"/>
        <pt x="347" y="710" on="0"/>
      </contour>
    </TTGlyph>
    <TTGlyph name="OE" xMin="69" yMin="0" xMax="848" yMax="700">
      <contour>
        <pt x="848" y="700" on="1"/>
        <pt x="834" y="620" on="1"/>
        <pt x="589" y="620" on="1"/>
        <pt x="551" y="405" on="1"/>
        <pt x="766" y="405" on="1"/>
        <pt x="752" y="325" on="1"/>
        <pt x="537" y="325" on="1"/>
        <pt x="494" y="80" on="1"/>
        <pt x="739" y="80" on="1"/>
        <pt x="725" y="0" on="1"/>
        <pt x="345" y="0" on="1"/>
        <pt x="199" y="0" on="0"/>
        <pt x="69" y="170" on="0"/>
        <pt x="101" y="350" on="1"/>
        <pt x="133" y="530" on="0"/>
        <pt x="322" y="700" on="0"/>
        <pt x="468" y="700" on="1"/>
      </contour>
      <contour>
        <pt x="469" y="620" on="1"/>
        <pt x="454" y="620" on="1"/>
        <pt x="411" y="620" on="0"/>
        <pt x="337" y="592" on="0"/>
        <pt x="278" y="528" on="0"/>
        <pt x="234" y="425" on="0"/>
        <pt x="221" y="350" on="1"/>
        <pt x="208" y="275" on="0"/>
        <pt x="215" y="172" on="0"/>
        <pt x="252" y="108" on="0"/>
        <pt x="316" y="80" on="0"/>
        <pt x="359" y="80" on="1"/>
        <pt x="374" y="80" on="1"/>
      </contour>
    </TTGlyph>
    <TTGlyph name="Oacute" xMin="88" yMin="-10" xMax="584" yMax="890">
      <contour>
        <pt x="285" y="60" on="1"/>
        <pt x="306" y="60" on="0"/>
        <pt x="350" y="86" on="0"/>
        <pt x="392" y="152" on="0"/>
        <pt x="431" y="264" on="0"/>
        <pt x="446" y="350" on="1"/>
        <pt x="461" y="436" on="0"/>
        <pt x="462" y="548" on="0"/>
        <pt x="443" y="614" on="0"/>
        <pt x="408" y="640" on="0"/>
        <pt x="387" y="640" on="1"/>
        <pt x="366" y="640" on="0"/>
        <pt x="322" y="614" on="0"/>
        <pt x="280" y="548" on="0"/>
        <pt x="241" y="436" on="0"/>
        <pt x="226" y="350" on="1"/>
        <pt x="211" y="264" on="0"/>
        <pt x="210" y="152" on="0"/>
        <pt x="230" y="86" on="0"/>
        <pt x="264" y="60" on="0"/>
      </contour>
      <contour>
        <pt x="400" y="710" on="1"/>
        <pt x="452" y="710" on="0"/>
        <pt x="531" y="673" on="0"/>
        <pt x="576" y="589" on="0"/>
        <pt x="584" y="451" on="0"/>
        <pt x="566" y="350" on="1"/>
        <pt x="548" y="249" on="0"/>
        <pt x="492" y="111" on="0"/>
        <pt x="417" y="27" on="0"/>
        <pt x="325" y="-10" on="0"/>
        <pt x="273" y="-10" on="1"/>
        <pt x="220" y="-10" on="0"/>
        <pt x="142" y="27" on="0"/>
        <pt x="97" y="111" on="0"/>
        <pt x="88" y="249" on="0"/>
        <pt x="106" y="350" on="1"/>
        <pt x="124" y="451" on="0"/>
        <pt x="181" y="589" on="0"/>
        <pt x="256" y="673" on="0"/>
        <pt x="347" y="710" on="0"/>
      </contour>
      <contour>
        <pt x="364" y="760" on="1"/>
        <pt x="421" y="890" on="1"/>
        <pt x="536" y="890" on="1"/>
        <pt x="439" y="760" on="1"/>
      </contour>
    </TTGlyph>
    <TTGlyph name="Ocircumflex" xMin="88" yMin="-10" xMax="584" yMax="890">
      <contour>
        <pt x="285" y="60" on="1"/>
        <pt x="306" y="60" on="0"/>
        <pt x="350" y="86" on="0"/>
        <pt x="392" y="152" on="0"/>
        <pt x="431" y="264" on="0"/>
        <pt x="446" y="350" on="1"/>
        <pt x="461" y="436" on="0"/>
        <pt x="462" y="548" on="0"/>
        <pt x="443" y="614" on="0"/>
        <pt x="408" y="640" on="0"/>
        <pt x="387" y="640" on="1"/>
        <pt x="366" y="640" on="0"/>
        <pt x="322" y="614" on="0"/>
        <pt x="280" y="548" on="0"/>
        <pt x="241" y="436" on="0"/>
        <pt x="226" y="350" on="1"/>
        <pt x="211" y="264" on="0"/>
        <pt x="210" y="152" on="0"/>
        <pt x="230" y="86" on="0"/>
        <pt x="264" y="60" on="0"/>
      </contour>
      <contour>
        <pt x="400" y="710" on="1"/>
        <pt x="452" y="710" on="0"/>
        <pt x="531" y="673" on="0"/>
        <pt x="576" y="589" on="0"/>
        <pt x="584" y="451" on="0"/>
        <pt x="566" y="350" on="1"/>
        <pt x="548" y="249" on="0"/>
        <pt x="492" y="111" on="0"/>
        <pt x="417" y="27" on="0"/>
        <pt x="325" y="-10" on="0"/>
        <pt x="273" y="-10" on="1"/>
        <pt x="220" y="-10" on="0"/>
        <pt x="142" y="27" on="0"/>
        <pt x="97" y="111" on="0"/>
        <pt x="88" y="249" on="0"/>
        <pt x="106" y="350" on="1"/>
        <pt x="124" y="451" on="0"/>
        <pt x="181" y="589" on="0"/>
        <pt x="256" y="673" on="0"/>
        <pt x="347" y="710" on="0"/>
      </contour>
      <contour>
        <pt x="279" y="760" on="1"/>
        <pt x="381" y="890" on="1"/>
        <pt x="486" y="890" on="1"/>
        <pt x="544" y="760" on="1"/>
        <pt x="467" y="760" on="1"/>
        <pt x="423" y="830" on="1"/>
        <pt x="355" y="760" on="1"/>
      </contour>
    </TTGlyph>
    <TTGlyph name="Odieresis" xMin="88" yMin="-10" xMax="584" yMax="880">
      <contour>
        <pt x="285" y="60" on="1"/>
        <pt x="306" y="60" on="0"/>
        <pt x="350" y="86" on="0"/>
        <pt x="392" y="152" on="0"/>
        <pt x="431" y="264" on="0"/>
        <pt x="446" y="350" on="1"/>
        <pt x="461" y="436" on="0"/>
        <pt x="462" y="548" on="0"/>
        <pt x="443" y="614" on="0"/>
        <pt x="408" y="640" on="0"/>
        <pt x="387" y="640" on="1"/>
        <pt x="366" y="640" on="0"/>
        <pt x="322" y="614" on="0"/>
        <pt x="280" y="548" on="0"/>
        <pt x="241" y="436" on="0"/>
        <pt x="226" y="350" on="1"/>
        <pt x="211" y="264" on="0"/>
        <pt x="210" y="152" on="0"/>
        <pt x="230" y="86" on="0"/>
        <pt x="264" y="60" on="0"/>
      </contour>
      <contour>
        <pt x="400" y="710" on="1"/>
        <pt x="452" y="710" on="0"/>
        <pt x="531" y="673" on="0"/>
        <pt x="576" y="589" on="0"/>
        <pt x="584" y="451" on="0"/>
        <pt x="566" y="350" on="1"/>
        <pt x="548" y="249" on="0"/>
        <pt x="492" y="111" on="0"/>
        <pt x="417" y="27" on="0"/>
        <pt x="325" y="-10" on="0"/>
        <pt x="273" y="-10" on="1"/>
        <pt x="220" y="-10" on="0"/>
        <pt x="142" y="27" on="0"/>
        <pt x="97" y="111" on="0"/>
        <pt x="88" y="249" on="0"/>
        <pt x="106" y="350" on="1"/>
        <pt x="124" y="451" on="0"/>
        <pt x="181" y="589" on="0"/>
        <pt x="256" y="673" on="0"/>
        <pt x="347" y="710" on="0"/>
      </contour>
      <contour>
        <pt x="405" y="880" on="1"/>
        <pt x="384" y="760" on="1"/>
        <pt x="274" y="760" on="1"/>
        <pt x="295" y="880" on="1"/>
      </contour>
      <contour>
        <pt x="565" y="880" on="1"/>
        <pt x="544" y="760" on="1"/>
        <pt x="434" y="760" on="1"/>
        <pt x="455" y="880" on="1"/>
      </contour>
    </TTGlyph>
    <TTGlyph name="Ograve" xMin="88" yMin="-10" xMax="584" yMax="890">
      <contour>
        <pt x="285" y="60" on="1"/>
        <pt x="306" y="60" on="0"/>
        <pt x="350" y="86" on="0"/>
        <pt x="392" y="152" on="0"/>
        <pt x="431" y="264" on="0"/>
        <pt x="446" y="350" on="1"/>
        <pt x="461" y="436" on="0"/>
        <pt x="462" y="548" on="0"/>
        <pt x="443" y="614" on="0"/>
        <pt x="408" y="640" on="0"/>
        <pt x="387" y="640" on="1"/>
        <pt x="366" y="640" on="0"/>
        <pt x="322" y="614" on="0"/>
        <pt x="280" y="548" on="0"/>
        <pt x="241" y="436" on="0"/>
        <pt x="226" y="350" on="1"/>
        <pt x="211" y="264" on="0"/>
        <pt x="210" y="152" on="0"/>
        <pt x="230" y="86" on="0"/>
        <pt x="264" y="60" on="0"/>
      </contour>
      <contour>
        <pt x="400" y="710" on="1"/>
        <pt x="452" y="710" on="0"/>
        <pt x="531" y="673" on="0"/>
        <pt x="576" y="589" on="0"/>
        <pt x="584" y="451" on="0"/>
        <pt x="566" y="350" on="1"/>
        <pt x="548" y="249" on="0"/>
        <pt x="492" y="111" on="0"/>
        <pt x="417" y="27" on="0"/>
        <pt x="325" y="-10" on="0"/>
        <pt x="273" y="-10" on="1"/>
        <pt x="220" y="-10" on="0"/>
        <pt x="142" y="27" on="0"/>
        <pt x="97" y="111" on="0"/>
        <pt x="88" y="249" on="0"/>
        <pt x="106" y="350" on="1"/>
        <pt x="124" y="451" on="0"/>
        <pt x="181" y="589" on="0"/>
        <pt x="256" y="673" on="0"/>
        <pt x="347" y="710" on="0"/>
      </contour>
      <contour>
        <pt x="374" y="760" on="1"/>
        <pt x="321" y="890" on="1"/>
        <pt x="436" y="890" on="1"/>
        <pt x="449" y="760" on="1"/>
      </contour>
    </TTGlyph>
    <TTGlyph name="Omacron" xMin="88" yMin="-10" xMax="584" yMax="830">
      <contour>
        <pt x="285" y="60" on="1"/>
        <pt x="306" y="60" on="0"/>
        <pt x="350" y="86" on="0"/>
        <pt x="392" y="152" on="0"/>
        <pt x="431" y="264" on="0"/>
        <pt x="446" y="350" on="1"/>
        <pt x="461" y="436" on="0"/>
        <pt x="462" y="548" on="0"/>
        <pt x="443" y="614" on="0"/>
        <pt x="408" y="640" on="0"/>
        <pt x="387" y="640" on="1"/>
        <pt x="366" y="640" on="0"/>
        <pt x="322" y="614" on="0"/>
        <pt x="280" y="548" on="0"/>
        <pt x="241" y="436" on="0"/>
        <pt x="226" y="350" on="1"/>
        <pt x="211" y="264" on="0"/>
        <pt x="210" y="152" on="0"/>
        <pt x="230" y="86" on="0"/>
        <pt x="264" y="60" on="0"/>
      </contour>
      <contour>
        <pt x="400" y="710" on="1"/>
        <pt x="452" y="710" on="0"/>
        <pt x="531" y="673" on="0"/>
        <pt x="576" y="589" on="0"/>
        <pt x="584" y="451" on="0"/>
        <pt x="566" y="350" on="1"/>
        <pt x="548" y="249" on="0"/>
        <pt x="492" y="111" on="0"/>
        <pt x="417" y="27" on="0"/>
        <pt x="325" y="-10" on="0"/>
        <pt x="273" y="-10" on="1"/>
        <pt x="220" y="-10" on="0"/>
        <pt x="142" y="27" on="0"/>
        <pt x="97" y="111" on="0"/>
        <pt x="88" y="249" on="0"/>
        <pt x="106" y="350" on="1"/>
        <pt x="124" y="451" on="0"/>
        <pt x="181" y="589" on="0"/>
        <pt x="256" y="673" on="0"/>
        <pt x="347" y="710" on="0"/>
      </contour>
      <contour>
        <pt x="301" y="830" on="1"/>
        <pt x="541" y="830" on="1"/>
        <pt x="529" y="760" on="1"/>
        <pt x="289" y="760" on="1"/>
      </contour>
    </TTGlyph>
    <TTGlyph name="Oslash" xMin="33" yMin="-10" xMax="639" yMax="710">
      <contour>
        <pt x="100" y="125" on="1"/>
        <pt x="91" y="167" on="0"/>
        <pt x="93" y="277" on="0"/>
        <pt x="106" y="350" on="1"/>
        <pt x="124" y="451" on="0"/>
        <pt x="181" y="589" on="0"/>
        <pt x="256" y="673" on="0"/>
        <pt x="347" y="710" on="0"/>
        <pt x="400" y="710" on="1"/>
        <pt x="451" y="710" on="0"/>
        <pt x="527" y="676" on="0"/>
        <pt x="550" y="637" on="1"/>
        <pt x="596" y="690" on="1"/>
        <pt x="639" y="650" on="1"/>
        <pt x="573" y="575" on="1"/>
        <pt x="581" y="533" on="0"/>
        <pt x="579" y="423" on="0"/>
        <pt x="566" y="350" on="1"/>
        <pt x="548" y="249" on="0"/>
        <pt x="492" y="111" on="0"/>
        <pt x="417" y="27" on="0"/>
        <pt x="325" y="-10" on="0"/>
        <pt x="273" y="-10" on="1"/>
        <pt x="222" y="-10" on="0"/>
        <pt x="145" y="24" on="0"/>
        <pt x="122" y="62" on="1"/>
        <pt x="76" y="10" on="1"/>
        <pt x="33" y="50" on="1"/>
      </contour>
      <contour>
        <pt x="226" y="350" on="1"/>
        <pt x="221" y="323" on="0"/>
        <pt x="215" y="275" on="0"/>
        <pt x="213" y="254" on="1"/>
        <pt x="460" y="535" on="1"/>
        <pt x="455" y="595" on="0"/>
        <pt x="413" y="640" on="0"/>
        <pt x="387" y="640" on="1"/>
        <pt x="366" y="640" on="0"/>
        <pt x="322" y="614" on="0"/>
        <pt x="280" y="548" on="0"/>
        <pt x="241" y="436" on="0"/>
      </contour>
      <contour>
        <pt x="285" y="60" on="1"/>
        <pt x="306" y="60" on="0"/>
        <pt x="350" y="86" on="0"/>
        <pt x="392" y="152" on="0"/>
        <pt x="431" y="264" on="0"/>
        <pt x="446" y="350" on="1"/>
        <pt x="451" y="377" on="0"/>
        <pt x="457" y="424" on="0"/>
        <pt x="459" y="445" on="1"/>
        <pt x="211" y="164" on="1"/>
        <pt x="216" y="105" on="0"/>
        <pt x="258" y="60" on="0"/>
      </contour>
    </TTGlyph>
    <TTGlyph name="Otilde" xMin="88" yMin="-10" xMax="584" yMax="885">
      <contour>
        <pt x="285" y="60" on="1"/>
        <pt x="306" y="60" on="0"/>
        <pt x="350" y="86" on="0"/>
        <pt x="392" y="152" on="0"/>
        <pt x="431" y="264" on="0"/>
        <pt x="446" y="350" on="1"/>
        <pt x="461" y="436" on="0"/>
        <pt x="462" y="548" on="0"/>
        <pt x="443" y="614" on="0"/>
        <pt x="408" y="640" on="0"/>
        <pt x="387" y="640" on="1"/>
        <pt x="366" y="640" on="0"/>
        <pt x="322" y="614" on="0"/>
        <pt x="280" y="548" on="0"/>
        <pt x="241" y="436" on="0"/>
        <pt x="226" y="350" on="1"/>
        <pt x="211" y="264" on="0"/>
        <pt x="210" y="152" on="0"/>
        <pt x="230" y="86" on="0"/>
        <pt x="264" y="60" on="0"/>
      </contour>
      <contour>
        <pt x="400" y="710" on="1"/>
        <pt x="452" y="710" on="0"/>
        <pt x="531" y="673" on="0"/>
        <pt x="576" y="589" on="0"/>
        <pt x="584" y="451" on="0"/>
        <pt x="566" y="350" on="1"/>
        <pt x="548" y="249" on="0"/>
        <pt x="492" y="111" on="0"/>
        <pt x="417" y="27" on="0"/>
        <pt x="325" y="-10" on="0"/>
        <pt x="273" y="-10" on="1"/>
        <pt x="220" y="-10" on="0"/>
        <pt x="142" y="27" on="0"/>
        <pt x="97" y="111" on="0"/>
        <pt x="88" y="249" on="0"/>
        <pt x="106" y="350" on="1"/>
        <pt x="124" y="451" on="0"/>
        <pt x="181" y="589" on="0"/>
        <pt x="256" y="673" on="0"/>
        <pt x="347" y="710" on="0"/>
      </contour>
      <contour>
        <pt x="469" y="765" on="1"/>
        <pt x="473" y="784" on="0"/>
        <pt x="462" y="805" on="0"/>
        <pt x="451" y="805" on="1"/>
        <pt x="442" y="805" on="0"/>
        <pt x="421" y="789" on="0"/>
        <pt x="398" y="771" on="0"/>
        <pt x="370" y="755" on="0"/>
        <pt x="353" y="755" on="1"/>
        <pt x="336" y="755" on="0"/>
        <pt x="311" y="767" on="0"/>
        <pt x="296" y="795" on="0"/>
        <pt x="293" y="841" on="0"/>
        <pt x="299" y="875" on="1"/>
        <pt x="359" y="875" on="1"/>
        <pt x="355" y="856" on="0"/>
        <pt x="366" y="835" on="0"/>
        <pt x="377" y="835" on="1"/>
        <pt x="386" y="835" on="0"/>
        <pt x="407" y="851" on="0"/>
        <pt x="431" y="869" on="0"/>
        <pt x="459" y="885" on="0"/>
        <pt x="476" y="885" on="1"/>
        <pt x="510" y="885" on="0"/>
        <pt x="541" y="832" on="0"/>
        <pt x="529" y="765" on="1"/>
      </contour>
    </TTGlyph>
    <TTGlyph name="P" xMin="70" yMin="0" xMax="573" yMax="710">
      <contour>
        <pt x="294" y="280" on="1"/>
        <pt x="322" y="280" on="0"/>
        <pt x="368" y="297" on="0"/>
        <pt x="404" y="338" on="0"/>
        <pt x="432" y="407" on="0"/>
        <pt x="441" y="460" on="1"/>
        <pt x="450" y="511" on="0"/>
        <pt x="446" y="578" on="0"/>
        <pt x="424" y="618" on="0"/>
        <pt x="384" y="635" on="0"/>
        <pt x="356" y="635" on="1"/>
        <pt x="301" y="635" on="1"/>
        <pt x="239" y="280" on="1"/>
      </contour>
      <contour>
        <pt x="190" y="0" on="1"/>
        <pt x="70" y="0" on="1"/>
        <pt x="191" y="690" on="1"/>
        <pt x="231" y="701" on="0"/>
        <pt x="313" y="710" on="0"/>
        <pt x="370" y="710" on="1"/>
        <pt x="432" y="710" on="0"/>
        <pt x="516" y="682" on="0"/>
        <pt x="562" y="622" on="0"/>
        <pt x="573" y="527" on="0"/>
        <pt x="561" y="460" on="1"/>
        <pt x="548" y="389" on="0"/>
        <pt x="505" y="290" on="0"/>
        <pt x="442" y="228" on="0"/>
        <pt x="361" y="200" on="0"/>
        <pt x="310" y="200" on="1"/>
        <pt x="304" y="200" on="0"/>
        <pt x="284" y="202" on="0"/>
        <pt x="260" y="205" on="0"/>
        <pt x="236" y="208" on="0"/>
        <pt x="227" y="210" on="1"/>
      </contour>
    </TTGlyph>
    <TTGlyph name="Q" xMin="88" yMin="-10" xMax="584" yMax="710">
      <contour>
        <pt x="400" y="710" on="1"/>
        <pt x="452" y="710" on="0"/>
        <pt x="531" y="673" on="0"/>
        <pt x="576" y="589" on="0"/>
        <pt x="584" y="451" on="0"/>
        <pt x="566" y="350" on="1"/>
        <pt x="546" y="237" on="0"/>
        <pt x="477" y="98" on="0"/>
        <pt x="440" y="60" on="1"/>
        <pt x="485" y="60" on="0"/>
        <pt x="535" y="48" on="0"/>
        <pt x="557" y="40" on="1"/>
        <pt x="548" y="-10" on="1"/>
        <pt x="273" y="-10" on="1"/>
        <pt x="220" y="-10" on="0"/>
        <pt x="142" y="27" on="0"/>
        <pt x="97" y="111" on="0"/>
        <pt x="88" y="249" on="0"/>
        <pt x="106" y="350" on="1"/>
        <pt x="124" y="451" on="0"/>
        <pt x="181" y="589" on="0"/>
        <pt x="256" y="673" on="0"/>
        <pt x="347" y="710" on="0"/>
      </contour>
      <contour>
        <pt x="285" y="60" on="1"/>
        <pt x="306" y="60" on="0"/>
        <pt x="350" y="86" on="0"/>
        <pt x="392" y="152" on="0"/>
        <pt x="431" y="264" on="0"/>
        <pt x="446" y="350" on="1"/>
        <pt x="461" y="436" on="0"/>
        <pt x="462" y="548" on="0"/>
        <pt x="443" y="614" on="0"/>
        <pt x="408" y="640" on="0"/>
        <pt x="387" y="640" on="1"/>
        <pt x="366" y="640" on="0"/>
        <pt x="322" y="614" on="0"/>
        <pt x="280" y="548" on="0"/>
        <pt x="241" y="436" on="0"/>
        <pt x="226" y="350" on="1"/>
        <pt x="210" y="260" on="0"/>
        <pt x="211" y="147" on="0"/>
        <pt x="231" y="83" on="0"/>
        <pt x="266" y="60" on="0"/>
      </contour>
    </TTGlyph>
    <TTGlyph name="R" xMin="70" yMin="0" xMax="584" yMax="710">
      <contour>
        <pt x="562" y="470" on="1"/>
        <pt x="553" y="419" on="0"/>
        <pt x="525" y="346" on="0"/>
        <pt x="487" y="295" on="0"/>
        <pt x="440" y="261" on="0"/>
        <pt x="414" y="250" on="1"/>
        <pt x="505" y="0" on="1"/>
        <pt x="370" y="0" on="1"/>
        <pt x="294" y="225" on="1"/>
        <pt x="229" y="225" on="1"/>
        <pt x="190" y="0" on="1"/>
        <pt x="70" y="0" on="1"/>
        <pt x="191" y="690" on="1"/>
        <pt x="231" y="701" on="0"/>
        <pt x="313" y="710" on="0"/>
        <pt x="370" y="710" on="1"/>
        <pt x="494" y="710" on="0"/>
        <pt x="584" y="597" on="0"/>
      </contour>
      <contour>
        <pt x="298" y="305" on="1"/>
        <pt x="326" y="305" on="0"/>
        <pt x="372" y="321" on="0"/>
        <pt x="408" y="360" on="0"/>
        <pt x="434" y="423" on="0"/>
        <pt x="442" y="470" on="1"/>
        <pt x="450" y="517" on="0"/>
        <pt x="447" y="580" on="0"/>
        <pt x="424" y="619" on="0"/>
        <pt x="384" y="635" on="0"/>
        <pt x="356" y="635" on="1"/>
        <pt x="301" y="635" on="1"/>
        <pt x="243" y="305" on="1"/>
      </contour>
    </TTGlyph>
    <TTGlyph name="Racute" xMin="70" yMin="0" xMax="584" yMax="880">
      <contour>
        <pt x="562" y="470" on="1"/>
        <pt x="553" y="419" on="0"/>
        <pt x="525" y="346" on="0"/>
        <pt x="487" y="295" on="0"/>
        <pt x="440" y="261" on="0"/>
        <pt x="414" y="250" on="1"/>
        <pt x="505" y="0" on="1"/>
        <pt x="370" y="0" on="1"/>
        <pt x="294" y="225" on="1"/>
        <pt x="229" y="225" on="1"/>
        <pt x="190" y="0" on="1"/>
        <pt x="70" y="0" on="1"/>
        <pt x="191" y="690" on="1"/>
        <pt x="231" y="701" on="0"/>
        <pt x="313" y="710" on="0"/>
        <pt x="370" y="710" on="1"/>
        <pt x="494" y="710" on="0"/>
        <pt x="584" y="597" on="0"/>
      </contour>
      <contour>
        <pt x="298" y="305" on="1"/>
        <pt x="326" y="305" on="0"/>
        <pt x="372" y="321" on="0"/>
        <pt x="408" y="360" on="0"/>
        <pt x="434" y="423" on="0"/>
        <pt x="442" y="470" on="1"/>
        <pt x="450" y="517" on="0"/>
        <pt x="447" y="580" on="0"/>
        <pt x="424" y="619" on="0"/>
        <pt x="384" y="635" on="0"/>
        <pt x="356" y="635" on="1"/>
        <pt x="301" y="635" on="1"/>
        <pt x="243" y="305" on="1"/>
      </contour>
      <contour>
        <pt x="337" y="750" on="1"/>
        <pt x="395" y="880" on="1"/>
        <pt x="510" y="880" on="1"/>
        <pt x="412" y="750" on="1"/>
      </contour>
    </TTGlyph>
    <TTGlyph name="Rcaron" xMin="70" yMin="0" xMax="584" yMax="880">
      <contour>
        <pt x="562" y="470" on="1"/>
        <pt x="553" y="419" on="0"/>
        <pt x="525" y="346" on="0"/>
        <pt x="487" y="295" on="0"/>
        <pt x="440" y="261" on="0"/>
        <pt x="414" y="250" on="1"/>
        <pt x="505" y="0" on="1"/>
        <pt x="370" y="0" on="1"/>
        <pt x="294" y="225" on="1"/>
        <pt x="229" y="225" on="1"/>
        <pt x="190" y="0" on="1"/>
        <pt x="70" y="0" on="1"/>
        <pt x="191" y="690" on="1"/>
        <pt x="231" y="701" on="0"/>
        <pt x="313" y="710" on="0"/>
        <pt x="370" y="710" on="1"/>
        <pt x="494" y="710" on="0"/>
        <pt x="584" y="597" on="0"/>
      </contour>
      <contour>
        <pt x="298" y="305" on="1"/>
        <pt x="326" y="305" on="0"/>
        <pt x="372" y="321" on="0"/>
        <pt x="408" y="360" on="0"/>
        <pt x="434" y="423" on="0"/>
        <pt x="442" y="470" on="1"/>
        <pt x="450" y="517" on="0"/>
        <pt x="447" y="580" on="0"/>
        <pt x="424" y="619" on="0"/>
        <pt x="384" y="635" on="0"/>
        <pt x="356" y="635" on="1"/>
        <pt x="301" y="635" on="1"/>
        <pt x="243" y="305" on="1"/>
      </contour>
      <contour>
        <pt x="344" y="880" on="1"/>
        <pt x="387" y="810" on="1"/>
        <pt x="456" y="880" on="1"/>
        <pt x="533" y="880" on="1"/>
        <pt x="430" y="750" on="1"/>
        <pt x="325" y="750" on="1"/>
        <pt x="268" y="880" on="1"/>
      </contour>
    </TTGlyph>
    <TTGlyph name="Rcommaaccent" xMin="70" yMin="-200" xMax="584" yMax="710">
      <contour>
        <pt x="562" y="470" on="1"/>
        <pt x="553" y="419" on="0"/>
        <pt x="525" y="346" on="0"/>
        <pt x="487" y="295" on="0"/>
        <pt x="440" y="261" on="0"/>
        <pt x="414" y="250" on="1"/>
        <pt x="505" y="0" on="1"/>
        <pt x="370" y="0" on="1"/>
        <pt x="294" y="225" on="1"/>
        <pt x="229" y="225" on="1"/>
        <pt x="190" y="0" on="1"/>
        <pt x="70" y="0" on="1"/>
        <pt x="191" y="690" on="1"/>
        <pt x="231" y="701" on="0"/>
        <pt x="313" y="710" on="0"/>
        <pt x="370" y="710" on="1"/>
        <pt x="494" y="710" on="0"/>
        <pt x="584" y="597" on="0"/>
      </contour>
      <contour>
        <pt x="298" y="305" on="1"/>
        <pt x="326" y="305" on="0"/>
        <pt x="372" y="321" on="0"/>
        <pt x="408" y="360" on="0"/>
        <pt x="434" y="423" on="0"/>
        <pt x="442" y="470" on="1"/>
        <pt x="450" y="517" on="0"/>
        <pt x="447" y="580" on="0"/>
        <pt x="424" y="619" on="0"/>
        <pt x="384" y="635" on="0"/>
        <pt x="356" y="635" on="1"/>
        <pt x="301" y="635" on="1"/>
        <pt x="243" y="305" on="1"/>
      </contour>
      <contour>
        <pt x="216" y="-50" on="1"/>
        <pt x="326" y="-50" on="1"/>
        <pt x="264" y="-200" on="1"/>
        <pt x="189" y="-200" on="1"/>
      </contour>
    </TTGlyph>
    <TTGlyph name="S" xMin="36" yMin="-10" xMax="516" yMax="710">
      <contour>
        <pt x="123" y="530" on="1"/>
        <pt x="137" y="613" on="0"/>
        <pt x="258" y="710" on="0"/>
        <pt x="360" y="710" on="1"/>
        <pt x="413" y="710" on="0"/>
        <pt x="495" y="698" on="0"/>
        <pt x="516" y="690" on="1"/>
        <pt x="506" y="635" on="1"/>
        <pt x="366" y="635" on="1"/>
        <pt x="317" y="635" on="0"/>
        <pt x="251" y="579" on="0"/>
        <pt x="243" y="530" on="1"/>
        <pt x="235" y="486" on="0"/>
        <pt x="268" y="434" on="0"/>
        <pt x="325" y="397" on="0"/>
        <pt x="393" y="365" on="0"/>
        <pt x="448" y="316" on="0"/>
        <pt x="477" y="241" on="0"/>
        <pt x="466" y="180" on="1"/>
        <pt x="450" y="90" on="0"/>
        <pt x="320" y="-10" on="0"/>
        <pt x="193" y="-10" on="1"/>
        <pt x="140" y="-10" on="0"/>
        <pt x="58" y="2" on="0"/>
        <pt x="36" y="10" on="1"/>
        <pt x="46" y="65" on="1"/>
        <pt x="186" y="65" on="1"/>
        <pt x="261" y="65" on="0"/>
        <pt x="336" y="123" on="0"/>
        <pt x="346" y="180" on="1"/>
        <pt x="351" y="211" on="0"/>
        <pt x="334" y="253" on="0"/>
        <pt x="300" y="284" on="0"/>
        <pt x="253" y="308" on="0"/>
        <pt x="204" y="334" on="0"/>
        <pt x="159" y="367" on="0"/>
        <pt x="127" y="415" on="0"/>
        <pt x="115" y="482" on="0"/>
      </contour>
    </TTGlyph>
    <TTGlyph name="Sacute" xMin="36" yMin="-10" xMax="516" yMax="890">
      <contour>
        <pt x="123" y="530" on="1"/>
        <pt x="137" y="613" on="0"/>
        <pt x="258" y="710" on="0"/>
        <pt x="360" y="710" on="1"/>
        <pt x="413" y="710" on="0"/>
        <pt x="495" y="698" on="0"/>
        <pt x="516" y="690" on="1"/>
        <pt x="506" y="635" on="1"/>
        <pt x="366" y="635" on="1"/>
        <pt x="317" y="635" on="0"/>
        <pt x="251" y="579" on="0"/>
        <pt x="243" y="530" on="1"/>
        <pt x="235" y="486" on="0"/>
        <pt x="268" y="434" on="0"/>
        <pt x="325" y="397" on="0"/>
        <pt x="393" y="365" on="0"/>
        <pt x="448" y="316" on="0"/>
        <pt x="477" y="241" on="0"/>
        <pt x="466" y="180" on="1"/>
        <pt x="450" y="90" on="0"/>
        <pt x="320" y="-10" on="0"/>
        <pt x="193" y="-10" on="1"/>
        <pt x="140" y="-10" on="0"/>
        <pt x="58" y="2" on="0"/>
        <pt x="36" y="10" on="1"/>
        <pt x="46" y="65" on="1"/>
        <pt x="186" y="65" on="1"/>
        <pt x="261" y="65" on="0"/>
        <pt x="336" y="123" on="0"/>
        <pt x="346" y="180" on="1"/>
        <pt x="351" y="211" on="0"/>
        <pt x="334" y="253" on="0"/>
        <pt x="300" y="284" on="0"/>
        <pt x="253" y="308" on="0"/>
        <pt x="204" y="334" on="0"/>
        <pt x="159" y="367" on="0"/>
        <pt x="127" y="415" on="0"/>
        <pt x="115" y="482" on="0"/>
      </contour>
      <contour>
        <pt x="324" y="760" on="1"/>
        <pt x="381" y="890" on="1"/>
        <pt x="496" y="890" on="1"/>
        <pt x="399" y="760" on="1"/>
      </contour>
    </TTGlyph>
    <TTGlyph name="Scaron" xMin="36" yMin="-10" xMax="516" yMax="890">
      <contour>
        <pt x="123" y="530" on="1"/>
        <pt x="137" y="613" on="0"/>
        <pt x="258" y="710" on="0"/>
        <pt x="360" y="710" on="1"/>
        <pt x="413" y="710" on="0"/>
        <pt x="495" y="698" on="0"/>
        <pt x="516" y="690" on="1"/>
        <pt x="506" y="635" on="1"/>
        <pt x="366" y="635" on="1"/>
        <pt x="317" y="635" on="0"/>
        <pt x="251" y="579" on="0"/>
        <pt x="243" y="530" on="1"/>
        <pt x="235" y="486" on="0"/>
        <pt x="268" y="434" on="0"/>
        <pt x="325" y="397" on="0"/>
        <pt x="393" y="365" on="0"/>
        <pt x="448" y="316" on="0"/>
        <pt x="477" y="241" on="0"/>
        <pt x="466" y="180" on="1"/>
        <pt x="450" y="90" on="0"/>
        <pt x="320" y="-10" on="0"/>
        <pt x="193" y="-10" on="1"/>
        <pt x="140" y="-10" on="0"/>
        <pt x="58" y="2" on="0"/>
        <pt x="36" y="10" on="1"/>
        <pt x="46" y="65" on="1"/>
        <pt x="186" y="65" on="1"/>
        <pt x="261" y="65" on="0"/>
        <pt x="336" y="123" on="0"/>
        <pt x="346" y="180" on="1"/>
        <pt x="351" y="211" on="0"/>
        <pt x="334" y="253" on="0"/>
        <pt x="300" y="284" on="0"/>
        <pt x="253" y="308" on="0"/>
        <pt x="204" y="334" on="0"/>
        <pt x="159" y="367" on="0"/>
        <pt x="127" y="415" on="0"/>
        <pt x="115" y="482" on="0"/>
      </contour>
      <contour>
        <pt x="325" y="890" on="1"/>
        <pt x="369" y="820" on="1"/>
        <pt x="437" y="890" on="1"/>
        <pt x="514" y="890" on="1"/>
        <pt x="412" y="760" on="1"/>
        <pt x="307" y="760" on="1"/>
        <pt x="249" y="890" on="1"/>
      </contour>
    </TTGlyph>
    <TTGlyph name="Scedilla" xMin="36" yMin="-170" xMax="516" yMax="710">
      <contour>
        <pt x="249" y="-30" on="1"/>
        <pt x="294" y="-30" on="0"/>
        <pt x="332" y="-70" on="0"/>
        <pt x="327" y="-100" on="1"/>
        <pt x="322" y="-130" on="0"/>
        <pt x="264" y="-170" on="0"/>
        <pt x="215" y="-170" on="1"/>
        <pt x="196" y="-170" on="0"/>
        <pt x="169" y="-166" on="0"/>
        <pt x="160" y="-163" on="1"/>
        <pt x="149" y="-159" on="0"/>
        <pt x="142" y="-155" on="1"/>
        <pt x="148" y="-121" on="1"/>
        <pt x="213" y="-121" on="1"/>
        <pt x="236" y="-121" on="0"/>
        <pt x="250" y="-108" on="0"/>
        <pt x="252" y="-100" on="1"/>
        <pt x="254" y="-92" on="0"/>
        <pt x="245" y="-79" on="0"/>
        <pt x="226" y="-79" on="1"/>
        <pt x="171" y="-79" on="1"/>
        <pt x="183" y="-10" on="1"/>
        <pt x="133" y="-9" on="0"/>
        <pt x="56" y="2" on="0"/>
        <pt x="36" y="10" on="1"/>
        <pt x="46" y="65" on="1"/>
        <pt x="186" y="65" on="1"/>
        <pt x="261" y="65" on="0"/>
        <pt x="336" y="123" on="0"/>
        <pt x="346" y="180" on="1"/>
        <pt x="351" y="211" on="0"/>
        <pt x="334" y="253" on="0"/>
        <pt x="300" y="284" on="0"/>
        <pt x="253" y="308" on="0"/>
        <pt x="204" y="334" on="0"/>
        <pt x="159" y="367" on="0"/>
        <pt x="127" y="415" on="0"/>
        <pt x="115" y="482" on="0"/>
        <pt x="123" y="530" on="1"/>
        <pt x="137" y="613" on="0"/>
        <pt x="258" y="710" on="0"/>
        <pt x="360" y="710" on="1"/>
        <pt x="413" y="710" on="0"/>
        <pt x="495" y="698" on="0"/>
        <pt x="516" y="690" on="1"/>
        <pt x="506" y="635" on="1"/>
        <pt x="366" y="635" on="1"/>
        <pt x="317" y="635" on="0"/>
        <pt x="251" y="579" on="0"/>
        <pt x="243" y="530" on="1"/>
        <pt x="235" y="486" on="0"/>
        <pt x="268" y="434" on="0"/>
        <pt x="325" y="397" on="0"/>
        <pt x="393" y="365" on="0"/>
        <pt x="448" y="316" on="0"/>
        <pt x="477" y="241" on="0"/>
        <pt x="466" y="180" on="1"/>
        <pt x="452" y="98" on="0"/>
        <pt x="343" y="0" on="0"/>
        <pt x="238" y="-8" on="1"/>
        <pt x="234" y="-30" on="1"/>
      </contour>
    </TTGlyph>
    <TTGlyph name="T" xMin="119" yMin="0" xMax="563" yMax="700">
      <contour>
        <pt x="133" y="700" on="1"/>
        <pt x="563" y="700" on="1"/>
        <pt x="549" y="620" on="1"/>
        <pt x="394" y="620" on="1"/>
        <pt x="285" y="0" on="1"/>
        <pt x="165" y="0" on="1"/>
        <pt x="274" y="620" on="1"/>
        <pt x="119" y="620" on="1"/>
      </contour>
    </TTGlyph>
    <TTGlyph name="Thorn" xMin="68" yMin="-10" xMax="563" yMax="710">
      <contour>
        <pt x="301" y="635" on="1"/>
        <pt x="379" y="631" on="0"/>
        <pt x="486" y="590" on="0"/>
        <pt x="546" y="518" on="0"/>
        <pt x="563" y="416" on="0"/>
        <pt x="551" y="350" on="1"/>
        <pt x="528" y="219" on="0"/>
        <pt x="360" y="72" on="0"/>
        <pt x="201" y="65" on="1"/>
        <pt x="188" y="-10" on="1"/>
        <pt x="68" y="-10" on="1"/>
        <pt x="195" y="710" on="1"/>
        <pt x="315" y="710" on="1"/>
      </contour>
      <contour>
        <pt x="214" y="140" on="1"/>
        <pt x="298" y="144" on="0"/>
        <pt x="414" y="252" on="0"/>
        <pt x="431" y="350" on="1"/>
        <pt x="448" y="448" on="0"/>
        <pt x="370" y="556" on="0"/>
        <pt x="288" y="560" on="1"/>
      </contour>
    </TTGlyph>
    <TTGlyph name="U" xMin="78" yMin="-10" xMax="613" yMax="700">
      <contour>
        <pt x="285" y="60" on="1"/>
        <pt x="306" y="60" on="0"/>
        <pt x="343" y="77" on="0"/>
        <pt x="376" y="118" on="0"/>
        <pt x="403" y="187" on="0"/>
        <pt x="412" y="240" on="1"/>
        <pt x="493" y="700" on="1"/>
        <pt x="613" y="700" on="1"/>
        <pt x="532" y="240" on="1"/>
        <pt x="508" y="105" on="0"/>
        <pt x="382" y="-10" on="0"/>
        <pt x="273" y="-10" on="1"/>
        <pt x="164" y="-10" on="0"/>
        <pt x="78" y="105" on="0"/>
        <pt x="102" y="240" on="1"/>
        <pt x="183" y="700" on="1"/>
        <pt x="303" y="700" on="1"/>
        <pt x="222" y="240" on="1"/>
        <pt x="213" y="187" on="0"/>
        <pt x="214" y="118" on="0"/>
        <pt x="232" y="77" on="0"/>
        <pt x="264" y="60" on="0"/>
      </contour>
    </TTGlyph>
    <TTGlyph name="Uacute" xMin="78" yMin="-10" xMax="613" yMax="870">
      <contour>
        <pt x="285" y="60" on="1"/>
        <pt x="306" y="60" on="0"/>
        <pt x="343" y="77" on="0"/>
        <pt x="376" y="118" on="0"/>
        <pt x="403" y="187" on="0"/>
        <pt x="412" y="240" on="1"/>
        <pt x="493" y="700" on="1"/>
        <pt x="613" y="700" on="1"/>
        <pt x="532" y="240" on="1"/>
        <pt x="508" y="105" on="0"/>
        <pt x="382" y="-10" on="0"/>
        <pt x="273" y="-10" on="1"/>
        <pt x="164" y="-10" on="0"/>
        <pt x="78" y="105" on="0"/>
        <pt x="102" y="240" on="1"/>
        <pt x="183" y="700" on="1"/>
        <pt x="303" y="700" on="1"/>
        <pt x="222" y="240" on="1"/>
        <pt x="213" y="187" on="0"/>
        <pt x="214" y="118" on="0"/>
        <pt x="232" y="77" on="0"/>
        <pt x="264" y="60" on="0"/>
      </contour>
      <contour>
        <pt x="360" y="740" on="1"/>
        <pt x="418" y="870" on="1"/>
        <pt x="533" y="870" on="1"/>
        <pt x="435" y="740" on="1"/>
      </contour>
    </TTGlyph>
    <TTGlyph name="Ucircumflex" xMin="78" yMin="-10" xMax="613" yMax="870">
      <contour>
        <pt x="285" y="60" on="1"/>
        <pt x="306" y="60" on="0"/>
        <pt x="343" y="77" on="0"/>
        <pt x="376" y="118" on="0"/>
        <pt x="403" y="187" on="0"/>
        <pt x="412" y="240" on="1"/>
        <pt x="493" y="700" on="1"/>
        <pt x="613" y="700" on="1"/>
        <pt x="532" y="240" on="1"/>
        <pt x="508" y="105" on="0"/>
        <pt x="382" y="-10" on="0"/>
        <pt x="273" y="-10" on="1"/>
        <pt x="164" y="-10" on="0"/>
        <pt x="78" y="105" on="0"/>
        <pt x="102" y="240" on="1"/>
        <pt x="183" y="700" on="1"/>
        <pt x="303" y="700" on="1"/>
        <pt x="222" y="240" on="1"/>
        <pt x="213" y="187" on="0"/>
        <pt x="214" y="118" on="0"/>
        <pt x="232" y="77" on="0"/>
        <pt x="264" y="60" on="0"/>
      </contour>
      <contour>
        <pt x="273" y="740" on="1"/>
        <pt x="376" y="870" on="1"/>
        <pt x="481" y="870" on="1"/>
        <pt x="538" y="740" on="1"/>
        <pt x="461" y="740" on="1"/>
        <pt x="417" y="810" on="1"/>
        <pt x="349" y="740" on="1"/>
      </contour>
    </TTGlyph>
    <TTGlyph name="Udieresis" xMin="78" yMin="-10" xMax="613" yMax="860">
      <contour>
        <pt x="285" y="60" on="1"/>
        <pt x="306" y="60" on="0"/>
        <pt x="343" y="77" on="0"/>
        <pt x="376" y="118" on="0"/>
        <pt x="403" y="187" on="0"/>
        <pt x="412" y="240" on="1"/>
        <pt x="493" y="700" on="1"/>
        <pt x="613" y="700" on="1"/>
        <pt x="532" y="240" on="1"/>
        <pt x="508" y="105" on="0"/>
        <pt x="382" y="-10" on="0"/>
        <pt x="273" y="-10" on="1"/>
        <pt x="164" y="-10" on="0"/>
        <pt x="78" y="105" on="0"/>
        <pt x="102" y="240" on="1"/>
        <pt x="183" y="700" on="1"/>
        <pt x="303" y="700" on="1"/>
        <pt x="222" y="240" on="1"/>
        <pt x="213" y="187" on="0"/>
        <pt x="214" y="118" on="0"/>
        <pt x="232" y="77" on="0"/>
        <pt x="264" y="60" on="0"/>
      </contour>
      <contour>
        <pt x="401" y="860" on="1"/>
        <pt x="380" y="740" on="1"/>
        <pt x="270" y="740" on="1"/>
        <pt x="291" y="860" on="1"/>
      </contour>
      <contour>
        <pt x="561" y="860" on="1"/>
        <pt x="540" y="740" on="1"/>
        <pt x="430" y="740" on="1"/>
        <pt x="451" y="860" on="1"/>
      </contour>
    </TTGlyph>
    <TTGlyph name="Ugrave" xMin="78" yMin="-10" xMax="613" yMax="870">
      <contour>
        <pt x="285" y="60" on="1"/>
        <pt x="306" y="60" on="0"/>
        <pt x="343" y="77" on="0"/>
        <pt x="376" y="118" on="0"/>
        <pt x="403" y="187" on="0"/>
        <pt x="412" y="240" on="1"/>
        <pt x="493" y="700" on="1"/>
        <pt x="613" y="700" on="1"/>
        <pt x="532" y="240" on="1"/>
        <pt x="508" y="105" on="0"/>
        <pt x="382" y="-10" on="0"/>
        <pt x="273" y="-10" on="1"/>
        <pt x="164" y="-10" on="0"/>
        <pt x="78" y="105" on="0"/>
        <pt x="102" y="240" on="1"/>
        <pt x="183" y="700" on="1"/>
        <pt x="303" y="700" on="1"/>
        <pt x="222" y="240" on="1"/>
        <pt x="213" y="187" on="0"/>
        <pt x="214" y="118" on="0"/>
        <pt x="232" y="77" on="0"/>
        <pt x="264" y="60" on="0"/>
      </contour>
      <contour>
        <pt x="375" y="740" on="1"/>
        <pt x="323" y="870" on="1"/>
        <pt x="438" y="870" on="1"/>
        <pt x="450" y="740" on="1"/>
      </contour>
    </TTGlyph>
    <TTGlyph name="Umacron" xMin="78" yMin="-10" xMax="613" yMax="830">
      <contour>
        <pt x="285" y="60" on="1"/>
        <pt x="306" y="60" on="0"/>
        <pt x="343" y="77" on="0"/>
        <pt x="376" y="118" on="0"/>
        <pt x="403" y="187" on="0"/>
        <pt x="412" y="240" on="1"/>
        <pt x="493" y="700" on="1"/>
        <pt x="613" y="700" on="1"/>
        <pt x="532" y="240" on="1"/>
        <pt x="508" y="105" on="0"/>
        <pt x="382" y="-10" on="0"/>
        <pt x="273" y="-10" on="1"/>
        <pt x="164" y="-10" on="0"/>
        <pt x="78" y="105" on="0"/>
        <pt x="102" y="240" on="1"/>
        <pt x="183" y="700" on="1"/>
        <pt x="303" y="700" on="1"/>
        <pt x="222" y="240" on="1"/>
        <pt x="213" y="187" on="0"/>
        <pt x="214" y="118" on="0"/>
        <pt x="232" y="77" on="0"/>
        <pt x="264" y="60" on="0"/>
      </contour>
      <contour>
        <pt x="301" y="830" on="1"/>
        <pt x="541" y="830" on="1"/>
        <pt x="529" y="760" on="1"/>
        <pt x="289" y="760" on="1"/>
      </contour>
    </TTGlyph>
    <TTGlyph name="Uogonek" xMin="79" yMin="-160" xMax="613" yMax="700">
      <contour>
        <pt x="285" y="60" on="1"/>
        <pt x="306" y="60" on="0"/>
        <pt x="343" y="77" on="0"/>
        <pt x="376" y="118" on="0"/>
        <pt x="403" y="187" on="0"/>
        <pt x="412" y="240" on="1"/>
        <pt x="493" y="700" on="1"/>
        <pt x="613" y="700" on="1"/>
        <pt x="532" y="240" on="1"/>
        <pt x="521" y="176" on="0"/>
        <pt x="481" y="85" on="0"/>
        <pt x="423" y="25" on="0"/>
        <pt x="346" y="-6" on="0"/>
        <pt x="298" y="-9" on="1"/>
        <pt x="292" y="-45" on="1"/>
        <pt x="281" y="-100" on="0"/>
        <pt x="336" y="-100" on="1"/>
        <pt x="372" y="-100" on="1"/>
        <pt x="364" y="-145" on="1"/>
        <pt x="353" y="-149" on="0"/>
        <pt x="341" y="-153" on="1"/>
        <pt x="330" y="-156" on="0"/>
        <pt x="302" y="-160" on="0"/>
        <pt x="285" y="-160" on="1"/>
        <pt x="243" y="-160" on="0"/>
        <pt x="203" y="-114" on="0"/>
        <pt x="209" y="-80" on="1"/>
        <pt x="214" y="-54" on="0"/>
        <pt x="234" y="-18" on="0"/>
        <pt x="241" y="-9" on="1"/>
        <pt x="150" y="-2" on="0"/>
        <pt x="79" y="115" on="0"/>
        <pt x="102" y="240" on="1"/>
        <pt x="183" y="700" on="1"/>
        <pt x="303" y="700" on="1"/>
        <pt x="222" y="240" on="1"/>
        <pt x="213" y="187" on="0"/>
        <pt x="214" y="118" on="0"/>
        <pt x="232" y="77" on="0"/>
        <pt x="264" y="60" on="0"/>
      </contour>
    </TTGlyph>
    <TTGlyph name="V" xMin="138" yMin="0" xMax="628" yMax="700">
      <contour>
        <pt x="263" y="700" on="1"/>
        <pt x="285" y="155" on="1"/>
        <pt x="289" y="155" on="1"/>
        <pt x="503" y="700" on="1"/>
        <pt x="628" y="700" on="1"/>
        <pt x="335" y="0" on="1"/>
        <pt x="185" y="0" on="1"/>
        <pt x="138" y="700" on="1"/>
      </contour>
    </TTGlyph>
    <TTGlyph name="W" xMin="138" yMin="0" xMax="858" yMax="700">
      <contour>
        <pt x="425" y="570" on="1"/>
        <pt x="525" y="570" on="1"/>
        <pt x="555" y="195" on="1"/>
        <pt x="559" y="195" on="1"/>
        <pt x="733" y="700" on="1"/>
        <pt x="858" y="700" on="1"/>
        <pt x="610" y="0" on="1"/>
        <pt x="480" y="0" on="1"/>
        <pt x="445" y="390" on="1"/>
        <pt x="441" y="390" on="1"/>
        <pt x="270" y="0" on="1"/>
        <pt x="140" y="0" on="1"/>
        <pt x="138" y="700" on="1"/>
        <pt x="263" y="700" on="1"/>
        <pt x="259" y="195" on="1"/>
        <pt x="263" y="195" on="1"/>
      </contour>
    </TTGlyph>
    <TTGlyph name="X" xMin="10" yMin="0" xMax="588" yMax="700">
      <contour>
        <pt x="273" y="700" on="1"/>
        <pt x="322" y="440" on="1"/>
        <pt x="463" y="700" on="1"/>
        <pt x="588" y="700" on="1"/>
        <pt x="398" y="360" on="1"/>
        <pt x="480" y="0" on="1"/>
        <pt x="355" y="0" on="1"/>
        <pt x="295" y="285" on="1"/>
        <pt x="135" y="0" on="1"/>
        <pt x="10" y="0" on="1"/>
        <pt x="218" y="360" on="1"/>
        <pt x="148" y="700" on="1"/>
      </contour>
    </TTGlyph>
    <TTGlyph name="Y" xMin="128" yMin="0" xMax="598" yMax="700">
      <contour>
        <pt x="302" y="365" on="1"/>
        <pt x="306" y="365" on="1"/>
        <pt x="473" y="700" on="1"/>
        <pt x="598" y="700" on="1"/>
        <pt x="337" y="210" on="1"/>
        <pt x="300" y="0" on="1"/>
        <pt x="180" y="0" on="1"/>
        <pt x="217" y="210" on="1"/>
        <pt x="128" y="700" on="1"/>
        <pt x="253" y="700" on="1"/>
      </contour>
    </TTGlyph>
    <TTGlyph name="Yacute" xMin="128" yMin="0" xMax="598" yMax="870">
      <contour>
        <pt x="302" y="365" on="1"/>
        <pt x="306" y="365" on="1"/>
        <pt x="473" y="700" on="1"/>
        <pt x="598" y="700" on="1"/>
        <pt x="337" y="210" on="1"/>
        <pt x="300" y="0" on="1"/>
        <pt x="180" y="0" on="1"/>
        <pt x="217" y="210" on="1"/>
        <pt x="128" y="700" on="1"/>
        <pt x="253" y="700" on="1"/>
      </contour>
      <contour>
        <pt x="329" y="740" on="1"/>
        <pt x="387" y="870" on="1"/>
        <pt x="502" y="870" on="1"/>
        <pt x="404" y="740" on="1"/>
      </contour>
    </TTGlyph>
    <TTGlyph name="Ydieresis" xMin="128" yMin="0" xMax="598" yMax="880">
      <contour>
        <pt x="302" y="365" on="1"/>
        <pt x="306" y="365" on="1"/>
        <pt x="473" y="700" on="1"/>
        <pt x="598" y="700" on="1"/>
        <pt x="337" y="210" on="1"/>
        <pt x="300" y="0" on="1"/>
        <pt x="180" y="0" on="1"/>
        <pt x="217" y="210" on="1"/>
        <pt x="128" y="700" on="1"/>
        <pt x="253" y="700" on="1"/>
      </contour>
      <contour>
        <pt x="370" y="880" on="1"/>
        <pt x="349" y="760" on="1"/>
        <pt x="239" y="760" on="1"/>
        <pt x="260" y="880" on="1"/>
      </contour>
      <contour>
        <pt x="530" y="880" on="1"/>
        <pt x="509" y="760" on="1"/>
        <pt x="399" y="760" on="1"/>
        <pt x="420" y="880" on="1"/>
      </contour>
    </TTGlyph>
    <TTGlyph name="Z" xMin="20" yMin="0" xMax="538" yMax="700">
      <contour>
        <pt x="169" y="80" on="1"/>
        <pt x="424" y="80" on="1"/>
        <pt x="410" y="0" on="1"/>
        <pt x="20" y="0" on="1"/>
        <pt x="33" y="75" on="1"/>
        <pt x="389" y="620" on="1"/>
        <pt x="134" y="620" on="1"/>
        <pt x="148" y="700" on="1"/>
        <pt x="538" y="700" on="1"/>
        <pt x="525" y="625" on="1"/>
      </contour>
    </TTGlyph>
    <TTGlyph name="Zacute" xMin="20" yMin="0" xMax="538" yMax="880">
      <contour>
        <pt x="307" y="750" on="1"/>
        <pt x="365" y="880" on="1"/>
        <pt x="480" y="880" on="1"/>
        <pt x="382" y="750" on="1"/>
      </contour>
      <contour>
        <pt x="169" y="80" on="1"/>
        <pt x="424" y="80" on="1"/>
        <pt x="410" y="0" on="1"/>
        <pt x="20" y="0" on="1"/>
        <pt x="33" y="75" on="1"/>
        <pt x="389" y="620" on="1"/>
        <pt x="134" y="620" on="1"/>
        <pt x="148" y="700" on="1"/>
        <pt x="538" y="700" on="1"/>
        <pt x="525" y="625" on="1"/>
      </contour>
    </TTGlyph>
    <TTGlyph name="Zcaron" xMin="20" yMin="0" xMax="538" yMax="890">
      <contour>
        <pt x="330" y="890" on="1"/>
        <pt x="374" y="820" on="1"/>
        <pt x="442" y="890" on="1"/>
        <pt x="519" y="890" on="1"/>
        <pt x="417" y="760" on="1"/>
        <pt x="312" y="760" on="1"/>
        <pt x="254" y="890" on="1"/>
      </contour>
      <contour>
        <pt x="169" y="80" on="1"/>
        <pt x="424" y="80" on="1"/>
        <pt x="410" y="0" on="1"/>
        <pt x="20" y="0" on="1"/>
        <pt x="33" y="75" on="1"/>
        <pt x="389" y="620" on="1"/>
        <pt x="134" y="620" on="1"/>
        <pt x="148" y="700" on="1"/>
        <pt x="538" y="700" on="1"/>
        <pt x="525" y="625" on="1"/>
      </contour>
    </TTGlyph>
    <TTGlyph name="Zdotaccent" xMin="20" yMin="0" xMax="538" yMax="880">
      <contour>
        <pt x="430" y="880" on="1"/>
        <pt x="409" y="760" on="1"/>
        <pt x="299" y="760" on="1"/>
        <pt x="320" y="880" on="1"/>
      </contour>
      <contour>
        <pt x="169" y="80" on="1"/>
        <pt x="424" y="80" on="1"/>
        <pt x="410" y="0" on="1"/>
        <pt x="20" y="0" on="1"/>
        <pt x="33" y="75" on="1"/>
        <pt x="389" y="620" on="1"/>
        <pt x="134" y="620" on="1"/>
        <pt x="148" y="700" on="1"/>
        <pt x="538" y="700" on="1"/>
        <pt x="525" y="625" on="1"/>
      </contour>
    </TTGlyph>
    <TTGlyph name="a" xMin="71" yMin="-10" xMax="509" yMax="510">
      <contour>
        <pt x="337" y="440" on="1"/>
        <pt x="314" y="440" on="0"/>
        <pt x="275" y="423" on="0"/>
        <pt x="241" y="380" on="0"/>
        <pt x="214" y="306" on="0"/>
        <pt x="204" y="250" on="1"/>
        <pt x="194" y="194" on="0"/>
        <pt x="195" y="120" on="0"/>
        <pt x="211" y="77" on="0"/>
        <pt x="241" y="60" on="0"/>
        <pt x="260" y="60" on="1"/>
        <pt x="279" y="60" on="0"/>
        <pt x="310" y="72" on="0"/>
        <pt x="319" y="80" on="1"/>
        <pt x="382" y="440" on="1"/>
      </contour>
      <contour>
        <pt x="425" y="0" on="1"/>
        <pt x="340" y="0" on="1"/>
        <pt x="330" y="30" on="1"/>
        <pt x="325" y="30" on="1"/>
        <pt x="306" y="15" on="0"/>
        <pt x="250" y="-10" on="0"/>
        <pt x="208" y="-10" on="1"/>
        <pt x="170" y="-10" on="0"/>
        <pt x="113" y="18" on="0"/>
        <pt x="79" y="80" on="0"/>
        <pt x="71" y="179" on="0"/>
        <pt x="84" y="250" on="1"/>
        <pt x="96" y="321" on="0"/>
        <pt x="140" y="420" on="0"/>
        <pt x="205" y="482" on="0"/>
        <pt x="293" y="510" on="0"/>
        <pt x="349" y="510" on="1"/>
        <pt x="402" y="510" on="0"/>
        <pt x="474" y="495" on="0"/>
        <pt x="509" y="480" on="1"/>
      </contour>
    </TTGlyph>
    <TTGlyph name="aacute" xMin="71" yMin="-10" xMax="509" yMax="690">
      <contour>
        <pt x="308" y="560" on="1"/>
        <pt x="366" y="690" on="1"/>
        <pt x="481" y="690" on="1"/>
        <pt x="383" y="560" on="1"/>
      </contour>
      <contour>
        <pt x="337" y="440" on="1"/>
        <pt x="314" y="440" on="0"/>
        <pt x="275" y="423" on="0"/>
        <pt x="241" y="380" on="0"/>
        <pt x="214" y="306" on="0"/>
        <pt x="204" y="250" on="1"/>
        <pt x="194" y="194" on="0"/>
        <pt x="195" y="120" on="0"/>
        <pt x="211" y="77" on="0"/>
        <pt x="241" y="60" on="0"/>
        <pt x="260" y="60" on="1"/>
        <pt x="279" y="60" on="0"/>
        <pt x="310" y="72" on="0"/>
        <pt x="319" y="80" on="1"/>
        <pt x="382" y="440" on="1"/>
      </contour>
      <contour>
        <pt x="425" y="0" on="1"/>
        <pt x="340" y="0" on="1"/>
        <pt x="330" y="30" on="1"/>
        <pt x="325" y="30" on="1"/>
        <pt x="306" y="15" on="0"/>
        <pt x="250" y="-10" on="0"/>
        <pt x="208" y="-10" on="1"/>
        <pt x="170" y="-10" on="0"/>
        <pt x="113" y="18" on="0"/>
        <pt x="79" y="80" on="0"/>
        <pt x="71" y="179" on="0"/>
        <pt x="84" y="250" on="1"/>
        <pt x="96" y="321" on="0"/>
        <pt x="140" y="420" on="0"/>
        <pt x="205" y="482" on="0"/>
        <pt x="293" y="510" on="0"/>
        <pt x="349" y="510" on="1"/>
        <pt x="402" y="510" on="0"/>
        <pt x="474" y="495" on="0"/>
        <pt x="509" y="480" on="1"/>
      </contour>
    </TTGlyph>
    <TTGlyph name="acircumflex" xMin="71" yMin="-10" xMax="509" yMax="680">
      <contour>
        <pt x="221" y="550" on="1"/>
        <pt x="324" y="680" on="1"/>
        <pt x="429" y="680" on="1"/>
        <pt x="486" y="550" on="1"/>
        <pt x="409" y="550" on="1"/>
        <pt x="366" y="620" on="1"/>
        <pt x="297" y="550" on="1"/>
      </contour>
      <contour>
        <pt x="337" y="440" on="1"/>
        <pt x="314" y="440" on="0"/>
        <pt x="275" y="423" on="0"/>
        <pt x="241" y="380" on="0"/>
        <pt x="214" y="306" on="0"/>
        <pt x="204" y="250" on="1"/>
        <pt x="194" y="194" on="0"/>
        <pt x="195" y="120" on="0"/>
        <pt x="211" y="77" on="0"/>
        <pt x="241" y="60" on="0"/>
        <pt x="260" y="60" on="1"/>
        <pt x="279" y="60" on="0"/>
        <pt x="310" y="72" on="0"/>
        <pt x="319" y="80" on="1"/>
        <pt x="382" y="440" on="1"/>
      </contour>
      <contour>
        <pt x="425" y="0" on="1"/>
        <pt x="340" y="0" on="1"/>
        <pt x="330" y="30" on="1"/>
        <pt x="325" y="30" on="1"/>
        <pt x="306" y="15" on="0"/>
        <pt x="250" y="-10" on="0"/>
        <pt x="208" y="-10" on="1"/>
        <pt x="170" y="-10" on="0"/>
        <pt x="113" y="18" on="0"/>
        <pt x="79" y="80" on="0"/>
        <pt x="71" y="179" on="0"/>
        <pt x="84" y="250" on="1"/>
        <pt x="96" y="321" on="0"/>
        <pt x="140" y="420" on="0"/>
        <pt x="205" y="482" on="0"/>
        <pt x="293" y="510" on="0"/>
        <pt x="349" y="510" on="1"/>
        <pt x="402" y="510" on="0"/>
        <pt x="474" y="495" on="0"/>
        <pt x="509" y="480" on="1"/>
      </contour>
    </TTGlyph>
    <TTGlyph name="acute" xMin="118" yMin="560" xMax="291" yMax="690">
      <contour>
        <pt x="118" y="560" on="1"/>
        <pt x="176" y="690" on="1"/>
        <pt x="291" y="690" on="1"/>
        <pt x="193" y="560" on="1"/>
      </contour>
    </TTGlyph>
    <TTGlyph name="adieresis" xMin="71" yMin="-10" xMax="509" yMax="680">
      <contour>
        <pt x="349" y="680" on="1"/>
        <pt x="328" y="560" on="1"/>
        <pt x="218" y="560" on="1"/>
        <pt x="239" y="680" on="1"/>
      </contour>
      <contour>
        <pt x="509" y="680" on="1"/>
        <pt x="488" y="560" on="1"/>
        <pt x="378" y="560" on="1"/>
        <pt x="399" y="680" on="1"/>
      </contour>
      <contour>
        <pt x="337" y="440" on="1"/>
        <pt x="314" y="440" on="0"/>
        <pt x="275" y="423" on="0"/>
        <pt x="241" y="380" on="0"/>
        <pt x="214" y="306" on="0"/>
        <pt x="204" y="250" on="1"/>
        <pt x="194" y="194" on="0"/>
        <pt x="195" y="120" on="0"/>
        <pt x="211" y="77" on="0"/>
        <pt x="241" y="60" on="0"/>
        <pt x="260" y="60" on="1"/>
        <pt x="279" y="60" on="0"/>
        <pt x="310" y="72" on="0"/>
        <pt x="319" y="80" on="1"/>
        <pt x="382" y="440" on="1"/>
      </contour>
      <contour>
        <pt x="425" y="0" on="1"/>
        <pt x="340" y="0" on="1"/>
        <pt x="330" y="30" on="1"/>
        <pt x="325" y="30" on="1"/>
        <pt x="306" y="15" on="0"/>
        <pt x="250" y="-10" on="0"/>
        <pt x="208" y="-10" on="1"/>
        <pt x="170" y="-10" on="0"/>
        <pt x="113" y="18" on="0"/>
        <pt x="79" y="80" on="0"/>
        <pt x="71" y="179" on="0"/>
        <pt x="84" y="250" on="1"/>
        <pt x="96" y="321" on="0"/>
        <pt x="140" y="420" on="0"/>
        <pt x="205" y="482" on="0"/>
        <pt x="293" y="510" on="0"/>
        <pt x="349" y="510" on="1"/>
        <pt x="402" y="510" on="0"/>
        <pt x="474" y="495" on="0"/>
        <pt x="509" y="480" on="1"/>
      </contour>
    </TTGlyph>
    <TTGlyph name="ae" xMin="56" yMin="-10" xMax="761" yMax="510">
      <contour>
        <pt x="328" y="220" on="1"/>
        <pt x="273" y="220" on="1"/>
        <pt x="260" y="220" on="0"/>
        <pt x="232" y="212" on="0"/>
        <pt x="207" y="193" on="0"/>
        <pt x="188" y="162" on="0"/>
        <pt x="184" y="140" on="1"/>
        <pt x="180" y="117" on="0"/>
        <pt x="189" y="87" on="0"/>
        <pt x="207" y="68" on="0"/>
        <pt x="232" y="60" on="0"/>
        <pt x="245" y="60" on="1"/>
        <pt x="264" y="60" on="0"/>
        <pt x="295" y="72" on="0"/>
        <pt x="304" y="80" on="1"/>
      </contour>
      <contour>
        <pt x="579" y="510" on="1"/>
        <pt x="673" y="510" on="0"/>
        <pt x="761" y="432" on="0"/>
        <pt x="748" y="360" on="1"/>
        <pt x="734" y="285" on="0"/>
        <pt x="621" y="215" on="0"/>
        <pt x="527" y="215" on="1"/>
        <pt x="447" y="215" on="1"/>
        <pt x="432" y="129" on="0"/>
        <pt x="481" y="60" on="0"/>
        <pt x="545" y="60" on="1"/>
        <pt x="655" y="60" on="1"/>
        <pt x="646" y="10" on="1"/>
        <pt x="623" y="2" on="0"/>
        <pt x="551" y="-10" on="0"/>
        <pt x="513" y="-10" on="1"/>
        <pt x="449" y="-10" on="0"/>
        <pt x="381" y="24" on="0"/>
        <pt x="363" y="50" on="1"/>
        <pt x="336" y="24" on="0"/>
        <pt x="263" y="-10" on="0"/>
        <pt x="203" y="-10" on="1"/>
        <pt x="167" y="-10" on="0"/>
        <pt x="109" y="3" on="0"/>
        <pt x="71" y="37" on="0"/>
        <pt x="56" y="95" on="0"/>
        <pt x="64" y="140" on="1"/>
        <pt x="72" y="185" on="0"/>
        <pt x="107" y="243" on="0"/>
        <pt x="157" y="277" on="0"/>
        <pt x="220" y="290" on="0"/>
        <pt x="256" y="290" on="1"/>
        <pt x="279" y="290" on="0"/>
        <pt x="321" y="284" on="0"/>
        <pt x="339" y="280" on="1"/>
        <pt x="349" y="340" on="1"/>
        <pt x="360" y="400" on="0"/>
        <pt x="311" y="440" on="0"/>
        <pt x="262" y="440" on="1"/>
        <pt x="162" y="440" on="1"/>
        <pt x="171" y="490" on="1"/>
        <pt x="195" y="498" on="0"/>
        <pt x="264" y="510" on="0"/>
        <pt x="294" y="510" on="1"/>
        <pt x="351" y="510" on="0"/>
        <pt x="416" y="476" on="0"/>
        <pt x="434" y="450" on="1"/>
        <pt x="461" y="476" on="0"/>
        <pt x="530" y="510" on="0"/>
      </contour>
      <contour>
        <pt x="540" y="285" on="1"/>
        <pt x="574" y="285" on="0"/>
        <pt x="621" y="322" on="0"/>
        <pt x="628" y="360" on="1"/>
        <pt x="636" y="405" on="0"/>
        <pt x="603" y="445" on="0"/>
        <pt x="573" y="445" on="1"/>
        <pt x="552" y="445" on="0"/>
        <pt x="518" y="432" on="0"/>
        <pt x="491" y="396" on="0"/>
        <pt x="469" y="334" on="0"/>
        <pt x="460" y="285" on="1"/>
      </contour>
    </TTGlyph>
    <TTGlyph name="afii10017" xMin="15" yMin="0" xMax="525" yMax="700">
      <contour>
        <pt x="214" y="175" on="1"/>
        <pt x="140" y="0" on="1"/>
        <pt x="15" y="0" on="1"/>
        <pt x="318" y="700" on="1"/>
        <pt x="468" y="700" on="1"/>
        <pt x="525" y="0" on="1"/>
        <pt x="400" y="0" on="1"/>
        <pt x="386" y="175" on="1"/>
      </contour>
      <contour>
        <pt x="367" y="540" on="1"/>
        <pt x="363" y="540" on="1"/>
        <pt x="244" y="255" on="1"/>
        <pt x="383" y="255" on="1"/>
      </contour>
    </TTGlyph>
    <TTGlyph name="afii10018" xMin="71" yMin="-10" xMax="568" yMax="700">
      <contour>
        <pt x="265" y="430" on="1"/>
        <pt x="320" y="430" on="1"/>
        <pt x="444" y="430" on="0"/>
        <pt x="536" y="321" on="0"/>
        <pt x="516" y="205" on="1"/>
        <pt x="496" y="96" on="0"/>
        <pt x="367" y="-10" on="0"/>
        <pt x="243" y="-10" on="1"/>
        <pt x="186" y="-10" on="0"/>
        <pt x="107" y="-1" on="0"/>
        <pt x="71" y="10" on="1"/>
        <pt x="193" y="700" on="1"/>
        <pt x="568" y="700" on="1"/>
        <pt x="554" y="620" on="1"/>
        <pt x="299" y="620" on="1"/>
      </contour>
      <contour>
        <pt x="251" y="350" on="1"/>
        <pt x="201" y="65" on="1"/>
        <pt x="256" y="65" on="1"/>
        <pt x="313" y="65" on="0"/>
        <pt x="382" y="130" on="0"/>
        <pt x="396" y="205" on="1"/>
        <pt x="410" y="284" on="0"/>
        <pt x="363" y="350" on="0"/>
        <pt x="306" y="350" on="1"/>
      </contour>
    </TTGlyph>
    <TTGlyph name="afii10019" xMin="71" yMin="-10" xMax="572" yMax="710">
      <contour>
        <pt x="435" y="373" on="1"/>
        <pt x="492" y="352" on="0"/>
        <pt x="540" y="258" on="0"/>
        <pt x="528" y="190" on="1"/>
        <pt x="511" y="92" on="0"/>
        <pt x="378" y="-10" on="0"/>
        <pt x="243" y="-10" on="1"/>
        <pt x="186" y="-10" on="0"/>
        <pt x="107" y="-1" on="0"/>
        <pt x="71" y="10" on="1"/>
        <pt x="191" y="690" on="1"/>
        <pt x="231" y="701" on="0"/>
        <pt x="313" y="710" on="0"/>
        <pt x="370" y="710" on="1"/>
        <pt x="483" y="710" on="0"/>
        <pt x="572" y="612" on="0"/>
        <pt x="557" y="525" on="1"/>
        <pt x="549" y="480" on="0"/>
        <pt x="485" y="398" on="0"/>
        <pt x="436" y="377" on="1"/>
      </contour>
      <contour>
        <pt x="248" y="330" on="1"/>
        <pt x="201" y="65" on="1"/>
        <pt x="256" y="65" on="1"/>
        <pt x="320" y="65" on="0"/>
        <pt x="392" y="127" on="0"/>
        <pt x="404" y="195" on="1"/>
        <pt x="417" y="267" on="0"/>
        <pt x="367" y="330" on="0"/>
        <pt x="303" y="330" on="1"/>
      </contour>
      <contour>
        <pt x="306" y="405" on="1"/>
        <pt x="355" y="405" on="0"/>
        <pt x="421" y="463" on="0"/>
        <pt x="431" y="520" on="1"/>
        <pt x="441" y="577" on="0"/>
        <pt x="395" y="635" on="0"/>
        <pt x="346" y="635" on="1"/>
        <pt x="301" y="635" on="1"/>
        <pt x="261" y="405" on="1"/>
      </contour>
    </TTGlyph>
    <TTGlyph name="afii10020" xMin="70" yMin="0" xMax="538" yMax="700">
      <contour>
        <pt x="193" y="700" on="1"/>
        <pt x="538" y="700" on="1"/>
        <pt x="524" y="620" on="1"/>
        <pt x="299" y="620" on="1"/>
        <pt x="190" y="0" on="1"/>
        <pt x="70" y="0" on="1"/>
      </contour>
    </TTGlyph>
    <TTGlyph name="afii10021" xMin="-16" yMin="-150" xMax="613" yMax="700">
      <contour>
        <pt x="384" y="80" on="1"/>
        <pt x="481" y="630" on="1"/>
        <pt x="358" y="630" on="1"/>
        <pt x="278" y="275" on="1"/>
        <pt x="267" y="224" on="0"/>
        <pt x="238" y="151" on="0"/>
        <pt x="225" y="127" on="1"/>
        <pt x="210" y="99" on="0"/>
        <pt x="194" y="80" on="1"/>
      </contour>
      <contour>
        <pt x="125" y="0" on="1"/>
        <pt x="113" y="-45" on="0"/>
        <pt x="78" y="-120" on="0"/>
        <pt x="58" y="-150" on="1"/>
        <pt x="-16" y="-150" on="1"/>
        <pt x="24" y="80" on="1"/>
        <pt x="74" y="80" on="1"/>
        <pt x="90" y="99" on="0"/>
        <pt x="105" y="127" on="1"/>
        <pt x="118" y="151" on="0"/>
        <pt x="147" y="224" on="0"/>
        <pt x="158" y="275" on="1"/>
        <pt x="253" y="700" on="1"/>
        <pt x="613" y="700" on="1"/>
        <pt x="504" y="80" on="1"/>
        <pt x="569" y="80" on="1"/>
        <pt x="528" y="-150" on="1"/>
        <pt x="453" y="-150" on="1"/>
        <pt x="443" y="-120" on="0"/>
        <pt x="435" y="-45" on="0"/>
        <pt x="440" y="0" on="1"/>
      </contour>
    </TTGlyph>
    <TTGlyph name="afii10022" xMin="70" yMin="0" xMax="558" yMax="700">
      <contour>
        <pt x="204" y="80" on="1"/>
        <pt x="449" y="80" on="1"/>
        <pt x="435" y="0" on="1"/>
        <pt x="70" y="0" on="1"/>
        <pt x="193" y="700" on="1"/>
        <pt x="558" y="700" on="1"/>
        <pt x="544" y="620" on="1"/>
        <pt x="299" y="620" on="1"/>
        <pt x="261" y="405" on="1"/>
        <pt x="476" y="405" on="1"/>
        <pt x="462" y="325" on="1"/>
        <pt x="247" y="325" on="1"/>
      </contour>
    </TTGlyph>
    <TTGlyph name="afii10023" xMin="70" yMin="0" xMax="558" yMax="880">
      <contour>
        <pt x="204" y="80" on="1"/>
        <pt x="449" y="80" on="1"/>
        <pt x="435" y="0" on="1"/>
        <pt x="70" y="0" on="1"/>
        <pt x="193" y="700" on="1"/>
        <pt x="558" y="700" on="1"/>
        <pt x="544" y="620" on="1"/>
        <pt x="299" y="620" on="1"/>
        <pt x="261" y="405" on="1"/>
        <pt x="476" y="405" on="1"/>
        <pt x="462" y="325" on="1"/>
        <pt x="247" y="325" on="1"/>
      </contour>
      <contour>
        <pt x="380" y="880" on="1"/>
        <pt x="359" y="760" on="1"/>
        <pt x="249" y="760" on="1"/>
        <pt x="270" y="880" on="1"/>
      </contour>
      <contour>
        <pt x="540" y="880" on="1"/>
        <pt x="519" y="760" on="1"/>
        <pt x="409" y="760" on="1"/>
        <pt x="430" y="880" on="1"/>
      </contour>
    </TTGlyph>
    <TTGlyph name="afii10024" xMin="5" yMin="-10" xMax="878" yMax="710">
      <contour>
        <pt x="274" y="367" on="1"/>
        <pt x="246" y="377" on="0"/>
        <pt x="214" y="430" on="0"/>
        <pt x="206" y="490" on="1"/>
        <pt x="194" y="590" on="1"/>
        <pt x="191" y="616" on="0"/>
        <pt x="162" y="645" on="0"/>
        <pt x="128" y="645" on="1"/>
        <pt x="138" y="700" on="1"/>
        <pt x="146" y="702" on="0"/>
        <pt x="157" y="705" on="1"/>
        <pt x="166" y="707" on="0"/>
        <pt x="193" y="710" on="0"/>
        <pt x="210" y="710" on="1"/>
        <pt x="238" y="710" on="0"/>
        <pt x="276" y="695" on="0"/>
        <pt x="301" y="665" on="0"/>
        <pt x="315" y="620" on="0"/>
        <pt x="319" y="590" on="1"/>
        <pt x="331" y="490" on="1"/>
        <pt x="336" y="441" on="0"/>
        <pt x="362" y="405" on="0"/>
        <pt x="381" y="405" on="1"/>
        <pt x="396" y="405" on="1"/>
        <pt x="448" y="700" on="1"/>
        <pt x="568" y="700" on="1"/>
        <pt x="516" y="405" on="1"/>
        <pt x="531" y="405" on="1"/>
        <pt x="550" y="405" on="0"/>
        <pt x="588" y="441" on="0"/>
        <pt x="611" y="490" on="1"/>
        <pt x="659" y="590" on="1"/>
        <pt x="687" y="650" on="0"/>
        <pt x="754" y="710" on="0"/>
        <pt x="810" y="710" on="1"/>
        <pt x="827" y="710" on="0"/>
        <pt x="853" y="707" on="0"/>
        <pt x="861" y="705" on="1"/>
        <pt x="871" y="702" on="0"/>
        <pt x="878" y="700" on="1"/>
        <pt x="868" y="645" on="1"/>
        <pt x="834" y="645" on="0"/>
        <pt x="796" y="616" on="0"/>
        <pt x="784" y="590" on="1"/>
        <pt x="736" y="490" on="1"/>
        <pt x="722" y="460" on="0"/>
        <pt x="695" y="418" on="0"/>
        <pt x="668" y="389" on="0"/>
        <pt x="640" y="372" on="0"/>
        <pt x="624" y="367" on="1"/>
        <pt x="624" y="363" on="1"/>
        <pt x="638" y="358" on="0"/>
        <pt x="665" y="341" on="0"/>
        <pt x="686" y="312" on="0"/>
        <pt x="700" y="270" on="0"/>
        <pt x="702" y="240" on="1"/>
        <pt x="709" y="110" on="1"/>
        <pt x="711" y="87" on="0"/>
        <pt x="740" y="55" on="0"/>
        <pt x="774" y="55" on="1"/>
        <pt x="765" y="0" on="1"/>
        <pt x="757" y="-3" on="0"/>
        <pt x="746" y="-5" on="1"/>
        <pt x="726" y="-10" on="0"/>
        <pt x="693" y="-10" on="1"/>
        <pt x="636" y="-10" on="0"/>
        <pt x="587" y="50" on="0"/>
        <pt x="584" y="110" on="1"/>
        <pt x="577" y="240" on="1"/>
        <pt x="574" y="289" on="0"/>
        <pt x="543" y="325" on="0"/>
        <pt x="517" y="325" on="1"/>
        <pt x="502" y="325" on="1"/>
        <pt x="445" y="0" on="1"/>
        <pt x="325" y="0" on="1"/>
        <pt x="382" y="325" on="1"/>
        <pt x="367" y="325" on="1"/>
        <pt x="341" y="325" on="0"/>
        <pt x="297" y="289" on="0"/>
        <pt x="277" y="240" on="1"/>
        <pt x="224" y="110" on="1"/>
        <pt x="200" y="50" on="0"/>
        <pt x="130" y="-10" on="0"/>
        <pt x="73" y="-10" on="1"/>
        <pt x="40" y="-10" on="0"/>
        <pt x="22" y="-5" on="1"/>
        <pt x="12" y="-3" on="0"/>
        <pt x="5" y="0" on="1"/>
        <pt x="14" y="55" on="1"/>
        <pt x="48" y="55" on="0"/>
        <pt x="90" y="87" on="0"/>
        <pt x="99" y="110" on="1"/>
        <pt x="152" y="240" on="1"/>
        <pt x="164" y="270" on="0"/>
        <pt x="193" y="312" on="0"/>
        <pt x="225" y="341" on="0"/>
        <pt x="258" y="358" on="0"/>
        <pt x="274" y="363" on="1"/>
      </contour>
    </TTGlyph>
    <TTGlyph name="afii10025" xMin="16" yMin="-10" xMax="495" yMax="710">
      <contour>
        <pt x="176" y="65" on="1"/>
        <pt x="240" y="65" on="0"/>
        <pt x="312" y="127" on="0"/>
        <pt x="324" y="195" on="1"/>
        <pt x="336" y="263" on="0"/>
        <pt x="286" y="325" on="0"/>
        <pt x="222" y="325" on="1"/>
        <pt x="142" y="325" on="1"/>
        <pt x="156" y="405" on="1"/>
        <pt x="226" y="405" on="1"/>
        <pt x="341" y="405" on="0"/>
        <pt x="363" y="530" on="1"/>
        <pt x="371" y="579" on="0"/>
        <pt x="323" y="635" on="0"/>
        <pt x="266" y="635" on="1"/>
        <pt x="136" y="635" on="1"/>
        <pt x="146" y="690" on="1"/>
        <pt x="158" y="694" on="0"/>
        <pt x="192" y="701" on="0"/>
        <pt x="231" y="707" on="0"/>
        <pt x="271" y="710" on="0"/>
        <pt x="290" y="710" on="1"/>
        <pt x="350" y="710" on="0"/>
        <pt x="432" y="685" on="0"/>
        <pt x="480" y="638" on="0"/>
        <pt x="495" y="571" on="0"/>
        <pt x="488" y="530" on="1"/>
        <pt x="477" y="466" on="0"/>
        <pt x="404" y="393" on="0"/>
        <pt x="355" y="372" on="1"/>
        <pt x="354" y="368" on="1"/>
        <pt x="411" y="351" on="0"/>
        <pt x="460" y="255" on="0"/>
        <pt x="449" y="195" on="1"/>
        <pt x="431" y="94" on="0"/>
        <pt x="298" y="-10" on="0"/>
        <pt x="163" y="-10" on="1"/>
        <pt x="118" y="-10" on="0"/>
        <pt x="38" y="2" on="0"/>
        <pt x="16" y="10" on="1"/>
        <pt x="26" y="65" on="1"/>
      </contour>
    </TTGlyph>
    <TTGlyph name="afii10026" xMin="70" yMin="0" xMax="623" yMax="700">
      <contour>
        <pt x="190" y="0" on="1"/>
        <pt x="70" y="0" on="1"/>
        <pt x="193" y="700" on="1"/>
        <pt x="308" y="700" on="1"/>
        <pt x="227" y="240" on="1"/>
        <pt x="232" y="240" on="1"/>
        <pt x="498" y="700" on="1"/>
        <pt x="623" y="700" on="1"/>
        <pt x="500" y="0" on="1"/>
        <pt x="385" y="0" on="1"/>
        <pt x="467" y="470" on="1"/>
        <pt x="462" y="470" on="1"/>
      </contour>
    </TTGlyph>
    <TTGlyph name="afii10027" xMin="70" yMin="0" xMax="623" yMax="885">
      <contour>
        <pt x="433" y="840" on="1"/>
        <pt x="463" y="840" on="0"/>
        <pt x="518" y="870" on="0"/>
        <pt x="536" y="885" on="1"/>
        <pt x="577" y="835" on="1"/>
        <pt x="548" y="797" on="0"/>
        <pt x="467" y="755" on="0"/>
        <pt x="418" y="755" on="1"/>
        <pt x="369" y="755" on="0"/>
        <pt x="303" y="797" on="0"/>
        <pt x="287" y="835" on="1"/>
        <pt x="346" y="885" on="1"/>
        <pt x="358" y="870" on="0"/>
        <pt x="403" y="840" on="0"/>
      </contour>
      <contour>
        <pt x="190" y="0" on="1"/>
        <pt x="70" y="0" on="1"/>
        <pt x="193" y="700" on="1"/>
        <pt x="308" y="700" on="1"/>
        <pt x="227" y="240" on="1"/>
        <pt x="232" y="240" on="1"/>
        <pt x="498" y="700" on="1"/>
        <pt x="623" y="700" on="1"/>
        <pt x="500" y="0" on="1"/>
        <pt x="385" y="0" on="1"/>
        <pt x="467" y="470" on="1"/>
        <pt x="462" y="470" on="1"/>
      </contour>
    </TTGlyph>
    <TTGlyph name="afii10028" xMin="70" yMin="-10" xMax="628" yMax="710">
      <contour>
        <pt x="374" y="363" on="1"/>
        <pt x="388" y="358" on="0"/>
        <pt x="415" y="341" on="0"/>
        <pt x="436" y="312" on="0"/>
        <pt x="450" y="270" on="0"/>
        <pt x="452" y="240" on="1"/>
        <pt x="459" y="110" on="1"/>
        <pt x="461" y="87" on="0"/>
        <pt x="490" y="55" on="0"/>
        <pt x="524" y="55" on="1"/>
        <pt x="515" y="0" on="1"/>
        <pt x="507" y="-3" on="0"/>
        <pt x="496" y="-5" on="1"/>
        <pt x="476" y="-10" on="0"/>
        <pt x="443" y="-10" on="1"/>
        <pt x="386" y="-10" on="0"/>
        <pt x="337" y="50" on="0"/>
        <pt x="334" y="110" on="1"/>
        <pt x="327" y="240" on="1"/>
        <pt x="324" y="289" on="0"/>
        <pt x="293" y="325" on="0"/>
        <pt x="267" y="325" on="1"/>
        <pt x="247" y="325" on="1"/>
        <pt x="190" y="0" on="1"/>
        <pt x="70" y="0" on="1"/>
        <pt x="193" y="700" on="1"/>
        <pt x="313" y="700" on="1"/>
        <pt x="261" y="405" on="1"/>
        <pt x="281" y="405" on="1"/>
        <pt x="300" y="405" on="0"/>
        <pt x="338" y="441" on="0"/>
        <pt x="361" y="490" on="1"/>
        <pt x="409" y="590" on="1"/>
        <pt x="437" y="650" on="0"/>
        <pt x="504" y="710" on="0"/>
        <pt x="560" y="710" on="1"/>
        <pt x="577" y="710" on="0"/>
        <pt x="603" y="707" on="0"/>
        <pt x="611" y="705" on="1"/>
        <pt x="621" y="702" on="0"/>
        <pt x="628" y="700" on="1"/>
        <pt x="618" y="645" on="1"/>
        <pt x="584" y="645" on="0"/>
        <pt x="546" y="616" on="0"/>
        <pt x="534" y="590" on="1"/>
        <pt x="486" y="490" on="1"/>
        <pt x="472" y="460" on="0"/>
        <pt x="445" y="418" on="0"/>
        <pt x="418" y="389" on="0"/>
        <pt x="390" y="372" on="0"/>
        <pt x="374" y="367" on="1"/>
      </contour>
    </TTGlyph>
    <TTGlyph name="afii10029" xMin="0" yMin="-10" xMax="613" yMax="700">
      <contour>
        <pt x="68" y="-10" on="1"/>
        <pt x="35" y="-10" on="0"/>
        <pt x="17" y="-5" on="1"/>
        <pt x="7" y="-3" on="0"/>
        <pt x="0" y="0" on="1"/>
        <pt x="9" y="55" on="1"/>
        <pt x="46" y="55" on="0"/>
        <pt x="112" y="124" on="0"/>
        <pt x="132" y="210" on="1"/>
        <pt x="243" y="700" on="1"/>
        <pt x="613" y="700" on="1"/>
        <pt x="490" y="0" on="1"/>
        <pt x="370" y="0" on="1"/>
        <pt x="479" y="620" on="1"/>
        <pt x="345" y="620" on="1"/>
        <pt x="252" y="210" on="1"/>
        <pt x="224" y="90" on="0"/>
        <pt x="128" y="-10" on="0"/>
      </contour>
    </TTGlyph>
    <TTGlyph name="afii10030" xMin="50" yMin="0" xMax="793" yMax="700">
      <contour>
        <pt x="343" y="700" on="1"/>
        <pt x="417" y="225" on="1"/>
        <pt x="421" y="225" on="1"/>
        <pt x="663" y="700" on="1"/>
        <pt x="793" y="700" on="1"/>
        <pt x="710" y="0" on="1"/>
        <pt x="595" y="0" on="1"/>
        <pt x="651" y="474" on="1"/>
        <pt x="647" y="474" on="1"/>
        <pt x="449" y="85" on="1"/>
        <pt x="339" y="85" on="1"/>
        <pt x="279" y="474" on="1"/>
        <pt x="275" y="474" on="1"/>
        <pt x="165" y="0" on="1"/>
        <pt x="50" y="0" on="1"/>
        <pt x="213" y="700" on="1"/>
      </contour>
    </TTGlyph>
    <TTGlyph name="afii10031" xMin="70" yMin="0" xMax="613" yMax="700">
      <contour>
        <pt x="613" y="700" on="1"/>
        <pt x="490" y="0" on="1"/>
        <pt x="370" y="0" on="1"/>
        <pt x="425" y="315" on="1"/>
        <pt x="245" y="315" on="1"/>
        <pt x="190" y="0" on="1"/>
        <pt x="70" y="0" on="1"/>
        <pt x="193" y="700" on="1"/>
        <pt x="313" y="700" on="1"/>
        <pt x="259" y="395" on="1"/>
        <pt x="439" y="395" on="1"/>
        <pt x="493" y="700" on="1"/>
      </contour>
    </TTGlyph>
    <TTGlyph name="afii10032" xMin="88" yMin="-10" xMax="584" yMax="710">
      <contour>
        <pt x="285" y="60" on="1"/>
        <pt x="306" y="60" on="0"/>
        <pt x="350" y="86" on="0"/>
        <pt x="392" y="152" on="0"/>
        <pt x="431" y="264" on="0"/>
        <pt x="446" y="350" on="1"/>
        <pt x="461" y="436" on="0"/>
        <pt x="462" y="548" on="0"/>
        <pt x="443" y="614" on="0"/>
        <pt x="408" y="640" on="0"/>
        <pt x="387" y="640" on="1"/>
        <pt x="366" y="640" on="0"/>
        <pt x="322" y="614" on="0"/>
        <pt x="280" y="548" on="0"/>
        <pt x="241" y="436" on="0"/>
        <pt x="226" y="350" on="1"/>
        <pt x="211" y="264" on="0"/>
        <pt x="210" y="152" on="0"/>
        <pt x="230" y="86" on="0"/>
        <pt x="264" y="60" on="0"/>
      </contour>
      <contour>
        <pt x="400" y="710" on="1"/>
        <pt x="452" y="710" on="0"/>
        <pt x="531" y="673" on="0"/>
        <pt x="576" y="589" on="0"/>
        <pt x="584" y="451" on="0"/>
        <pt x="566" y="350" on="1"/>
        <pt x="548" y="249" on="0"/>
        <pt x="492" y="111" on="0"/>
        <pt x="417" y="27" on="0"/>
        <pt x="325" y="-10" on="0"/>
        <pt x="273" y="-10" on="1"/>
        <pt x="220" y="-10" on="0"/>
        <pt x="142" y="27" on="0"/>
        <pt x="97" y="111" on="0"/>
        <pt x="88" y="249" on="0"/>
        <pt x="106" y="350" on="1"/>
        <pt x="124" y="451" on="0"/>
        <pt x="181" y="589" on="0"/>
        <pt x="256" y="673" on="0"/>
        <pt x="347" y="710" on="0"/>
      </contour>
    </TTGlyph>
    <TTGlyph name="afii10033" xMin="70" yMin="0" xMax="613" yMax="700">
      <contour>
        <pt x="613" y="700" on="1"/>
        <pt x="490" y="0" on="1"/>
        <pt x="370" y="0" on="1"/>
        <pt x="479" y="620" on="1"/>
        <pt x="299" y="620" on="1"/>
        <pt x="190" y="0" on="1"/>
        <pt x="70" y="0" on="1"/>
        <pt x="193" y="700" on="1"/>
      </contour>
    </TTGlyph>
    <TTGlyph name="afii10034" xMin="70" yMin="0" xMax="573" yMax="710">
      <contour>
        <pt x="294" y="280" on="1"/>
        <pt x="322" y="280" on="0"/>
        <pt x="368" y="297" on="0"/>
        <pt x="404" y="338" on="0"/>
        <pt x="432" y="407" on="0"/>
        <pt x="441" y="460" on="1"/>
        <pt x="450" y="511" on="0"/>
        <pt x="446" y="578" on="0"/>
        <pt x="424" y="618" on="0"/>
        <pt x="384" y="635" on="0"/>
        <pt x="356" y="635" on="1"/>
        <pt x="301" y="635" on="1"/>
        <pt x="239" y="280" on="1"/>
      </contour>
      <contour>
        <pt x="190" y="0" on="1"/>
        <pt x="70" y="0" on="1"/>
        <pt x="191" y="690" on="1"/>
        <pt x="231" y="701" on="0"/>
        <pt x="313" y="710" on="0"/>
        <pt x="370" y="710" on="1"/>
        <pt x="432" y="710" on="0"/>
        <pt x="516" y="682" on="0"/>
        <pt x="562" y="622" on="0"/>
        <pt x="573" y="527" on="0"/>
        <pt x="561" y="460" on="1"/>
        <pt x="548" y="389" on="0"/>
        <pt x="505" y="290" on="0"/>
        <pt x="442" y="228" on="0"/>
        <pt x="361" y="200" on="0"/>
        <pt x="310" y="200" on="1"/>
        <pt x="304" y="200" on="0"/>
        <pt x="284" y="202" on="0"/>
        <pt x="260" y="205" on="0"/>
        <pt x="236" y="208" on="0"/>
        <pt x="227" y="210" on="1"/>
      </contour>
    </TTGlyph>
    <TTGlyph name="afii10035" xMin="88" yMin="-10" xMax="551" yMax="710">
      <contour>
        <pt x="278" y="-10" on="1"/>
        <pt x="220" y="-10" on="0"/>
        <pt x="138" y="24" on="0"/>
        <pt x="93" y="106" on="0"/>
        <pt x="88" y="245" on="0"/>
        <pt x="106" y="350" on="1"/>
        <pt x="125" y="455" on="0"/>
        <pt x="179" y="594" on="0"/>
        <pt x="251" y="676" on="0"/>
        <pt x="341" y="710" on="0"/>
        <pt x="395" y="710" on="1"/>
        <pt x="448" y="710" on="0"/>
        <pt x="530" y="698" on="0"/>
        <pt x="551" y="690" on="1"/>
        <pt x="541" y="635" on="1"/>
        <pt x="421" y="635" on="1"/>
        <pt x="389" y="635" on="0"/>
        <pt x="331" y="609" on="0"/>
        <pt x="282" y="545" on="0"/>
        <pt x="241" y="434" on="0"/>
        <pt x="226" y="350" on="1"/>
        <pt x="211" y="266" on="0"/>
        <pt x="214" y="155" on="0"/>
        <pt x="243" y="91" on="0"/>
        <pt x="295" y="65" on="0"/>
        <pt x="331" y="65" on="1"/>
        <pt x="451" y="65" on="1"/>
        <pt x="441" y="10" on="1"/>
        <pt x="418" y="2" on="0"/>
        <pt x="331" y="-10" on="0"/>
      </contour>
    </TTGlyph>
    <TTGlyph name="afii10036" xMin="119" yMin="0" xMax="563" yMax="700">
      <contour>
        <pt x="133" y="700" on="1"/>
        <pt x="563" y="700" on="1"/>
        <pt x="549" y="620" on="1"/>
        <pt x="394" y="620" on="1"/>
        <pt x="285" y="0" on="1"/>
        <pt x="165" y="0" on="1"/>
        <pt x="274" y="620" on="1"/>
        <pt x="119" y="620" on="1"/>
      </contour>
    </TTGlyph>
    <TTGlyph name="afii10037" xMin="81" yMin="-10" xMax="598" yMax="700">
      <contour>
        <pt x="188" y="-10" on="1"/>
        <pt x="158" y="-10" on="0"/>
        <pt x="103" y="2" on="0"/>
        <pt x="81" y="10" on="1"/>
        <pt x="91" y="65" on="1"/>
        <pt x="161" y="65" on="1"/>
        <pt x="180" y="65" on="0"/>
        <pt x="212" y="76" on="0"/>
        <pt x="243" y="106" on="0"/>
        <pt x="273" y="159" on="0"/>
        <pt x="290" y="200" on="1"/>
        <pt x="230" y="200" on="0"/>
        <pt x="166" y="267" on="0"/>
        <pt x="161" y="320" on="1"/>
        <pt x="123" y="700" on="1"/>
        <pt x="243" y="700" on="1"/>
        <pt x="280" y="330" on="1"/>
        <pt x="282" y="307" on="0"/>
        <pt x="303" y="280" on="0"/>
        <pt x="319" y="280" on="1"/>
        <pt x="478" y="700" on="1"/>
        <pt x="598" y="700" on="1"/>
        <pt x="393" y="160" on="1"/>
        <pt x="328" y="-10" on="0"/>
      </contour>
    </TTGlyph>
    <TTGlyph name="afii10038" xMin="74" yMin="-20" xMax="758" yMax="720">
      <contour>
        <pt x="541" y="720" on="1"/>
        <pt x="530" y="655" on="1"/>
        <pt x="590" y="647" on="0"/>
        <pt x="682" y="601" on="0"/>
        <pt x="739" y="524" on="0"/>
        <pt x="758" y="417" on="0"/>
        <pt x="746" y="350" on="1"/>
        <pt x="734" y="282" on="0"/>
        <pt x="677" y="176" on="0"/>
        <pt x="593" y="99" on="0"/>
        <pt x="485" y="52" on="0"/>
        <pt x="422" y="45" on="1"/>
        <pt x="411" y="-20" on="1"/>
        <pt x="291" y="-20" on="1"/>
        <pt x="302" y="45" on="1"/>
        <pt x="242" y="52" on="0"/>
        <pt x="150" y="99" on="0"/>
        <pt x="93" y="176" on="0"/>
        <pt x="74" y="282" on="0"/>
        <pt x="86" y="350" on="1"/>
        <pt x="98" y="417" on="0"/>
        <pt x="155" y="524" on="0"/>
        <pt x="239" y="601" on="0"/>
        <pt x="347" y="647" on="0"/>
        <pt x="410" y="655" on="1"/>
        <pt x="421" y="720" on="1"/>
      </contour>
      <contour>
        <pt x="626" y="350" on="1"/>
        <pt x="636" y="404" on="0"/>
        <pt x="624" y="488" on="0"/>
        <pt x="591" y="547" on="0"/>
        <pt x="543" y="578" on="0"/>
        <pt x="517" y="580" on="1"/>
        <pt x="436" y="120" on="1"/>
        <pt x="463" y="122" on="0"/>
        <pt x="522" y="153" on="0"/>
        <pt x="575" y="212" on="0"/>
        <pt x="617" y="296" on="0"/>
      </contour>
      <contour>
        <pt x="206" y="350" on="1"/>
        <pt x="197" y="296" on="0"/>
        <pt x="209" y="212" on="0"/>
        <pt x="242" y="153" on="0"/>
        <pt x="290" y="122" on="0"/>
        <pt x="316" y="120" on="1"/>
        <pt x="397" y="580" on="1"/>
        <pt x="370" y="578" on="0"/>
        <pt x="311" y="547" on="0"/>
        <pt x="258" y="488" on="0"/>
        <pt x="216" y="404" on="0"/>
      </contour>
    </TTGlyph>
    <TTGlyph name="afii10039" xMin="15" yMin="0" xMax="593" yMax="700">
      <contour>
        <pt x="278" y="700" on="1"/>
        <pt x="327" y="440" on="1"/>
        <pt x="468" y="700" on="1"/>
        <pt x="593" y="700" on="1"/>
        <pt x="403" y="360" on="1"/>
        <pt x="485" y="0" on="1"/>
        <pt x="360" y="0" on="1"/>
        <pt x="300" y="285" on="1"/>
        <pt x="140" y="0" on="1"/>
        <pt x="15" y="0" on="1"/>
        <pt x="223" y="360" on="1"/>
        <pt x="153" y="700" on="1"/>
      </contour>
    </TTGlyph>
    <TTGlyph name="afii10040" xMin="70" yMin="-150" xMax="603" yMax="700">
      <contour>
        <pt x="70" y="0" on="1"/>
        <pt x="193" y="700" on="1"/>
        <pt x="313" y="700" on="1"/>
        <pt x="204" y="80" on="1"/>
        <pt x="374" y="80" on="1"/>
        <pt x="483" y="700" on="1"/>
        <pt x="603" y="700" on="1"/>
        <pt x="494" y="80" on="1"/>
        <pt x="559" y="80" on="1"/>
        <pt x="518" y="-150" on="1"/>
        <pt x="443" y="-150" on="1"/>
        <pt x="433" y="-120" on="0"/>
        <pt x="425" y="-45" on="0"/>
        <pt x="430" y="0" on="1"/>
      </contour>
    </TTGlyph>
    <TTGlyph name="afii10041" xMin="112" yMin="0" xMax="588" yMax="700">
      <contour>
        <pt x="294" y="250" on="1"/>
        <pt x="196" y="250" on="0"/>
        <pt x="112" y="353" on="0"/>
        <pt x="130" y="455" on="1"/>
        <pt x="173" y="700" on="1"/>
        <pt x="293" y="700" on="1"/>
        <pt x="250" y="455" on="1"/>
        <pt x="228" y="330" on="0"/>
        <pt x="348" y="330" on="1"/>
        <pt x="403" y="330" on="1"/>
        <pt x="468" y="700" on="1"/>
        <pt x="588" y="700" on="1"/>
        <pt x="465" y="0" on="1"/>
        <pt x="345" y="0" on="1"/>
        <pt x="390" y="260" on="1"/>
        <pt x="370" y="256" on="0"/>
        <pt x="313" y="250" on="0"/>
      </contour>
    </TTGlyph>
    <TTGlyph name="afii10042" xMin="70" yMin="0" xMax="843" yMax="700">
      <contour>
        <pt x="469" y="80" on="1"/>
        <pt x="614" y="80" on="1"/>
        <pt x="723" y="700" on="1"/>
        <pt x="843" y="700" on="1"/>
        <pt x="720" y="0" on="1"/>
        <pt x="70" y="0" on="1"/>
        <pt x="193" y="700" on="1"/>
        <pt x="313" y="700" on="1"/>
        <pt x="204" y="80" on="1"/>
        <pt x="349" y="80" on="1"/>
        <pt x="458" y="700" on="1"/>
        <pt x="578" y="700" on="1"/>
      </contour>
    </TTGlyph>
    <TTGlyph name="afii10043" xMin="70" yMin="-150" xMax="843" yMax="700">
      <contour>
        <pt x="70" y="0" on="1"/>
        <pt x="193" y="700" on="1"/>
        <pt x="313" y="700" on="1"/>
        <pt x="204" y="80" on="1"/>
        <pt x="349" y="80" on="1"/>
        <pt x="458" y="700" on="1"/>
        <pt x="578" y="700" on="1"/>
        <pt x="469" y="80" on="1"/>
        <pt x="614" y="80" on="1"/>
        <pt x="723" y="700" on="1"/>
        <pt x="843" y="700" on="1"/>
        <pt x="734" y="80" on="1"/>
        <pt x="799" y="80" on="1"/>
        <pt x="758" y="-150" on="1"/>
        <pt x="683" y="-150" on="1"/>
        <pt x="673" y="-120" on="0"/>
        <pt x="665" y="-45" on="0"/>
        <pt x="670" y="0" on="1"/>
      </contour>
    </TTGlyph>
    <TTGlyph name="afii10044" xMin="129" yMin="-10" xMax="596" yMax="700">
      <contour>
        <pt x="410" y="430" on="1"/>
        <pt x="512" y="430" on="0"/>
        <pt x="596" y="322" on="0"/>
        <pt x="576" y="205" on="1"/>
        <pt x="556" y="96" on="0"/>
        <pt x="427" y="-10" on="0"/>
        <pt x="303" y="-10" on="1"/>
        <pt x="246" y="-10" on="0"/>
        <pt x="167" y="-1" on="0"/>
        <pt x="131" y="10" on="1"/>
        <pt x="239" y="620" on="1"/>
        <pt x="129" y="620" on="1"/>
        <pt x="143" y="700" on="1"/>
        <pt x="373" y="700" on="1"/>
        <pt x="324" y="420" on="1"/>
        <pt x="333" y="422" on="0"/>
        <pt x="358" y="425" on="0"/>
        <pt x="383" y="428" on="0"/>
        <pt x="404" y="430" on="0"/>
      </contour>
      <contour>
        <pt x="311" y="350" on="1"/>
        <pt x="261" y="65" on="1"/>
        <pt x="316" y="65" on="1"/>
        <pt x="373" y="65" on="0"/>
        <pt x="442" y="130" on="0"/>
        <pt x="456" y="205" on="1"/>
        <pt x="463" y="246" on="0"/>
        <pt x="458" y="302" on="0"/>
        <pt x="435" y="336" on="0"/>
        <pt x="394" y="350" on="0"/>
        <pt x="366" y="350" on="1"/>
      </contour>
    </TTGlyph>
    <TTGlyph name="afii10045" xMin="71" yMin="-10" xMax="788" yMax="700">
      <contour>
        <pt x="788" y="700" on="1"/>
        <pt x="665" y="0" on="1"/>
        <pt x="545" y="0" on="1"/>
        <pt x="668" y="700" on="1"/>
      </contour>
      <contour>
        <pt x="251" y="350" on="1"/>
        <pt x="201" y="65" on="1"/>
        <pt x="256" y="65" on="1"/>
        <pt x="309" y="65" on="0"/>
        <pt x="377" y="130" on="0"/>
        <pt x="391" y="205" on="1"/>
        <pt x="398" y="246" on="0"/>
        <pt x="393" y="302" on="0"/>
        <pt x="371" y="336" on="0"/>
        <pt x="332" y="350" on="0"/>
        <pt x="306" y="350" on="1"/>
      </contour>
      <contour>
        <pt x="350" y="430" on="1"/>
        <pt x="448" y="430" on="0"/>
        <pt x="531" y="322" on="0"/>
        <pt x="511" y="205" on="1"/>
        <pt x="491" y="96" on="0"/>
        <pt x="364" y="-10" on="0"/>
        <pt x="243" y="-10" on="1"/>
        <pt x="186" y="-10" on="0"/>
        <pt x="107" y="-1" on="0"/>
        <pt x="71" y="10" on="1"/>
        <pt x="193" y="700" on="1"/>
        <pt x="313" y="700" on="1"/>
        <pt x="264" y="420" on="1"/>
        <pt x="273" y="422" on="0"/>
        <pt x="298" y="425" on="0"/>
        <pt x="323" y="428" on="0"/>
        <pt x="344" y="430" on="0"/>
      </contour>
    </TTGlyph>
    <TTGlyph name="afii10046" xMin="71" yMin="-10" xMax="536" yMax="700">
      <contour>
        <pt x="251" y="350" on="1"/>
        <pt x="201" y="65" on="1"/>
        <pt x="256" y="65" on="1"/>
        <pt x="313" y="65" on="0"/>
        <pt x="382" y="130" on="0"/>
        <pt x="396" y="205" on="1"/>
        <pt x="403" y="246" on="0"/>
        <pt x="398" y="302" on="0"/>
        <pt x="375" y="336" on="0"/>
        <pt x="334" y="350" on="0"/>
        <pt x="306" y="350" on="1"/>
      </contour>
      <contour>
        <pt x="350" y="430" on="1"/>
        <pt x="452" y="430" on="0"/>
        <pt x="536" y="322" on="0"/>
        <pt x="516" y="205" on="1"/>
        <pt x="496" y="96" on="0"/>
        <pt x="367" y="-10" on="0"/>
        <pt x="243" y="-10" on="1"/>
        <pt x="186" y="-10" on="0"/>
        <pt x="107" y="-1" on="0"/>
        <pt x="71" y="10" on="1"/>
        <pt x="193" y="700" on="1"/>
        <pt x="313" y="700" on="1"/>
        <pt x="264" y="420" on="1"/>
        <pt x="273" y="422" on="0"/>
        <pt x="298" y="425" on="0"/>
        <pt x="323" y="428" on="0"/>
        <pt x="344" y="430" on="0"/>
      </contour>
    </TTGlyph>
    <TTGlyph name="afii10047" xMin="16" yMin="-10" xMax="490" yMax="710">
      <contour>
        <pt x="155" y="400" on="1"/>
        <pt x="359" y="400" on="1"/>
        <pt x="368" y="469" on="0"/>
        <pt x="361" y="560" on="0"/>
        <pt x="332" y="614" on="0"/>
        <pt x="286" y="635" on="0"/>
        <pt x="256" y="635" on="1"/>
        <pt x="136" y="635" on="1"/>
        <pt x="146" y="690" on="1"/>
        <pt x="170" y="698" on="0"/>
        <pt x="257" y="710" on="0"/>
        <pt x="310" y="710" on="1"/>
        <pt x="364" y="710" on="0"/>
        <pt x="442" y="676" on="0"/>
        <pt x="485" y="594" on="0"/>
        <pt x="490" y="455" on="0"/>
        <pt x="471" y="350" on="1"/>
        <pt x="453" y="245" on="0"/>
        <pt x="398" y="106" on="0"/>
        <pt x="325" y="24" on="0"/>
        <pt x="231" y="-10" on="0"/>
        <pt x="173" y="-10" on="1"/>
        <pt x="120" y="-10" on="0"/>
        <pt x="38" y="2" on="0"/>
        <pt x="16" y="10" on="1"/>
        <pt x="26" y="65" on="1"/>
        <pt x="146" y="65" on="1"/>
        <pt x="180" y="65" on="0"/>
        <pt x="239" y="88" on="0"/>
        <pt x="290" y="147" on="0"/>
        <pt x="330" y="245" on="0"/>
        <pt x="345" y="320" on="1"/>
        <pt x="141" y="320" on="1"/>
      </contour>
    </TTGlyph>
    <TTGlyph name="afii10048" xMin="70" yMin="-10" xMax="779" yMax="710">
      <contour>
        <pt x="600" y="710" on="1"/>
        <pt x="651" y="710" on="0"/>
        <pt x="727" y="673" on="0"/>
        <pt x="771" y="589" on="0"/>
        <pt x="779" y="451" on="0"/>
        <pt x="761" y="350" on="1"/>
        <pt x="743" y="249" on="0"/>
        <pt x="687" y="111" on="0"/>
        <pt x="613" y="27" on="0"/>
        <pt x="524" y="-10" on="0"/>
        <pt x="473" y="-10" on="1"/>
        <pt x="424" y="-10" on="0"/>
        <pt x="350" y="23" on="0"/>
        <pt x="305" y="99" on="0"/>
        <pt x="293" y="223" on="0"/>
        <pt x="305" y="315" on="1"/>
        <pt x="245" y="315" on="1"/>
        <pt x="190" y="0" on="1"/>
        <pt x="70" y="0" on="1"/>
        <pt x="193" y="700" on="1"/>
        <pt x="313" y="700" on="1"/>
        <pt x="259" y="395" on="1"/>
        <pt x="320" y="395" on="1"/>
        <pt x="339" y="483" on="0"/>
        <pt x="396" y="604" on="0"/>
        <pt x="468" y="678" on="0"/>
        <pt x="553" y="710" on="0"/>
      </contour>
      <contour>
        <pt x="587" y="640" on="1"/>
        <pt x="568" y="640" on="0"/>
        <pt x="526" y="614" on="0"/>
        <pt x="485" y="548" on="0"/>
        <pt x="446" y="436" on="0"/>
        <pt x="431" y="350" on="1"/>
        <pt x="416" y="264" on="0"/>
        <pt x="415" y="152" on="0"/>
        <pt x="433" y="86" on="0"/>
        <pt x="466" y="60" on="0"/>
        <pt x="485" y="60" on="1"/>
        <pt x="504" y="60" on="0"/>
        <pt x="546" y="86" on="0"/>
        <pt x="588" y="152" on="0"/>
        <pt x="626" y="264" on="0"/>
        <pt x="641" y="350" on="1"/>
        <pt x="656" y="436" on="0"/>
        <pt x="657" y="548" on="0"/>
        <pt x="639" y="614" on="0"/>
        <pt x="606" y="640" on="0"/>
      </contour>
    </TTGlyph>
    <TTGlyph name="afii10049" xMin="10" yMin="-10" xMax="576" yMax="710">
      <contour>
        <pt x="398" y="360" on="1"/>
        <pt x="446" y="635" on="1"/>
        <pt x="391" y="635" on="1"/>
        <pt x="334" y="635" on="0"/>
        <pt x="265" y="572" on="0"/>
        <pt x="253" y="500" on="1"/>
        <pt x="239" y="425" on="0"/>
        <pt x="286" y="360" on="0"/>
        <pt x="343" y="360" on="1"/>
      </contour>
      <contour>
        <pt x="239" y="310" on="1"/>
        <pt x="219" y="314" on="0"/>
        <pt x="175" y="340" on="0"/>
        <pt x="141" y="387" on="0"/>
        <pt x="125" y="455" on="0"/>
        <pt x="133" y="500" on="1"/>
        <pt x="151" y="605" on="0"/>
        <pt x="281" y="710" on="0"/>
        <pt x="405" y="710" on="1"/>
        <pt x="462" y="710" on="0"/>
        <pt x="541" y="701" on="0"/>
        <pt x="576" y="690" on="1"/>
        <pt x="455" y="0" on="1"/>
        <pt x="335" y="0" on="1"/>
        <pt x="384" y="280" on="1"/>
        <pt x="359" y="280" on="1"/>
        <pt x="344" y="280" on="0"/>
        <pt x="292" y="244" on="0"/>
        <pt x="269" y="195" on="1"/>
        <pt x="229" y="110" on="1"/>
        <pt x="201" y="50" on="0"/>
        <pt x="131" y="-10" on="0"/>
        <pt x="78" y="-10" on="1"/>
        <pt x="49" y="-10" on="0"/>
        <pt x="29" y="-5" on="1"/>
        <pt x="18" y="-3" on="0"/>
        <pt x="10" y="0" on="1"/>
        <pt x="19" y="55" on="1"/>
        <pt x="49" y="55" on="0"/>
        <pt x="90" y="80" on="0"/>
        <pt x="104" y="110" on="1"/>
        <pt x="144" y="195" on="1"/>
        <pt x="167" y="244" on="0"/>
        <pt x="218" y="298" on="0"/>
        <pt x="238" y="306" on="1"/>
      </contour>
    </TTGlyph>
    <TTGlyph name="afii10050" xMin="70" yMin="0" xMax="554" yMax="790">
      <contour>
        <pt x="299" y="620" on="1"/>
        <pt x="190" y="0" on="1"/>
        <pt x="70" y="0" on="1"/>
        <pt x="193" y="700" on="1"/>
        <pt x="443" y="700" on="1"/>
        <pt x="474" y="790" on="1"/>
        <pt x="554" y="790" on="1"/>
        <pt x="524" y="620" on="1"/>
      </contour>
    </TTGlyph>
    <TTGlyph name="afii10051" xMin="109" yMin="-10" xMax="595" yMax="700">
      <contour>
        <pt x="458" y="245" on="1"/>
        <pt x="478" y="360" on="0"/>
        <pt x="358" y="360" on="1"/>
        <pt x="303" y="360" on="1"/>
        <pt x="240" y="0" on="1"/>
        <pt x="120" y="0" on="1"/>
        <pt x="229" y="620" on="1"/>
        <pt x="109" y="620" on="1"/>
        <pt x="123" y="700" on="1"/>
        <pt x="503" y="700" on="1"/>
        <pt x="489" y="620" on="1"/>
        <pt x="349" y="620" on="1"/>
        <pt x="315" y="430" on="1"/>
        <pt x="335" y="434" on="0"/>
        <pt x="393" y="440" on="0"/>
        <pt x="412" y="440" on="1"/>
        <pt x="510" y="440" on="0"/>
        <pt x="595" y="339" on="0"/>
        <pt x="578" y="245" on="1"/>
        <pt x="563" y="160" on="1"/>
        <pt x="548" y="77" on="0"/>
        <pt x="450" y="-10" on="0"/>
        <pt x="378" y="-10" on="1"/>
        <pt x="355" y="-10" on="0"/>
        <pt x="315" y="-1" on="0"/>
        <pt x="301" y="10" on="1"/>
        <pt x="310" y="60" on="1"/>
        <pt x="360" y="60" on="1"/>
        <pt x="386" y="60" on="0"/>
        <pt x="433" y="107" on="0"/>
        <pt x="443" y="160" on="1"/>
      </contour>
    </TTGlyph>
    <TTGlyph name="afii10052" xMin="70" yMin="0" xMax="538" yMax="880">
      <contour>
        <pt x="327" y="750" on="1"/>
        <pt x="385" y="880" on="1"/>
        <pt x="500" y="880" on="1"/>
        <pt x="402" y="750" on="1"/>
      </contour>
      <contour>
        <pt x="193" y="700" on="1"/>
        <pt x="538" y="700" on="1"/>
        <pt x="524" y="620" on="1"/>
        <pt x="299" y="620" on="1"/>
        <pt x="190" y="0" on="1"/>
        <pt x="70" y="0" on="1"/>
      </contour>
    </TTGlyph>
    <TTGlyph name="afii10053" xMin="88" yMin="-10" xMax="551" yMax="710">
      <contour>
        <pt x="426" y="320" on="1"/>
        <pt x="222" y="320" on="1"/>
        <pt x="210" y="245" on="0"/>
        <pt x="216" y="147" on="0"/>
        <pt x="246" y="88" on="0"/>
        <pt x="297" y="65" on="0"/>
        <pt x="331" y="65" on="1"/>
        <pt x="451" y="65" on="1"/>
        <pt x="441" y="10" on="1"/>
        <pt x="418" y="2" on="0"/>
        <pt x="331" y="-10" on="0"/>
        <pt x="278" y="-10" on="1"/>
        <pt x="220" y="-10" on="0"/>
        <pt x="138" y="24" on="0"/>
        <pt x="93" y="106" on="0"/>
        <pt x="88" y="245" on="0"/>
        <pt x="106" y="350" on="1"/>
        <pt x="125" y="455" on="0"/>
        <pt x="179" y="594" on="0"/>
        <pt x="251" y="676" on="0"/>
        <pt x="341" y="710" on="0"/>
        <pt x="395" y="710" on="1"/>
        <pt x="448" y="710" on="0"/>
        <pt x="530" y="698" on="0"/>
        <pt x="551" y="690" on="1"/>
        <pt x="541" y="635" on="1"/>
        <pt x="421" y="635" on="1"/>
        <pt x="391" y="635" on="0"/>
        <pt x="337" y="614" on="0"/>
        <pt x="291" y="560" on="0"/>
        <pt x="252" y="469" on="0"/>
        <pt x="236" y="400" on="1"/>
        <pt x="440" y="400" on="1"/>
      </contour>
    </TTGlyph>
    <TTGlyph name="afii10054" xMin="36" yMin="-10" xMax="516" yMax="710">
      <contour>
        <pt x="123" y="530" on="1"/>
        <pt x="137" y="613" on="0"/>
        <pt x="258" y="710" on="0"/>
        <pt x="360" y="710" on="1"/>
        <pt x="413" y="710" on="0"/>
        <pt x="495" y="698" on="0"/>
        <pt x="516" y="690" on="1"/>
        <pt x="506" y="635" on="1"/>
        <pt x="366" y="635" on="1"/>
        <pt x="317" y="635" on="0"/>
        <pt x="251" y="579" on="0"/>
        <pt x="243" y="530" on="1"/>
        <pt x="235" y="486" on="0"/>
        <pt x="268" y="434" on="0"/>
        <pt x="325" y="397" on="0"/>
        <pt x="393" y="365" on="0"/>
        <pt x="448" y="316" on="0"/>
        <pt x="477" y="241" on="0"/>
        <pt x="466" y="180" on="1"/>
        <pt x="450" y="90" on="0"/>
        <pt x="320" y="-10" on="0"/>
        <pt x="193" y="-10" on="1"/>
        <pt x="140" y="-10" on="0"/>
        <pt x="58" y="2" on="0"/>
        <pt x="36" y="10" on="1"/>
        <pt x="46" y="65" on="1"/>
        <pt x="186" y="65" on="1"/>
        <pt x="261" y="65" on="0"/>
        <pt x="336" y="123" on="0"/>
        <pt x="346" y="180" on="1"/>
        <pt x="351" y="211" on="0"/>
        <pt x="334" y="253" on="0"/>
        <pt x="300" y="284" on="0"/>
        <pt x="253" y="308" on="0"/>
        <pt x="204" y="334" on="0"/>
        <pt x="159" y="367" on="0"/>
        <pt x="127" y="415" on="0"/>
        <pt x="115" y="482" on="0"/>
      </contour>
    </TTGlyph>
    <TTGlyph name="afii10055" xMin="70" yMin="0" xMax="313" yMax="700">
      <contour>
        <pt x="193" y="700" on="1"/>
        <pt x="313" y="700" on="1"/>
        <pt x="190" y="0" on="1"/>
        <pt x="70" y="0" on="1"/>
      </contour>
    </TTGlyph>
    <TTGlyph name="afii10056" xMin="65" yMin="0" xMax="415" yMax="880">
      <contour>
        <pt x="308" y="700" on="1"/>
        <pt x="185" y="0" on="1"/>
        <pt x="65" y="0" on="1"/>
        <pt x="188" y="700" on="1"/>
      </contour>
      <contour>
        <pt x="255" y="880" on="1"/>
        <pt x="234" y="760" on="1"/>
        <pt x="124" y="760" on="1"/>
        <pt x="145" y="880" on="1"/>
      </contour>
      <contour>
        <pt x="415" y="880" on="1"/>
        <pt x="394" y="760" on="1"/>
        <pt x="284" y="760" on="1"/>
        <pt x="305" y="880" on="1"/>
      </contour>
    </TTGlyph>
    <TTGlyph name="afii10057" xMin="1" yMin="-10" xMax="438" yMax="700">
      <contour>
        <pt x="111" y="65" on="1"/>
        <pt x="132" y="65" on="0"/>
        <pt x="169" y="82" on="0"/>
        <pt x="202" y="122" on="0"/>
        <pt x="228" y="189" on="0"/>
        <pt x="237" y="240" on="1"/>
        <pt x="318" y="700" on="1"/>
        <pt x="438" y="700" on="1"/>
        <pt x="357" y="240" on="1"/>
        <pt x="333" y="105" on="0"/>
        <pt x="207" y="-10" on="0"/>
        <pt x="98" y="-10" on="1"/>
        <pt x="68" y="-10" on="0"/>
        <pt x="19" y="2" on="0"/>
        <pt x="1" y="10" on="1"/>
        <pt x="11" y="65" on="1"/>
      </contour>
    </TTGlyph>
    <TTGlyph name="afii10058" xMin="0" yMin="-10" xMax="831" yMax="700">
      <contour>
        <pt x="645" y="430" on="1"/>
        <pt x="747" y="430" on="0"/>
        <pt x="831" y="322" on="0"/>
        <pt x="811" y="205" on="1"/>
        <pt x="791" y="96" on="0"/>
        <pt x="662" y="-10" on="0"/>
        <pt x="538" y="-10" on="1"/>
        <pt x="481" y="-10" on="0"/>
        <pt x="402" y="-1" on="0"/>
        <pt x="366" y="10" on="1"/>
        <pt x="474" y="620" on="1"/>
        <pt x="345" y="620" on="1"/>
        <pt x="252" y="210" on="1"/>
        <pt x="224" y="90" on="0"/>
        <pt x="128" y="-10" on="0"/>
        <pt x="68" y="-10" on="1"/>
        <pt x="35" y="-10" on="0"/>
        <pt x="17" y="-5" on="1"/>
        <pt x="7" y="-3" on="0"/>
        <pt x="0" y="0" on="1"/>
        <pt x="9" y="55" on="1"/>
        <pt x="46" y="55" on="0"/>
        <pt x="112" y="124" on="0"/>
        <pt x="132" y="210" on="1"/>
        <pt x="243" y="700" on="1"/>
        <pt x="608" y="700" on="1"/>
        <pt x="559" y="420" on="1"/>
        <pt x="568" y="422" on="0"/>
        <pt x="593" y="425" on="0"/>
        <pt x="618" y="428" on="0"/>
        <pt x="639" y="430" on="0"/>
      </contour>
      <contour>
        <pt x="546" y="350" on="1"/>
        <pt x="496" y="65" on="1"/>
        <pt x="551" y="65" on="1"/>
        <pt x="608" y="65" on="0"/>
        <pt x="677" y="130" on="0"/>
        <pt x="691" y="205" on="1"/>
        <pt x="698" y="246" on="0"/>
        <pt x="693" y="302" on="0"/>
        <pt x="670" y="336" on="0"/>
        <pt x="629" y="350" on="0"/>
        <pt x="601" y="350" on="1"/>
      </contour>
    </TTGlyph>
    <TTGlyph name="afii10059" xMin="70" yMin="-10" xMax="851" yMax="700">
      <contour>
        <pt x="647" y="410" on="1"/>
        <pt x="851" y="410" on="0"/>
        <pt x="814" y="195" on="1"/>
        <pt x="796" y="94" on="0"/>
        <pt x="667" y="-10" on="0"/>
        <pt x="543" y="-10" on="1"/>
        <pt x="486" y="-10" on="0"/>
        <pt x="407" y="-1" on="0"/>
        <pt x="371" y="10" on="1"/>
        <pt x="428" y="330" on="1"/>
        <pt x="248" y="330" on="1"/>
        <pt x="190" y="0" on="1"/>
        <pt x="70" y="0" on="1"/>
        <pt x="193" y="700" on="1"/>
        <pt x="313" y="700" on="1"/>
        <pt x="262" y="410" on="1"/>
        <pt x="442" y="410" on="1"/>
        <pt x="493" y="700" on="1"/>
        <pt x="613" y="700" on="1"/>
        <pt x="560" y="400" on="1"/>
        <pt x="570" y="402" on="0"/>
        <pt x="595" y="405" on="0"/>
        <pt x="620" y="408" on="0"/>
        <pt x="641" y="410" on="0"/>
      </contour>
      <contour>
        <pt x="548" y="330" on="1"/>
        <pt x="501" y="65" on="1"/>
        <pt x="556" y="65" on="1"/>
        <pt x="613" y="65" on="0"/>
        <pt x="682" y="127" on="0"/>
        <pt x="694" y="195" on="1"/>
        <pt x="708" y="270" on="0"/>
        <pt x="660" y="330" on="0"/>
        <pt x="603" y="330" on="1"/>
      </contour>
    </TTGlyph>
    <TTGlyph name="afii10060" xMin="109" yMin="0" xMax="596" yMax="700">
      <contour>
        <pt x="413" y="445" on="1"/>
        <pt x="519" y="445" on="0"/>
        <pt x="596" y="351" on="0"/>
        <pt x="578" y="245" on="1"/>
        <pt x="535" y="0" on="1"/>
        <pt x="415" y="0" on="1"/>
        <pt x="458" y="245" on="1"/>
        <pt x="479" y="365" on="0"/>
        <pt x="359" y="365" on="1"/>
        <pt x="304" y="365" on="1"/>
        <pt x="240" y="0" on="1"/>
        <pt x="120" y="0" on="1"/>
        <pt x="229" y="620" on="1"/>
        <pt x="109" y="620" on="1"/>
        <pt x="123" y="700" on="1"/>
        <pt x="503" y="700" on="1"/>
        <pt x="489" y="620" on="1"/>
        <pt x="349" y="620" on="1"/>
        <pt x="316" y="435" on="1"/>
        <pt x="336" y="439" on="0"/>
        <pt x="394" y="445" on="0"/>
      </contour>
    </TTGlyph>
    <TTGlyph name="afii10061" xMin="70" yMin="-10" xMax="628" yMax="870">
      <contour>
        <pt x="374" y="363" on="1"/>
        <pt x="388" y="358" on="0"/>
        <pt x="415" y="341" on="0"/>
        <pt x="436" y="312" on="0"/>
        <pt x="450" y="270" on="0"/>
        <pt x="452" y="240" on="1"/>
        <pt x="459" y="110" on="1"/>
        <pt x="461" y="87" on="0"/>
        <pt x="490" y="55" on="0"/>
        <pt x="524" y="55" on="1"/>
        <pt x="515" y="0" on="1"/>
        <pt x="507" y="-3" on="0"/>
        <pt x="496" y="-5" on="1"/>
        <pt x="476" y="-10" on="0"/>
        <pt x="443" y="-10" on="1"/>
        <pt x="386" y="-10" on="0"/>
        <pt x="337" y="50" on="0"/>
        <pt x="334" y="110" on="1"/>
        <pt x="327" y="240" on="1"/>
        <pt x="324" y="289" on="0"/>
        <pt x="293" y="325" on="0"/>
        <pt x="267" y="325" on="1"/>
        <pt x="247" y="325" on="1"/>
        <pt x="190" y="0" on="1"/>
        <pt x="70" y="0" on="1"/>
        <pt x="193" y="700" on="1"/>
        <pt x="313" y="700" on="1"/>
        <pt x="261" y="405" on="1"/>
        <pt x="281" y="405" on="1"/>
        <pt x="300" y="405" on="0"/>
        <pt x="338" y="441" on="0"/>
        <pt x="361" y="490" on="1"/>
        <pt x="409" y="590" on="1"/>
        <pt x="437" y="650" on="0"/>
        <pt x="504" y="710" on="0"/>
        <pt x="560" y="710" on="1"/>
        <pt x="577" y="710" on="0"/>
        <pt x="603" y="707" on="0"/>
        <pt x="611" y="705" on="1"/>
        <pt x="621" y="702" on="0"/>
        <pt x="628" y="700" on="1"/>
        <pt x="618" y="645" on="1"/>
        <pt x="584" y="645" on="0"/>
        <pt x="546" y="616" on="0"/>
        <pt x="534" y="590" on="1"/>
        <pt x="486" y="490" on="1"/>
        <pt x="472" y="460" on="0"/>
        <pt x="445" y="418" on="0"/>
        <pt x="418" y="389" on="0"/>
        <pt x="390" y="372" on="0"/>
        <pt x="374" y="367" on="1"/>
      </contour>
      <contour>
        <pt x="359" y="740" on="1"/>
        <pt x="417" y="870" on="1"/>
        <pt x="532" y="870" on="1"/>
        <pt x="434" y="740" on="1"/>
      </contour>
    </TTGlyph>
    <TTGlyph name="afii10062" xMin="81" yMin="-10" xMax="598" yMax="875">
      <contour>
        <pt x="188" y="-10" on="1"/>
        <pt x="158" y="-10" on="0"/>
        <pt x="103" y="2" on="0"/>
        <pt x="81" y="10" on="1"/>
        <pt x="91" y="65" on="1"/>
        <pt x="161" y="65" on="1"/>
        <pt x="180" y="65" on="0"/>
        <pt x="212" y="76" on="0"/>
        <pt x="243" y="106" on="0"/>
        <pt x="273" y="159" on="0"/>
        <pt x="290" y="200" on="1"/>
        <pt x="230" y="200" on="0"/>
        <pt x="166" y="267" on="0"/>
        <pt x="161" y="320" on="1"/>
        <pt x="123" y="700" on="1"/>
        <pt x="243" y="700" on="1"/>
        <pt x="280" y="330" on="1"/>
        <pt x="282" y="307" on="0"/>
        <pt x="303" y="280" on="0"/>
        <pt x="319" y="280" on="1"/>
        <pt x="478" y="700" on="1"/>
        <pt x="598" y="700" on="1"/>
        <pt x="393" y="160" on="1"/>
        <pt x="328" y="-10" on="0"/>
      </contour>
      <contour>
        <pt x="391" y="830" on="1"/>
        <pt x="421" y="830" on="0"/>
        <pt x="476" y="860" on="0"/>
        <pt x="494" y="875" on="1"/>
        <pt x="535" y="825" on="1"/>
        <pt x="506" y="787" on="0"/>
        <pt x="425" y="745" on="0"/>
        <pt x="376" y="745" on="1"/>
        <pt x="327" y="745" on="0"/>
        <pt x="261" y="787" on="0"/>
        <pt x="245" y="825" on="1"/>
        <pt x="304" y="875" on="1"/>
        <pt x="316" y="860" on="0"/>
        <pt x="361" y="830" on="0"/>
      </contour>
    </TTGlyph>
    <TTGlyph name="afii10065" xMin="71" yMin="-10" xMax="509" yMax="510">
      <contour>
        <pt x="337" y="440" on="1"/>
        <pt x="314" y="440" on="0"/>
        <pt x="275" y="423" on="0"/>
        <pt x="241" y="380" on="0"/>
        <pt x="214" y="306" on="0"/>
        <pt x="204" y="250" on="1"/>
        <pt x="194" y="194" on="0"/>
        <pt x="195" y="120" on="0"/>
        <pt x="211" y="77" on="0"/>
        <pt x="241" y="60" on="0"/>
        <pt x="260" y="60" on="1"/>
        <pt x="279" y="60" on="0"/>
        <pt x="310" y="72" on="0"/>
        <pt x="319" y="80" on="1"/>
        <pt x="382" y="440" on="1"/>
      </contour>
      <contour>
        <pt x="425" y="0" on="1"/>
        <pt x="340" y="0" on="1"/>
        <pt x="330" y="30" on="1"/>
        <pt x="325" y="30" on="1"/>
        <pt x="306" y="15" on="0"/>
        <pt x="250" y="-10" on="0"/>
        <pt x="208" y="-10" on="1"/>
        <pt x="170" y="-10" on="0"/>
        <pt x="113" y="18" on="0"/>
        <pt x="79" y="80" on="0"/>
        <pt x="71" y="179" on="0"/>
        <pt x="84" y="250" on="1"/>
        <pt x="96" y="321" on="0"/>
        <pt x="140" y="420" on="0"/>
        <pt x="205" y="482" on="0"/>
        <pt x="293" y="510" on="0"/>
        <pt x="349" y="510" on="1"/>
        <pt x="402" y="510" on="0"/>
        <pt x="474" y="495" on="0"/>
        <pt x="509" y="480" on="1"/>
      </contour>
    </TTGlyph>
    <TTGlyph name="afii10066" xMin="68" yMin="-10" xMax="560" yMax="710">
      <contour>
        <pt x="250" y="455" on="1"/>
        <pt x="267" y="466" on="0"/>
        <pt x="314" y="480" on="0"/>
        <pt x="344" y="480" on="1"/>
        <pt x="389" y="480" on="0"/>
        <pt x="455" y="453" on="0"/>
        <pt x="493" y="394" on="0"/>
        <pt x="503" y="301" on="0"/>
        <pt x="491" y="235" on="1"/>
        <pt x="468" y="104" on="0"/>
        <pt x="345" y="-10" on="0"/>
        <pt x="248" y="-10" on="1"/>
        <pt x="150" y="-10" on="0"/>
        <pt x="68" y="104" on="0"/>
        <pt x="91" y="235" on="1"/>
        <pt x="120" y="400" on="1"/>
        <pt x="135" y="484" on="0"/>
        <pt x="183" y="599" on="0"/>
        <pt x="258" y="669" on="0"/>
        <pt x="365" y="702" on="0"/>
        <pt x="439" y="705" on="1"/>
        <pt x="560" y="710" on="1"/>
        <pt x="556" y="660" on="1"/>
        <pt x="527" y="649" on="0"/>
        <pt x="452" y="630" on="0"/>
        <pt x="410" y="625" on="1"/>
        <pt x="375" y="621" on="0"/>
        <pt x="323" y="601" on="0"/>
        <pt x="284" y="562" on="0"/>
        <pt x="258" y="500" on="0"/>
      </contour>
      <contour>
        <pt x="211" y="235" on="1"/>
        <pt x="202" y="182" on="0"/>
        <pt x="203" y="113" on="0"/>
        <pt x="218" y="72" on="0"/>
        <pt x="244" y="55" on="0"/>
        <pt x="259" y="55" on="1"/>
        <pt x="274" y="55" on="0"/>
        <pt x="306" y="72" on="0"/>
        <pt x="336" y="113" on="0"/>
        <pt x="362" y="182" on="0"/>
        <pt x="371" y="235" on="1"/>
        <pt x="380" y="286" on="0"/>
        <pt x="378" y="353" on="0"/>
        <pt x="358" y="393" on="0"/>
        <pt x="324" y="410" on="0"/>
        <pt x="302" y="410" on="1"/>
        <pt x="279" y="410" on="0"/>
        <pt x="247" y="398" on="0"/>
        <pt x="238" y="390" on="1"/>
      </contour>
    </TTGlyph>
    <TTGlyph name="afii10067" xMin="66" yMin="-10" xMax="507" yMax="510">
      <contour>
        <pt x="255" y="60" on="1"/>
        <pt x="272" y="60" on="0"/>
        <pt x="304" y="68" on="0"/>
        <pt x="331" y="88" on="0"/>
        <pt x="351" y="121" on="0"/>
        <pt x="355" y="145" on="1"/>
        <pt x="363" y="190" on="0"/>
        <pt x="318" y="225" on="0"/>
        <pt x="284" y="225" on="1"/>
        <pt x="224" y="225" on="1"/>
        <pt x="195" y="60" on="1"/>
      </contour>
      <contour>
        <pt x="262" y="440" on="1"/>
        <pt x="237" y="295" on="1"/>
        <pt x="287" y="295" on="1"/>
        <pt x="316" y="295" on="0"/>
        <pt x="367" y="327" on="0"/>
        <pt x="374" y="365" on="1"/>
        <pt x="378" y="386" on="0"/>
        <pt x="369" y="414" on="0"/>
        <pt x="351" y="432" on="0"/>
        <pt x="325" y="440" on="0"/>
        <pt x="312" y="440" on="1"/>
      </contour>
      <contour>
        <pt x="151" y="490" on="1"/>
        <pt x="191" y="501" on="0"/>
        <pt x="271" y="510" on="0"/>
        <pt x="324" y="510" on="1"/>
        <pt x="373" y="510" on="0"/>
        <pt x="445" y="497" on="0"/>
        <pt x="490" y="465" on="0"/>
        <pt x="507" y="411" on="0"/>
        <pt x="500" y="370" on="1"/>
        <pt x="495" y="346" on="0"/>
        <pt x="474" y="311" on="0"/>
        <pt x="447" y="287" on="0"/>
        <pt x="416" y="272" on="0"/>
        <pt x="402" y="267" on="1"/>
        <pt x="401" y="263" on="1"/>
        <pt x="417" y="258" on="0"/>
        <pt x="449" y="240" on="0"/>
        <pt x="473" y="210" on="0"/>
        <pt x="484" y="168" on="0"/>
        <pt x="479" y="140" on="1"/>
        <pt x="471" y="95" on="0"/>
        <pt x="435" y="37" on="0"/>
        <pt x="376" y="3" on="0"/>
        <pt x="295" y="-10" on="0"/>
        <pt x="243" y="-10" on="1"/>
        <pt x="183" y="-10" on="0"/>
        <pt x="102" y="-1" on="0"/>
        <pt x="66" y="10" on="1"/>
      </contour>
    </TTGlyph>
    <TTGlyph name="afii10068" xMin="46" yMin="-10" xMax="457" yMax="510">
      <contour>
        <pt x="332" y="380" on="1"/>
        <pt x="337" y="410" on="0"/>
        <pt x="289" y="440" on="0"/>
        <pt x="247" y="440" on="1"/>
        <pt x="137" y="440" on="1"/>
        <pt x="146" y="490" on="1"/>
        <pt x="170" y="498" on="0"/>
        <pt x="241" y="510" on="0"/>
        <pt x="279" y="510" on="1"/>
        <pt x="326" y="510" on="0"/>
        <pt x="396" y="497" on="0"/>
        <pt x="441" y="465" on="0"/>
        <pt x="457" y="411" on="0"/>
        <pt x="450" y="370" on="1"/>
        <pt x="443" y="327" on="0"/>
        <pt x="398" y="273" on="0"/>
        <pt x="340" y="238" on="0"/>
        <pt x="274" y="214" on="0"/>
        <pt x="217" y="189" on="0"/>
        <pt x="177" y="156" on="0"/>
        <pt x="172" y="130" on="1"/>
        <pt x="166" y="92" on="0"/>
        <pt x="218" y="60" on="0"/>
        <pt x="275" y="60" on="1"/>
        <pt x="385" y="60" on="1"/>
        <pt x="376" y="10" on="1"/>
        <pt x="353" y="2" on="0"/>
        <pt x="281" y="-10" on="0"/>
        <pt x="243" y="-10" on="1"/>
        <pt x="189" y="-10" on="0"/>
        <pt x="110" y="3" on="0"/>
        <pt x="62" y="37" on="0"/>
        <pt x="46" y="95" on="0"/>
        <pt x="54" y="140" on="1"/>
        <pt x="61" y="183" on="0"/>
        <pt x="106" y="237" on="0"/>
        <pt x="164" y="272" on="0"/>
        <pt x="230" y="296" on="0"/>
        <pt x="287" y="321" on="0"/>
        <pt x="327" y="354" on="0"/>
      </contour>
    </TTGlyph>
    <TTGlyph name="afii10069" xMin="57" yMin="-10" xMax="519" yMax="710">
      <contour>
        <pt x="210" y="710" on="1"/>
        <pt x="290" y="706" on="0"/>
        <pt x="413" y="663" on="0"/>
        <pt x="491" y="579" on="0"/>
        <pt x="519" y="450" on="0"/>
        <pt x="503" y="360" on="1"/>
        <pt x="477" y="215" on="1"/>
        <pt x="457" y="98" on="0"/>
        <pt x="336" y="-10" on="0"/>
        <pt x="238" y="-10" on="1"/>
        <pt x="140" y="-10" on="0"/>
        <pt x="57" y="100" on="0"/>
        <pt x="78" y="220" on="1"/>
        <pt x="100" y="340" on="0"/>
        <pt x="219" y="450" on="0"/>
        <pt x="309" y="450" on="1"/>
        <pt x="339" y="450" on="0"/>
        <pt x="381" y="436" on="0"/>
        <pt x="394" y="425" on="1"/>
        <pt x="400" y="479" on="0"/>
        <pt x="369" y="558" on="0"/>
        <pt x="311" y="611" on="0"/>
        <pt x="233" y="642" on="0"/>
        <pt x="193" y="650" on="1"/>
      </contour>
      <contour>
        <pt x="383" y="360" on="1"/>
        <pt x="377" y="368" on="0"/>
        <pt x="350" y="380" on="0"/>
        <pt x="327" y="380" on="1"/>
        <pt x="282" y="380" on="0"/>
        <pt x="214" y="310" on="0"/>
        <pt x="198" y="220" on="1"/>
        <pt x="190" y="173" on="0"/>
        <pt x="192" y="110" on="0"/>
        <pt x="208" y="71" on="0"/>
        <pt x="234" y="55" on="0"/>
        <pt x="249" y="55" on="1"/>
        <pt x="264" y="55" on="0"/>
        <pt x="296" y="71" on="0"/>
        <pt x="325" y="109" on="0"/>
        <pt x="349" y="170" on="0"/>
        <pt x="357" y="215" on="1"/>
      </contour>
    </TTGlyph>
    <TTGlyph name="afii10070" xMin="71" yMin="-10" xMax="510" yMax="510">
      <contour>
        <pt x="196" y="205" on="1"/>
        <pt x="182" y="126" on="0"/>
        <pt x="231" y="60" on="0"/>
        <pt x="295" y="60" on="1"/>
        <pt x="405" y="60" on="1"/>
        <pt x="396" y="10" on="1"/>
        <pt x="373" y="2" on="0"/>
        <pt x="301" y="-10" on="0"/>
        <pt x="263" y="-10" on="1"/>
        <pt x="205" y="-10" on="0"/>
        <pt x="125" y="18" on="0"/>
        <pt x="80" y="80" on="0"/>
        <pt x="71" y="179" on="0"/>
        <pt x="84" y="250" on="1"/>
        <pt x="96" y="321" on="0"/>
        <pt x="140" y="420" on="0"/>
        <pt x="203" y="482" on="0"/>
        <pt x="286" y="510" on="0"/>
        <pt x="339" y="510" on="1"/>
        <pt x="426" y="510" on="0"/>
        <pt x="510" y="427" on="0"/>
        <pt x="497" y="355" on="1"/>
        <pt x="483" y="280" on="0"/>
        <pt x="370" y="205" on="0"/>
        <pt x="276" y="205" on="1"/>
      </contour>
      <contour>
        <pt x="288" y="275" on="1"/>
        <pt x="322" y="275" on="0"/>
        <pt x="370" y="317" on="0"/>
        <pt x="377" y="355" on="1"/>
        <pt x="385" y="400" on="0"/>
        <pt x="353" y="445" on="0"/>
        <pt x="323" y="445" on="1"/>
        <pt x="302" y="445" on="0"/>
        <pt x="268" y="431" on="0"/>
        <pt x="240" y="394" on="0"/>
        <pt x="217" y="327" on="0"/>
        <pt x="208" y="275" on="1"/>
      </contour>
    </TTGlyph>
    <TTGlyph name="afii10071" xMin="71" yMin="-10" xMax="510" yMax="680">
      <contour>
        <pt x="324" y="680" on="1"/>
        <pt x="303" y="560" on="1"/>
        <pt x="193" y="560" on="1"/>
        <pt x="214" y="680" on="1"/>
      </contour>
      <contour>
        <pt x="484" y="680" on="1"/>
        <pt x="463" y="560" on="1"/>
        <pt x="353" y="560" on="1"/>
        <pt x="374" y="680" on="1"/>
      </contour>
      <contour>
        <pt x="196" y="205" on="1"/>
        <pt x="182" y="126" on="0"/>
        <pt x="231" y="60" on="0"/>
        <pt x="295" y="60" on="1"/>
        <pt x="405" y="60" on="1"/>
        <pt x="396" y="10" on="1"/>
        <pt x="373" y="2" on="0"/>
        <pt x="301" y="-10" on="0"/>
        <pt x="263" y="-10" on="1"/>
        <pt x="205" y="-10" on="0"/>
        <pt x="125" y="18" on="0"/>
        <pt x="80" y="80" on="0"/>
        <pt x="71" y="179" on="0"/>
        <pt x="84" y="250" on="1"/>
        <pt x="96" y="321" on="0"/>
        <pt x="140" y="420" on="0"/>
        <pt x="203" y="482" on="0"/>
        <pt x="286" y="510" on="0"/>
        <pt x="339" y="510" on="1"/>
        <pt x="426" y="510" on="0"/>
        <pt x="510" y="427" on="0"/>
        <pt x="497" y="355" on="1"/>
        <pt x="483" y="280" on="0"/>
        <pt x="370" y="205" on="0"/>
        <pt x="276" y="205" on="1"/>
      </contour>
      <contour>
        <pt x="288" y="275" on="1"/>
        <pt x="322" y="275" on="0"/>
        <pt x="370" y="317" on="0"/>
        <pt x="377" y="355" on="1"/>
        <pt x="385" y="400" on="0"/>
        <pt x="353" y="445" on="0"/>
        <pt x="323" y="445" on="1"/>
        <pt x="302" y="445" on="0"/>
        <pt x="268" y="431" on="0"/>
        <pt x="240" y="394" on="0"/>
        <pt x="217" y="327" on="0"/>
        <pt x="208" y="275" on="1"/>
      </contour>
    </TTGlyph>
    <TTGlyph name="afii10072" xMin="10" yMin="-10" xMax="738" yMax="510">
      <contour>
        <pt x="483" y="500" on="1"/>
        <pt x="447" y="300" on="1"/>
        <pt x="452" y="300" on="1"/>
        <pt x="463" y="300" on="0"/>
        <pt x="487" y="321" on="0"/>
        <pt x="507" y="355" on="1"/>
        <pt x="550" y="430" on="1"/>
        <pt x="572" y="468" on="0"/>
        <pt x="629" y="510" on="0"/>
        <pt x="674" y="510" on="1"/>
        <pt x="687" y="510" on="0"/>
        <pt x="710" y="507" on="0"/>
        <pt x="719" y="505" on="1"/>
        <pt x="730" y="502" on="0"/>
        <pt x="738" y="500" on="1"/>
        <pt x="729" y="450" on="1"/>
        <pt x="703" y="450" on="0"/>
        <pt x="675" y="431" on="0"/>
        <pt x="669" y="420" on="1"/>
        <pt x="632" y="355" on="1"/>
        <pt x="609" y="313" on="0"/>
        <pt x="565" y="273" on="0"/>
        <pt x="541" y="267" on="1"/>
        <pt x="540" y="263" on="1"/>
        <pt x="566" y="257" on="0"/>
        <pt x="606" y="215" on="0"/>
        <pt x="609" y="170" on="1"/>
        <pt x="615" y="90" on="1"/>
        <pt x="617" y="75" on="0"/>
        <pt x="642" y="50" on="0"/>
        <pt x="668" y="50" on="1"/>
        <pt x="660" y="0" on="1"/>
        <pt x="651" y="-3" on="0"/>
        <pt x="640" y="-5" on="1"/>
        <pt x="620" y="-10" on="0"/>
        <pt x="593" y="-10" on="1"/>
        <pt x="544" y="-10" on="0"/>
        <pt x="496" y="37" on="0"/>
        <pt x="493" y="75" on="1"/>
        <pt x="484" y="170" on="1"/>
        <pt x="482" y="196" on="0"/>
        <pt x="458" y="225" on="0"/>
        <pt x="439" y="225" on="1"/>
        <pt x="434" y="225" on="1"/>
        <pt x="395" y="0" on="1"/>
        <pt x="275" y="0" on="1"/>
        <pt x="314" y="225" on="1"/>
        <pt x="309" y="225" on="1"/>
        <pt x="269" y="225" on="0"/>
        <pt x="244" y="170" on="1"/>
        <pt x="203" y="75" on="1"/>
        <pt x="186" y="37" on="0"/>
        <pt x="122" y="-10" on="0"/>
        <pt x="73" y="-10" on="1"/>
        <pt x="46" y="-10" on="0"/>
        <pt x="28" y="-5" on="1"/>
        <pt x="18" y="-3" on="0"/>
        <pt x="10" y="0" on="1"/>
        <pt x="18" y="50" on="1"/>
        <pt x="44" y="50" on="0"/>
        <pt x="79" y="75" on="0"/>
        <pt x="85" y="90" on="1"/>
        <pt x="119" y="170" on="1"/>
        <pt x="139" y="215" on="0"/>
        <pt x="193" y="257" on="0"/>
        <pt x="222" y="263" on="1"/>
        <pt x="223" y="267" on="1"/>
        <pt x="200" y="273" on="0"/>
        <pt x="170" y="313" on="0"/>
        <pt x="162" y="355" on="1"/>
        <pt x="149" y="420" on="1"/>
        <pt x="146" y="431" on="0"/>
        <pt x="125" y="450" on="0"/>
        <pt x="99" y="450" on="1"/>
        <pt x="108" y="500" on="1"/>
        <pt x="128" y="505" on="1"/>
        <pt x="137" y="507" on="0"/>
        <pt x="160" y="510" on="0"/>
        <pt x="174" y="510" on="1"/>
        <pt x="219" y="510" on="0"/>
        <pt x="262" y="468" on="0"/>
        <pt x="270" y="430" on="1"/>
        <pt x="287" y="355" on="1"/>
        <pt x="295" y="321" on="0"/>
        <pt x="311" y="300" on="0"/>
        <pt x="322" y="300" on="1"/>
        <pt x="327" y="300" on="1"/>
        <pt x="363" y="500" on="1"/>
      </contour>
    </TTGlyph>
    <TTGlyph name="afii10073" xMin="16" yMin="-10" xMax="433" yMax="510">
      <contour>
        <pt x="394" y="140" on="1"/>
        <pt x="386" y="95" on="0"/>
        <pt x="349" y="37" on="0"/>
        <pt x="288" y="3" on="0"/>
        <pt x="201" y="-10" on="0"/>
        <pt x="143" y="-10" on="1"/>
        <pt x="105" y="-10" on="0"/>
        <pt x="38" y="2" on="0"/>
        <pt x="16" y="10" on="1"/>
        <pt x="25" y="60" on="1"/>
        <pt x="155" y="60" on="1"/>
        <pt x="200" y="60" on="0"/>
        <pt x="262" y="96" on="0"/>
        <pt x="270" y="145" on="1"/>
        <pt x="274" y="167" on="0"/>
        <pt x="266" y="198" on="0"/>
        <pt x="246" y="217" on="0"/>
        <pt x="219" y="225" on="0"/>
        <pt x="204" y="225" on="1"/>
        <pt x="119" y="225" on="1"/>
        <pt x="132" y="295" on="1"/>
        <pt x="207" y="295" on="1"/>
        <pt x="237" y="295" on="0"/>
        <pt x="292" y="328" on="0"/>
        <pt x="300" y="370" on="1"/>
        <pt x="307" y="408" on="0"/>
        <pt x="257" y="440" on="0"/>
        <pt x="212" y="440" on="1"/>
        <pt x="102" y="440" on="1"/>
        <pt x="111" y="490" on="1"/>
        <pt x="135" y="498" on="0"/>
        <pt x="206" y="510" on="0"/>
        <pt x="244" y="510" on="1"/>
        <pt x="295" y="510" on="0"/>
        <pt x="369" y="497" on="0"/>
        <pt x="416" y="466" on="0"/>
        <pt x="433" y="414" on="0"/>
        <pt x="426" y="375" on="1"/>
        <pt x="421" y="349" on="0"/>
        <pt x="399" y="312" on="0"/>
        <pt x="369" y="287" on="0"/>
        <pt x="335" y="272" on="0"/>
        <pt x="317" y="267" on="1"/>
        <pt x="316" y="263" on="1"/>
        <pt x="332" y="258" on="0"/>
        <pt x="364" y="240" on="0"/>
        <pt x="388" y="210" on="0"/>
        <pt x="399" y="168" on="0"/>
      </contour>
    </TTGlyph>
    <TTGlyph name="afii10074" xMin="82" yMin="-10" xMax="528" yMax="500">
      <contour>
        <pt x="218" y="-10" on="1"/>
        <pt x="186" y="-10" on="0"/>
        <pt x="132" y="3" on="0"/>
        <pt x="96" y="39" on="0"/>
        <pt x="82" y="101" on="0"/>
        <pt x="91" y="150" on="1"/>
        <pt x="153" y="500" on="1"/>
        <pt x="273" y="500" on="1"/>
        <pt x="211" y="150" on="1"/>
        <pt x="206" y="124" on="0"/>
        <pt x="214" y="89" on="0"/>
        <pt x="233" y="68" on="0"/>
        <pt x="260" y="60" on="0"/>
        <pt x="275" y="60" on="1"/>
        <pt x="294" y="60" on="0"/>
        <pt x="325" y="72" on="0"/>
        <pt x="334" y="80" on="1"/>
        <pt x="408" y="500" on="1"/>
        <pt x="528" y="500" on="1"/>
        <pt x="440" y="0" on="1"/>
        <pt x="355" y="0" on="1"/>
        <pt x="345" y="30" on="1"/>
        <pt x="340" y="30" on="1"/>
        <pt x="321" y="15" on="0"/>
        <pt x="263" y="-10" on="0"/>
      </contour>
    </TTGlyph>
    <TTGlyph name="afii10075" xMin="82" yMin="-10" xMax="528" yMax="680">
      <contour>
        <pt x="362" y="640" on="1"/>
        <pt x="392" y="640" on="0"/>
        <pt x="442" y="665" on="0"/>
        <pt x="459" y="680" on="1"/>
        <pt x="501" y="630" on="1"/>
        <pt x="472" y="596" on="0"/>
        <pt x="396" y="555" on="0"/>
        <pt x="347" y="555" on="1"/>
        <pt x="298" y="555" on="0"/>
        <pt x="238" y="596" on="0"/>
        <pt x="221" y="630" on="1"/>
        <pt x="279" y="680" on="1"/>
        <pt x="292" y="665" on="0"/>
        <pt x="332" y="640" on="0"/>
      </contour>
      <contour>
        <pt x="218" y="-10" on="1"/>
        <pt x="186" y="-10" on="0"/>
        <pt x="132" y="3" on="0"/>
        <pt x="96" y="39" on="0"/>
        <pt x="82" y="101" on="0"/>
        <pt x="91" y="150" on="1"/>
        <pt x="153" y="500" on="1"/>
        <pt x="273" y="500" on="1"/>
        <pt x="211" y="150" on="1"/>
        <pt x="206" y="124" on="0"/>
        <pt x="214" y="89" on="0"/>
        <pt x="233" y="68" on="0"/>
        <pt x="260" y="60" on="0"/>
        <pt x="275" y="60" on="1"/>
        <pt x="294" y="60" on="0"/>
        <pt x="325" y="72" on="0"/>
        <pt x="334" y="80" on="1"/>
        <pt x="408" y="500" on="1"/>
        <pt x="528" y="500" on="1"/>
        <pt x="440" y="0" on="1"/>
        <pt x="355" y="0" on="1"/>
        <pt x="345" y="30" on="1"/>
        <pt x="340" y="30" on="1"/>
        <pt x="321" y="15" on="0"/>
        <pt x="263" y="-10" on="0"/>
      </contour>
    </TTGlyph>
    <TTGlyph name="afii10076" xMin="65" yMin="-10" xMax="538" yMax="510">
      <contour>
        <pt x="340" y="263" on="1"/>
        <pt x="366" y="257" on="0"/>
        <pt x="406" y="215" on="0"/>
        <pt x="409" y="170" on="1"/>
        <pt x="415" y="90" on="1"/>
        <pt x="417" y="75" on="0"/>
        <pt x="442" y="50" on="0"/>
        <pt x="468" y="50" on="1"/>
        <pt x="460" y="0" on="1"/>
        <pt x="451" y="-3" on="0"/>
        <pt x="440" y="-5" on="1"/>
        <pt x="420" y="-10" on="0"/>
        <pt x="393" y="-10" on="1"/>
        <pt x="344" y="-10" on="0"/>
        <pt x="296" y="37" on="0"/>
        <pt x="293" y="75" on="1"/>
        <pt x="284" y="170" on="1"/>
        <pt x="282" y="196" on="0"/>
        <pt x="258" y="225" on="0"/>
        <pt x="239" y="225" on="1"/>
        <pt x="224" y="225" on="1"/>
        <pt x="185" y="0" on="1"/>
        <pt x="65" y="0" on="1"/>
        <pt x="153" y="500" on="1"/>
        <pt x="273" y="500" on="1"/>
        <pt x="237" y="300" on="1"/>
        <pt x="252" y="300" on="1"/>
        <pt x="263" y="300" on="0"/>
        <pt x="287" y="321" on="0"/>
        <pt x="307" y="355" on="1"/>
        <pt x="350" y="430" on="1"/>
        <pt x="372" y="468" on="0"/>
        <pt x="429" y="510" on="0"/>
        <pt x="474" y="510" on="1"/>
        <pt x="487" y="510" on="0"/>
        <pt x="510" y="507" on="0"/>
        <pt x="519" y="505" on="1"/>
        <pt x="530" y="502" on="0"/>
        <pt x="538" y="500" on="1"/>
        <pt x="529" y="450" on="1"/>
        <pt x="503" y="450" on="0"/>
        <pt x="475" y="431" on="0"/>
        <pt x="469" y="420" on="1"/>
        <pt x="432" y="355" on="1"/>
        <pt x="409" y="313" on="0"/>
        <pt x="365" y="273" on="0"/>
        <pt x="341" y="267" on="1"/>
      </contour>
    </TTGlyph>
    <TTGlyph name="afii10077" xMin="0" yMin="-10" xMax="523" yMax="500">
      <contour>
        <pt x="523" y="500" on="1"/>
        <pt x="435" y="0" on="1"/>
        <pt x="315" y="0" on="1"/>
        <pt x="389" y="425" on="1"/>
        <pt x="285" y="425" on="1"/>
        <pt x="223" y="160" on="1"/>
        <pt x="202" y="73" on="0"/>
        <pt x="116" y="-10" on="0"/>
        <pt x="63" y="-10" on="1"/>
        <pt x="37" y="-10" on="0"/>
        <pt x="1" y="0" on="0"/>
        <pt x="0" y="0" on="1"/>
        <pt x="8" y="50" on="1"/>
        <pt x="34" y="50" on="0"/>
        <pt x="89" y="100" on="0"/>
        <pt x="103" y="160" on="1"/>
        <pt x="183" y="500" on="1"/>
      </contour>
    </TTGlyph>
    <TTGlyph name="afii10078" xMin="50" yMin="0" xMax="663" yMax="500">
      <contour>
        <pt x="293" y="75" on="1"/>
        <pt x="246" y="315" on="1"/>
        <pt x="242" y="315" on="1"/>
        <pt x="165" y="0" on="1"/>
        <pt x="50" y="0" on="1"/>
        <pt x="173" y="500" on="1"/>
        <pt x="303" y="500" on="1"/>
        <pt x="362" y="195" on="1"/>
        <pt x="366" y="195" on="1"/>
        <pt x="533" y="500" on="1"/>
        <pt x="663" y="500" on="1"/>
        <pt x="610" y="0" on="1"/>
        <pt x="495" y="0" on="1"/>
        <pt x="528" y="315" on="1"/>
        <pt x="524" y="315" on="1"/>
        <pt x="393" y="75" on="1"/>
      </contour>
    </TTGlyph>
    <TTGlyph name="afii10079" xMin="65" yMin="0" xMax="528" yMax="500">
      <contour>
        <pt x="185" y="0" on="1"/>
        <pt x="65" y="0" on="1"/>
        <pt x="153" y="500" on="1"/>
        <pt x="273" y="500" on="1"/>
        <pt x="236" y="290" on="1"/>
        <pt x="371" y="290" on="1"/>
        <pt x="408" y="500" on="1"/>
        <pt x="528" y="500" on="1"/>
        <pt x="440" y="0" on="1"/>
        <pt x="320" y="0" on="1"/>
        <pt x="357" y="215" on="1"/>
        <pt x="222" y="215" on="1"/>
      </contour>
    </TTGlyph>
    <TTGlyph name="afii10080" xMin="71" yMin="-10" xMax="496" yMax="510">
      <contour>
        <pt x="318" y="445" on="1"/>
        <pt x="301" y="445" on="0"/>
        <pt x="269" y="428" on="0"/>
        <pt x="240" y="384" on="0"/>
        <pt x="214" y="308" on="0"/>
        <pt x="204" y="250" on="1"/>
        <pt x="193" y="192" on="0"/>
        <pt x="192" y="116" on="0"/>
        <pt x="206" y="72" on="0"/>
        <pt x="232" y="55" on="0"/>
        <pt x="249" y="55" on="1"/>
        <pt x="266" y="55" on="0"/>
        <pt x="298" y="72" on="0"/>
        <pt x="328" y="116" on="0"/>
        <pt x="353" y="192" on="0"/>
        <pt x="364" y="250" on="1"/>
        <pt x="374" y="308" on="0"/>
        <pt x="375" y="384" on="0"/>
        <pt x="361" y="428" on="0"/>
        <pt x="335" y="445" on="0"/>
      </contour>
      <contour>
        <pt x="329" y="510" on="1"/>
        <pt x="378" y="510" on="0"/>
        <pt x="448" y="482" on="0"/>
        <pt x="488" y="420" on="0"/>
        <pt x="496" y="321" on="0"/>
        <pt x="484" y="250" on="1"/>
        <pt x="471" y="179" on="0"/>
        <pt x="428" y="80" on="0"/>
        <pt x="366" y="18" on="0"/>
        <pt x="287" y="-10" on="0"/>
        <pt x="238" y="-10" on="1"/>
        <pt x="189" y="-10" on="0"/>
        <pt x="119" y="18" on="0"/>
        <pt x="80" y="80" on="0"/>
        <pt x="71" y="179" on="0"/>
        <pt x="84" y="250" on="1"/>
        <pt x="96" y="321" on="0"/>
        <pt x="139" y="420" on="0"/>
        <pt x="201" y="482" on="0"/>
        <pt x="280" y="510" on="0"/>
      </contour>
    </TTGlyph>
    <TTGlyph name="afii10081" xMin="65" yMin="0" xMax="510" yMax="510">
      <contour>
        <pt x="374" y="510" on="1"/>
        <pt x="406" y="510" on="0"/>
        <pt x="460" y="497" on="0"/>
        <pt x="496" y="461" on="0"/>
        <pt x="510" y="399" on="0"/>
        <pt x="501" y="350" on="1"/>
        <pt x="440" y="0" on="1"/>
        <pt x="320" y="0" on="1"/>
        <pt x="381" y="350" on="1"/>
        <pt x="386" y="376" on="0"/>
        <pt x="378" y="411" on="0"/>
        <pt x="359" y="432" on="0"/>
        <pt x="332" y="440" on="0"/>
        <pt x="317" y="440" on="1"/>
        <pt x="298" y="440" on="0"/>
        <pt x="267" y="428" on="0"/>
        <pt x="259" y="420" on="1"/>
        <pt x="185" y="0" on="1"/>
        <pt x="65" y="0" on="1"/>
        <pt x="153" y="500" on="1"/>
        <pt x="238" y="500" on="1"/>
        <pt x="247" y="470" on="1"/>
        <pt x="252" y="470" on="1"/>
        <pt x="271" y="485" on="0"/>
        <pt x="329" y="510" on="0"/>
      </contour>
    </TTGlyph>
    <TTGlyph name="afii10082" xMin="29" yMin="-200" xMax="506" yMax="510">
      <contour>
        <pt x="199" y="80" on="1"/>
        <pt x="205" y="72" on="0"/>
        <pt x="231" y="60" on="0"/>
        <pt x="250" y="60" on="1"/>
        <pt x="269" y="60" on="0"/>
        <pt x="305" y="77" on="0"/>
        <pt x="337" y="120" on="0"/>
        <pt x="364" y="194" on="0"/>
        <pt x="374" y="250" on="1"/>
        <pt x="384" y="306" on="0"/>
        <pt x="382" y="380" on="0"/>
        <pt x="366" y="423" on="0"/>
        <pt x="336" y="440" on="0"/>
        <pt x="317" y="440" on="1"/>
        <pt x="298" y="440" on="0"/>
        <pt x="271" y="428" on="0"/>
        <pt x="259" y="420" on="1"/>
      </contour>
      <contour>
        <pt x="369" y="510" on="1"/>
        <pt x="406" y="510" on="0"/>
        <pt x="464" y="482" on="0"/>
        <pt x="499" y="420" on="0"/>
        <pt x="506" y="321" on="0"/>
        <pt x="494" y="250" on="1"/>
        <pt x="481" y="179" on="0"/>
        <pt x="438" y="80" on="0"/>
        <pt x="381" y="18" on="0"/>
        <pt x="309" y="-10" on="0"/>
        <pt x="268" y="-10" on="1"/>
        <pt x="242" y="-10" on="0"/>
        <pt x="201" y="4" on="0"/>
        <pt x="187" y="15" on="1"/>
        <pt x="149" y="-200" on="1"/>
        <pt x="29" y="-200" on="1"/>
        <pt x="153" y="500" on="1"/>
        <pt x="238" y="500" on="1"/>
        <pt x="247" y="470" on="1"/>
        <pt x="252" y="470" on="1"/>
        <pt x="271" y="485" on="0"/>
        <pt x="327" y="510" on="0"/>
      </contour>
    </TTGlyph>
    <TTGlyph name="afii10083" xMin="71" yMin="-10" xMax="456" yMax="510">
      <contour>
        <pt x="337" y="440" on="1"/>
        <pt x="314" y="440" on="0"/>
        <pt x="275" y="423" on="0"/>
        <pt x="241" y="380" on="0"/>
        <pt x="214" y="306" on="0"/>
        <pt x="204" y="250" on="1"/>
        <pt x="194" y="194" on="0"/>
        <pt x="195" y="120" on="0"/>
        <pt x="216" y="77" on="0"/>
        <pt x="254" y="60" on="0"/>
        <pt x="280" y="60" on="1"/>
        <pt x="390" y="60" on="1"/>
        <pt x="381" y="10" on="1"/>
        <pt x="358" y="2" on="0"/>
        <pt x="286" y="-10" on="0"/>
        <pt x="248" y="-10" on="1"/>
        <pt x="195" y="-10" on="0"/>
        <pt x="122" y="18" on="0"/>
        <pt x="80" y="80" on="0"/>
        <pt x="71" y="179" on="0"/>
        <pt x="84" y="250" on="1"/>
        <pt x="96" y="321" on="0"/>
        <pt x="139" y="420" on="0"/>
        <pt x="201" y="482" on="0"/>
        <pt x="280" y="510" on="0"/>
        <pt x="329" y="510" on="1"/>
        <pt x="367" y="510" on="0"/>
        <pt x="435" y="498" on="0"/>
        <pt x="456" y="490" on="1"/>
        <pt x="447" y="440" on="1"/>
      </contour>
    </TTGlyph>
    <TTGlyph name="afii10084" xMin="65" yMin="0" xMax="745" yMax="510">
      <contour>
        <pt x="430" y="0" on="1"/>
        <pt x="310" y="0" on="1"/>
        <pt x="371" y="350" on="1"/>
        <pt x="376" y="376" on="0"/>
        <pt x="369" y="411" on="0"/>
        <pt x="352" y="432" on="0"/>
        <pt x="328" y="440" on="0"/>
        <pt x="317" y="440" on="1"/>
        <pt x="298" y="440" on="0"/>
        <pt x="267" y="428" on="0"/>
        <pt x="259" y="420" on="1"/>
        <pt x="185" y="0" on="1"/>
        <pt x="65" y="0" on="1"/>
        <pt x="153" y="500" on="1"/>
        <pt x="238" y="500" on="1"/>
        <pt x="247" y="470" on="1"/>
        <pt x="252" y="470" on="1"/>
        <pt x="271" y="485" on="0"/>
        <pt x="329" y="510" on="0"/>
        <pt x="374" y="510" on="1"/>
        <pt x="412" y="510" on="0"/>
        <pt x="462" y="489" on="0"/>
        <pt x="477" y="470" on="1"/>
        <pt x="503" y="489" on="0"/>
        <pt x="569" y="510" on="0"/>
        <pt x="614" y="510" on="1"/>
        <pt x="644" y="510" on="0"/>
        <pt x="696" y="497" on="0"/>
        <pt x="731" y="461" on="0"/>
        <pt x="745" y="399" on="0"/>
        <pt x="736" y="350" on="1"/>
        <pt x="675" y="0" on="1"/>
        <pt x="555" y="0" on="1"/>
        <pt x="616" y="350" on="1"/>
        <pt x="621" y="376" on="0"/>
        <pt x="613" y="411" on="0"/>
        <pt x="595" y="432" on="0"/>
        <pt x="570" y="440" on="0"/>
        <pt x="557" y="440" on="1"/>
        <pt x="538" y="440" on="0"/>
        <pt x="507" y="431" on="0"/>
        <pt x="494" y="425" on="1"/>
        <pt x="496" y="414" on="0"/>
        <pt x="496" y="373" on="0"/>
        <pt x="491" y="350" on="1"/>
      </contour>
    </TTGlyph>
    <TTGlyph name="afii10085" xMin="36" yMin="-210" xMax="533" yMax="500">
      <contour>
        <pt x="418" y="500" on="1"/>
        <pt x="533" y="500" on="1"/>
        <pt x="348" y="-10" on="1"/>
        <pt x="310" y="-116" on="0"/>
        <pt x="204" y="-210" on="0"/>
        <pt x="132" y="-210" on="1"/>
        <pt x="102" y="-210" on="0"/>
        <pt x="53" y="-198" on="0"/>
        <pt x="36" y="-190" on="1"/>
        <pt x="45" y="-140" on="1"/>
        <pt x="110" y="-140" on="1"/>
        <pt x="129" y="-140" on="0"/>
        <pt x="161" y="-129" on="0"/>
        <pt x="190" y="-100" on="0"/>
        <pt x="218" y="-49" on="0"/>
        <pt x="233" y="-10" on="1"/>
        <pt x="188" y="-10" on="0"/>
        <pt x="132" y="57" on="0"/>
        <pt x="129" y="110" on="1"/>
        <pt x="108" y="500" on="1"/>
        <pt x="223" y="500" on="1"/>
        <pt x="244" y="110" on="1"/>
        <pt x="245" y="87" on="0"/>
        <pt x="254" y="80" on="1"/>
        <pt x="258" y="76" on="0"/>
        <pt x="263" y="75" on="1"/>
      </contour>
    </TTGlyph>
    <TTGlyph name="afii10086" xMin="57" yMin="-200" xMax="650" yMax="700">
      <contour>
        <pt x="381" y="65" on="1"/>
        <pt x="402" y="69" on="0"/>
        <pt x="441" y="90" on="0"/>
        <pt x="474" y="132" on="0"/>
        <pt x="500" y="199" on="0"/>
        <pt x="509" y="250" on="1"/>
        <pt x="518" y="301" on="0"/>
        <pt x="515" y="368" on="0"/>
        <pt x="497" y="410" on="0"/>
        <pt x="466" y="431" on="0"/>
        <pt x="446" y="435" on="1"/>
      </contour>
      <contour>
        <pt x="493" y="700" on="1"/>
        <pt x="459" y="505" on="1"/>
        <pt x="558" y="494" on="0"/>
        <pt x="650" y="370" on="0"/>
        <pt x="629" y="250" on="1"/>
        <pt x="607" y="129" on="0"/>
        <pt x="472" y="6" on="0"/>
        <pt x="369" y="-5" on="1"/>
        <pt x="334" y="-200" on="1"/>
        <pt x="214" y="-200" on="1"/>
        <pt x="249" y="-5" on="1"/>
        <pt x="149" y="6" on="0"/>
        <pt x="57" y="130" on="0"/>
        <pt x="79" y="250" on="1"/>
        <pt x="100" y="370" on="0"/>
        <pt x="235" y="494" on="0"/>
        <pt x="339" y="505" on="1"/>
        <pt x="373" y="700" on="1"/>
      </contour>
      <contour>
        <pt x="326" y="435" on="1"/>
        <pt x="305" y="431" on="0"/>
        <pt x="266" y="410" on="0"/>
        <pt x="233" y="368" on="0"/>
        <pt x="208" y="301" on="0"/>
        <pt x="199" y="250" on="1"/>
        <pt x="190" y="199" on="0"/>
        <pt x="192" y="132" on="0"/>
        <pt x="210" y="90" on="0"/>
        <pt x="241" y="69" on="0"/>
        <pt x="261" y="65" on="1"/>
      </contour>
    </TTGlyph>
    <TTGlyph name="afii10087" xMin="15" yMin="0" xMax="508" yMax="500">
      <contour>
        <pt x="383" y="500" on="1"/>
        <pt x="508" y="500" on="1"/>
        <pt x="349" y="255" on="1"/>
        <pt x="425" y="0" on="1"/>
        <pt x="300" y="0" on="1"/>
        <pt x="252" y="185" on="1"/>
        <pt x="140" y="0" on="1"/>
        <pt x="15" y="0" on="1"/>
        <pt x="179" y="255" on="1"/>
        <pt x="108" y="500" on="1"/>
        <pt x="233" y="500" on="1"/>
        <pt x="277" y="325" on="1"/>
      </contour>
    </TTGlyph>
    <TTGlyph name="afii10088" xMin="82" yMin="-145" xMax="528" yMax="500">
      <contour>
        <pt x="523" y="75" on="1"/>
        <pt x="484" y="-145" on="1"/>
        <pt x="409" y="-145" on="1"/>
        <pt x="398" y="-119" on="0"/>
        <pt x="390" y="-45" on="0"/>
        <pt x="395" y="0" on="1"/>
        <pt x="372" y="0" on="0"/>
        <pt x="348" y="25" on="0"/>
        <pt x="347" y="40" on="1"/>
        <pt x="342" y="40" on="1"/>
        <pt x="319" y="17" on="0"/>
        <pt x="256" y="-10" on="0"/>
        <pt x="218" y="-10" on="1"/>
        <pt x="186" y="-10" on="0"/>
        <pt x="132" y="3" on="0"/>
        <pt x="96" y="39" on="0"/>
        <pt x="82" y="101" on="0"/>
        <pt x="91" y="150" on="1"/>
        <pt x="153" y="500" on="1"/>
        <pt x="273" y="500" on="1"/>
        <pt x="211" y="150" on="1"/>
        <pt x="206" y="124" on="0"/>
        <pt x="214" y="89" on="0"/>
        <pt x="233" y="68" on="0"/>
        <pt x="260" y="60" on="0"/>
        <pt x="275" y="60" on="1"/>
        <pt x="294" y="60" on="0"/>
        <pt x="325" y="72" on="0"/>
        <pt x="334" y="80" on="1"/>
        <pt x="408" y="500" on="1"/>
        <pt x="528" y="500" on="1"/>
        <pt x="460" y="115" on="1"/>
        <pt x="456" y="96" on="0"/>
        <pt x="474" y="75" on="0"/>
        <pt x="493" y="75" on="1"/>
      </contour>
    </TTGlyph>
    <TTGlyph name="afii10089" xMin="89" yMin="0" xMax="503" yMax="500">
      <contour>
        <pt x="128" y="500" on="1"/>
        <pt x="248" y="500" on="1"/>
        <pt x="217" y="325" on="1"/>
        <pt x="212" y="301" on="0"/>
        <pt x="221" y="268" on="0"/>
        <pt x="241" y="248" on="0"/>
        <pt x="270" y="240" on="0"/>
        <pt x="287" y="240" on="1"/>
        <pt x="337" y="240" on="1"/>
        <pt x="383" y="500" on="1"/>
        <pt x="503" y="500" on="1"/>
        <pt x="415" y="0" on="1"/>
        <pt x="295" y="0" on="1"/>
        <pt x="326" y="180" on="1"/>
        <pt x="306" y="176" on="0"/>
        <pt x="250" y="170" on="0"/>
        <pt x="224" y="170" on="1"/>
        <pt x="192" y="170" on="0"/>
        <pt x="138" y="183" on="0"/>
        <pt x="102" y="218" on="0"/>
        <pt x="89" y="278" on="0"/>
        <pt x="97" y="325" on="1"/>
      </contour>
    </TTGlyph>
    <TTGlyph name="afii10090" xMin="82" yMin="-10" xMax="763" yMax="500">
      <contour>
        <pt x="398" y="500" on="1"/>
        <pt x="518" y="500" on="1"/>
        <pt x="456" y="150" on="1"/>
        <pt x="451" y="124" on="0"/>
        <pt x="459" y="89" on="0"/>
        <pt x="476" y="68" on="0"/>
        <pt x="499" y="60" on="0"/>
        <pt x="510" y="60" on="1"/>
        <pt x="529" y="60" on="0"/>
        <pt x="560" y="72" on="0"/>
        <pt x="569" y="80" on="1"/>
        <pt x="643" y="500" on="1"/>
        <pt x="763" y="500" on="1"/>
        <pt x="675" y="0" on="1"/>
        <pt x="590" y="0" on="1"/>
        <pt x="580" y="30" on="1"/>
        <pt x="575" y="30" on="1"/>
        <pt x="556" y="15" on="0"/>
        <pt x="498" y="-10" on="0"/>
        <pt x="453" y="-10" on="1"/>
        <pt x="415" y="-10" on="0"/>
        <pt x="365" y="11" on="0"/>
        <pt x="350" y="30" on="1"/>
        <pt x="324" y="11" on="0"/>
        <pt x="258" y="-10" on="0"/>
        <pt x="213" y="-10" on="1"/>
        <pt x="183" y="-10" on="0"/>
        <pt x="131" y="3" on="0"/>
        <pt x="96" y="39" on="0"/>
        <pt x="82" y="101" on="0"/>
        <pt x="91" y="150" on="1"/>
        <pt x="153" y="500" on="1"/>
        <pt x="273" y="500" on="1"/>
        <pt x="211" y="150" on="1"/>
        <pt x="206" y="124" on="0"/>
        <pt x="214" y="89" on="0"/>
        <pt x="232" y="68" on="0"/>
        <pt x="257" y="60" on="0"/>
        <pt x="270" y="60" on="1"/>
        <pt x="289" y="60" on="0"/>
        <pt x="320" y="69" on="0"/>
        <pt x="333" y="75" on="1"/>
        <pt x="331" y="86" on="0"/>
        <pt x="332" y="127" on="0"/>
        <pt x="336" y="150" on="1"/>
      </contour>
    </TTGlyph>
    <TTGlyph name="afii10091" xMin="82" yMin="-145" xMax="763" yMax="500">
      <contour>
        <pt x="453" y="-10" on="1"/>
        <pt x="415" y="-10" on="0"/>
        <pt x="365" y="11" on="0"/>
        <pt x="350" y="30" on="1"/>
        <pt x="324" y="11" on="0"/>
        <pt x="258" y="-10" on="0"/>
        <pt x="213" y="-10" on="1"/>
        <pt x="183" y="-10" on="0"/>
        <pt x="131" y="3" on="0"/>
        <pt x="96" y="39" on="0"/>
        <pt x="82" y="101" on="0"/>
        <pt x="91" y="150" on="1"/>
        <pt x="153" y="500" on="1"/>
        <pt x="273" y="500" on="1"/>
        <pt x="211" y="150" on="1"/>
        <pt x="206" y="124" on="0"/>
        <pt x="214" y="89" on="0"/>
        <pt x="232" y="68" on="0"/>
        <pt x="257" y="60" on="0"/>
        <pt x="270" y="60" on="1"/>
        <pt x="289" y="60" on="0"/>
        <pt x="320" y="69" on="0"/>
        <pt x="333" y="75" on="1"/>
        <pt x="331" y="86" on="0"/>
        <pt x="332" y="127" on="0"/>
        <pt x="336" y="150" on="1"/>
        <pt x="398" y="500" on="1"/>
        <pt x="518" y="500" on="1"/>
        <pt x="456" y="150" on="1"/>
        <pt x="451" y="124" on="0"/>
        <pt x="459" y="89" on="0"/>
        <pt x="476" y="68" on="0"/>
        <pt x="499" y="60" on="0"/>
        <pt x="510" y="60" on="1"/>
        <pt x="529" y="60" on="0"/>
        <pt x="560" y="72" on="0"/>
        <pt x="569" y="80" on="1"/>
        <pt x="643" y="500" on="1"/>
        <pt x="763" y="500" on="1"/>
        <pt x="695" y="115" on="1"/>
        <pt x="691" y="96" on="0"/>
        <pt x="709" y="75" on="0"/>
        <pt x="728" y="75" on="1"/>
        <pt x="758" y="75" on="1"/>
        <pt x="719" y="-145" on="1"/>
        <pt x="644" y="-145" on="1"/>
        <pt x="633" y="-119" on="0"/>
        <pt x="625" y="-45" on="0"/>
        <pt x="630" y="0" on="1"/>
        <pt x="607" y="0" on="0"/>
        <pt x="583" y="25" on="0"/>
        <pt x="582" y="40" on="1"/>
        <pt x="577" y="40" on="1"/>
        <pt x="554" y="17" on="0"/>
        <pt x="491" y="-10" on="0"/>
      </contour>
    </TTGlyph>
</ttFont>
